  0
SECTION
  2
HEADER
  9
$ACADVER
  1
AC1032
  9
$ACADMAINTVER
 90
      174
  9
$DWGCODEPAGE
  3
ANSI_936
  9
$LASTSAVEDBY
  1
Canarypwn
  9
$REQUIREDVERSIONS
160
                 0
  9
$INSBASE
 10
0.0
 20
0.0
 30
0.0
  9
$EXTMIN
 10
0.0
 20
3.0
 30
0.0
  9
$EXTMAX
 10
209.2529118
 20
377.0
 30
0.0
  9
$LIMMIN
 10
0.0
 20
0.0
  9
$LIMMAX
 10
12.0
 20
9.0
  9
$ORTHOMODE
 70
     0
  9
$REGENMODE
 70
     1
  9
$FILLMODE
 70
     1
  9
$QTEXTMODE
 70
     0
  9
$MIRRTEXT
 70
     0
  9
$LTSCALE
 40
1.0
  9
$ATTMODE
 70
     1
  9
$TEXTSIZE
 40
0.2
  9
$TRACEWID
 40
0.05
  9
$TEXTSTYLE
  7
Standard
  9
$CLAYER
  8
0
  9
$CELTYPE
  6
Continuous
  9
$CECOLOR
 62
   256
  9
$CELTSCALE
 40
1.0
  9
$DISPSILH
 70
     0
  9
$DIMSCALE
 40
1.0
  9
$DIMASZ
 40
0.18
  9
$DIMEXO
 40
0.0625
  9
$DIMDLI
 40
0.38
  9
$DIMRND
 40
0.0
  9
$DIMDLE
 40
0.0
  9
$DIMEXE
 40
0.18
  9
$DIMTP
 40
0.0
  9
$DIMTM
 40
0.0
  9
$DIMTXT
 40
0.18
  9
$DIMCEN
 40
0.09
  9
$DIMTSZ
 40
0.0
  9
$DIMTOL
 70
     0
  9
$DIMLIM
 70
     0
  9
$DIMTIH
 70
     1
  9
$DIMTOH
 70
     1
  9
$DIMSE1
 70
     0
  9
$DIMSE2
 70
     0
  9
$DIMTAD
 70
     0
  9
$DIMZIN
 70
     0
  9
$DIMBLK
  1

  9
$DIMASO
 70
     1
  9
$DIMSHO
 70
     1
  9
$DIMPOST
  1

  9
$DIMAPOST
  1

  9
$DIMALT
 70
     0
  9
$DIMALTD
 70
     2
  9
$DIMALTF
 40
25.4
  9
$DIMLFAC
 40
1.0
  9
$DIMTOFL
 70
     0
  9
$DIMTVP
 40
0.0
  9
$DIMTIX
 70
     0
  9
$DIMSOXD
 70
     0
  9
$DIMSAH
 70
     0
  9
$DIMBLK1
  1

  9
$DIMBLK2
  1

  9
$DIMSTYLE
  2
Standard
  9
$DIMCLRD
 70
     0
  9
$DIMCLRE
 70
     0
  9
$DIMCLRT
 70
     0
  9
$DIMTFAC
 40
1.0
  9
$DIMGAP
 40
0.09
  9
$DIMJUST
 70
     0
  9
$DIMSD1
 70
     0
  9
$DIMSD2
 70
     0
  9
$DIMTOLJ
 70
     1
  9
$DIMTZIN
 70
     0
  9
$DIMALTZ
 70
     0
  9
$DIMALTTZ
 70
     0
  9
$DIMUPT
 70
     0
  9
$DIMDEC
 70
     4
  9
$DIMTDEC
 70
     4
  9
$DIMALTU
 70
     2
  9
$DIMALTTD
 70
     2
  9
$DIMTXSTY
  7
Standard
  9
$DIMAUNIT
 70
     0
  9
$DIMADEC
 70
     0
  9
$DIMALTRND
 40
0.0
  9
$DIMAZIN
 70
     0
  9
$DIMDSEP
 70
    46
  9
$DIMATFIT
 70
     3
  9
$DIMFRAC
 70
     0
  9
$DIMLDRBLK
  1

  9
$DIMLUNIT
 70
     2
  9
$DIMLWD
 70
    -2
  9
$DIMLWE
 70
    -2
  9
$DIMTMOVE
 70
     0
  9
$DIMFXL
 40
1.0
  9
$DIMFXLON
 70
     0
  9
$DIMJOGANG
 40
0.7853981633974483
  9
$DIMTFILL
 70
     0
  9
$DIMTFILLCLR
 70
     0
  9
$DIMARCSYM
 70
     0
  9
$DIMLTYPE
  6

  9
$DIMLTEX1
  6

  9
$DIMLTEX2
  6

  9
$DIMTXTDIRECTION
 70
     0
  9
$LUNITS
 70
     2
  9
$LUPREC
 70
     4
  9
$SKETCHINC
 40
0.1
  9
$FILLETRAD
 40
0.0
  9
$AUNITS
 70
     0
  9
$AUPREC
 70
     0
  9
$MENU
  1
.
  9
$ELEVATION
 40
0.0
  9
$PELEVATION
 40
0.0
  9
$THICKNESS
 40
0.0
  9
$LIMCHECK
 70
     0
  9
$CHAMFERA
 40
0.0
  9
$CHAMFERB
 40
0.0
  9
$CHAMFERC
 40
0.0
  9
$CHAMFERD
 40
0.0
  9
$SKPOLY
 70
     0
  9
$TDCREATE
 40
2459113.800833333
  9
$TDUCREATE
 40
2459113.467500000
  9
$TDUPDATE
 40
2459114.430659722
  9
$TDUUPDATE
 40
2459114.097326389
  9
$TDINDWG
 40
0.6298263889
  9
$TDUSRTIMER
 40
0.6298263889
  9
$USRTIMER
 70
     1
  9
$ANGBASE
 50
0.0
  9
$ANGDIR
 70
     0
  9
$PDMODE
 70
     0
  9
$PDSIZE
 40
0.0
  9
$PLINEWID
 40
0.0
  9
$SPLFRAME
 70
     0
  9
$SPLINETYPE
 70
     6
  9
$SPLINESEGS
 70
     8
  9
$HANDSEED
  5
D6B
  9
$SURFTAB1
 70
     6
  9
$SURFTAB2
 70
     6
  9
$SURFTYPE
 70
     6
  9
$SURFU
 70
     6
  9
$SURFV
 70
     6
  9
$UCSBASE
  2

  9
$UCSNAME
  2

  9
$UCSORG
 10
0.0
 20
0.0
 30
0.0
  9
$UCSXDIR
 10
1.0
 20
0.0
 30
0.0
  9
$UCSYDIR
 10
0.0
 20
1.0
 30
0.0
  9
$UCSORTHOREF
  2

  9
$UCSORTHOVIEW
 70
     0
  9
$UCSORGTOP
 10
0.0
 20
0.0
 30
0.0
  9
$UCSORGBOTTOM
 10
0.0
 20
0.0
 30
0.0
  9
$UCSORGLEFT
 10
0.0
 20
0.0
 30
0.0
  9
$UCSORGRIGHT
 10
0.0
 20
0.0
 30
0.0
  9
$UCSORGFRONT
 10
0.0
 20
0.0
 30
0.0
  9
$UCSORGBACK
 10
0.0
 20
0.0
 30
0.0
  9
$PUCSBASE
  2

  9
$PUCSNAME
  2

  9
$PUCSORG
 10
0.0
 20
0.0
 30
0.0
  9
$PUCSXDIR
 10
1.0
 20
0.0
 30
0.0
  9
$PUCSYDIR
 10
0.0
 20
1.0
 30
0.0
  9
$PUCSORTHOREF
  2

  9
$PUCSORTHOVIEW
 70
     0
  9
$PUCSORGTOP
 10
0.0
 20
0.0
 30
0.0
  9
$PUCSORGBOTTOM
 10
0.0
 20
0.0
 30
0.0
  9
$PUCSORGLEFT
 10
0.0
 20
0.0
 30
0.0
  9
$PUCSORGRIGHT
 10
0.0
 20
0.0
 30
0.0
  9
$PUCSORGFRONT
 10
0.0
 20
0.0
 30
0.0
  9
$PUCSORGBACK
 10
0.0
 20
0.0
 30
0.0
  9
$USERI1
 70
     0
  9
$USERI2
 70
     0
  9
$USERI3
 70
     0
  9
$USERI4
 70
     0
  9
$USERI5
 70
     0
  9
$USERR1
 40
0.0
  9
$USERR2
 40
0.0
  9
$USERR3
 40
0.0
  9
$USERR4
 40
0.0
  9
$USERR5
 40
0.0
  9
$WORLDVIEW
 70
     1
  9
$SHADEDGE
 70
     3
  9
$SHADEDIF
 70
    70
  9
$TILEMODE
 70
     1
  9
$MAXACTVP
 70
    64
  9
$PINSBASE
 10
0.0
 20
0.0
 30
0.0
  9
$PLIMCHECK
 70
     0
  9
$PEXTMIN
 10
1.000000000000000E+20
 20
1.000000000000000E+20
 30
1.000000000000000E+20
  9
$PEXTMAX
 10
-1.000000000000000E+20
 20
-1.000000000000000E+20
 30
-1.000000000000000E+20
  9
$PLIMMIN
 10
0.0
 20
0.0
  9
$PLIMMAX
 10
12.0
 20
9.0
  9
$UNITMODE
 70
     0
  9
$VISRETAIN
 70
     1
  9
$PLINEGEN
 70
     0
  9
$PSLTSCALE
 70
     1
  9
$TREEDEPTH
 70
  3020
  9
$CMLSTYLE
  2
Standard
  9
$CMLJUST
 70
     0
  9
$CMLSCALE
 40
1.0
  9
$PROXYGRAPHICS
 70
     1
  9
$MEASUREMENT
 70
     0
  9
$CELWEIGHT
370
    -1
  9
$ENDCAPS
280
     0
  9
$JOINSTYLE
280
     0
  9
$LWDISPLAY
290
     0
  9
$INSUNITS
 70
     1
  9
$HYPERLINKBASE
  1

  9
$STYLESHEET
  1

  9
$XEDIT
290
     1
  9
$CEPSNTYPE
380
     0
  9
$PSTYLEMODE
290
     1
  9
$FINGERPRINTGUID
  2
{B078139E-CC67-4543-8AAE-E39CB9998173}
  9
$VERSIONGUID
  2
{D6A0ECBE-D5C3-C54E-843D-490F05859726}
  9
$EXTNAMES
290
     1
  9
$PSVPSCALE
 40
0.0
  9
$OLESTARTUP
290
     0
  9
$SORTENTS
280
   127
  9
$INDEXCTL
280
     0
  9
$HIDETEXT
280
     0
  9
$XCLIPFRAME
280
     2
  9
$HALOGAP
280
     0
  9
$OBSCOLOR
 70
   257
  9
$OBSLTYPE
280
     0
  9
$INTERSECTIONDISPLAY
280
     0
  9
$INTERSECTIONCOLOR
 70
   257
  9
$DIMASSOC
280
     1
  9
$PROJECTNAME
  1

  9
$CAMERADISPLAY
290
     0
  9
$LENSLENGTH
 40
50.0
  9
$CAMERAHEIGHT
 40
0.0
  9
$STEPSPERSEC
 40
2.0
  9
$STEPSIZE
 40
6.0
  9
$3DDWFPREC
 40
2.0
  9
$PSOLWIDTH
 40
0.25
  9
$PSOLHEIGHT
 40
4.0
  9
$LOFTANG1
 40
1.570796326794896
  9
$LOFTANG2
 40
1.570796326794896
  9
$LOFTMAG1
 40
0.0
  9
$LOFTMAG2
 40
0.0
  9
$LOFTPARAM
 70
     7
  9
$LOFTNORMALS
280
     1
  9
$LATITUDE
 40
37.795
  9
$LONGITUDE
 40
-122.394
  9
$NORTHDIRECTION
 40
0.0
  9
$TIMEZONE
 70
 -8000
  9
$LIGHTGLYPHDISPLAY
280
     1
  9
$TILEMODELIGHTSYNCH
280
     1
  9
$CMATERIAL
347
11
  9
$SOLIDHIST
280
     0
  9
$SHOWHIST
280
     1
  9
$DWFFRAME
280
     2
  9
$DGNFRAME
280
     0
  9
$REALWORLDSCALE
290
     1
  9
$INTERFERECOLOR
 62
     1
  9
$INTERFEREOBJVS
345
33
  9
$INTERFEREVPVS
346
30
  9
$CSHADOW
280
     0
  9
$SHADOWPLANELOCATION
 40
0.0
  0
ENDSEC
  0
SECTION
  2
CLASSES
  0
CLASS
  1
ACDBDICTIONARYWDFLT
  2
AcDbDictionaryWithDefault
  3
ObjectDBX Classes
 90
        0
 91
        1
280
     0
281
     0
  0
CLASS
  1
MATERIAL
  2
AcDbMaterial
  3
ObjectDBX Classes
 90
     1153
 91
        3
280
     0
281
     0
  0
CLASS
  1
VISUALSTYLE
  2
AcDbVisualStyle
  3
ObjectDBX Classes
 90
     4095
 91
       24
280
     0
281
     0
  0
CLASS
  1
SCALE
  2
AcDbScale
  3
ObjectDBX Classes
 90
     1153
 91
       17
280
     0
281
     0
  0
CLASS
  1
TABLESTYLE
  2
AcDbTableStyle
  3
ObjectDBX Classes
 90
     4095
 91
        1
280
     0
281
     0
  0
CLASS
  1
MLEADERSTYLE
  2
AcDbMLeaderStyle
  3
ACDB_MLEADERSTYLE_CLASS
 90
     4095
 91
        1
280
     0
281
     0
  0
CLASS
  1
ACDBSECTIONVIEWSTYLE
  2
AcDbSectionViewStyle
  3
ObjectDBX Classes
 90
     1025
 91
        1
280
     0
281
     0
  0
CLASS
  1
ACDBDETAILVIEWSTYLE
  2
AcDbDetailViewStyle
  3
ObjectDBX Classes
 90
     1025
 91
        1
280
     0
281
     0
  0
CLASS
  1
DICTIONARYVAR
  2
AcDbDictionaryVar
  3
ObjectDBX Classes
 90
        0
 91
        9
280
     0
281
     0
  0
CLASS
  1
CELLSTYLEMAP
  2
AcDbCellStyleMap
  3
ObjectDBX Classes
 90
     1152
 91
        2
280
     0
281
     0
  0
CLASS
  1
PLOTSETTINGS
  2
AcDbPlotSettings
  3
ObjectDBX Classes
 90
        0
 91
        1
280
     0
281
     0
  0
ENDSEC
  0
SECTION
  2
TABLES
  0
TABLE
  2
VPORT
  5
8
330
0
100
AcDbSymbolTable
 70
     1
  0
VPORT
  5
74
330
8
100
AcDbSymbolTableRecord
100
AcDbViewportTableRecord
  2
*Active
 70
     0
 10
0.0
 20
0.0
 11
1.0
 21
1.0
 12
-166.9578395816284
 22
206.3167780101612
 13
0.0
 23
0.0
 14
1.0
 24
1.0
 15
0.0
 25
0.0
 16
0.0
 26
0.0
 36
1.0
 17
0.0
 27
0.0
 37
0.0
 40
468.1047227158654
 41
2.297890295358649
 42
50.0
 43
0.0
 44
0.0
 50
0.0
 51
0.0
 71
     0
 72
   100
 73
     1
 74
     1
 75
     0
 76
     0
 77
     0
 78
     0
281
     0
 65
     1
110
0.0
120
0.0
130
0.0
111
1.0
121
0.0
131
0.0
112
0.0
122
1.0
132
0.0
 79
     0
146
0.0
348
2F
 60
     3
 61
     5
292
     1
282
     1
141
0.0
142
0.0
 63
   250
421
  3355443
1001
ACAD_NAV_VCDISPLAY
1070
     3
  0
ENDTAB
  0
TABLE
  2
LTYPE
  5
5
330
0
100
AcDbSymbolTable
 70
     3
  0
LTYPE
  5
5A
330
5
100
AcDbSymbolTableRecord
100
AcDbLinetypeTableRecord
  2
ByBlock
 70
     0
  3

 72
    65
 73
     0
 40
0.0
  0
LTYPE
  5
5B
330
5
100
AcDbSymbolTableRecord
100
AcDbLinetypeTableRecord
  2
ByLayer
 70
     0
  3

 72
    65
 73
     0
 40
0.0
  0
LTYPE
  5
5C
330
5
100
AcDbSymbolTableRecord
100
AcDbLinetypeTableRecord
  2
Continuous
 70
     0
  3
Solid line
 72
    65
 73
     0
 40
0.0
  0
ENDTAB
  0
TABLE
  2
LAYER
  5
2
330
0
100
AcDbSymbolTable
 70
    25
  0
LAYER
  5
54
102
{ACAD_XDICTIONARY
360
D25
102
}
330
2
100
AcDbSymbolTableRecord
100
AcDbLayerTableRecord
  2
0
 70
     0
 62
     7
  6
Continuous
370
    -3
390
F
347
21
348
0
  0
LAYER
  5
75
102
{ACAD_XDICTIONARY
360
D27
102
}
330
2
100
AcDbSymbolTableRecord
100
AcDbLayerTableRecord
  2
side1_outsideCutPath
 70
     0
 62
     7
  6
Continuous
370
    -3
390
F
347
21
348
0
  0
LAYER
  5
AA
102
{ACAD_XDICTIONARY
360
D29
102
}
330
2
100
AcDbSymbolTableRecord
100
AcDbLayerTableRecord
  2
side1_labelLayer
 70
     0
 62
     7
  6
Continuous
370
    -3
390
F
347
21
348
0
  0
LAYER
  5
16E
102
{ACAD_XDICTIONARY
360
D2B
102
}
330
2
100
AcDbSymbolTableRecord
100
AcDbLayerTableRecord
  2
side3_outsideCutPath
 70
     0
 62
     7
  6
Continuous
370
    -3
390
F
347
21
348
0
  0
LAYER
  5
1A3
102
{ACAD_XDICTIONARY
360
D2D
102
}
330
2
100
AcDbSymbolTableRecord
100
AcDbLayerTableRecord
  2
side3_labelLayer
 70
     0
 62
     7
  6
Continuous
370
    -3
390
F
347
21
348
0
  0
LAYER
  5
290
102
{ACAD_XDICTIONARY
360
D2F
102
}
330
2
100
AcDbSymbolTableRecord
100
AcDbLayerTableRecord
  2
side5_outsideCutPath
 70
     0
 62
     7
  6
Continuous
370
    -3
390
F
347
21
348
0
  0
LAYER
  5
2C5
102
{ACAD_XDICTIONARY
360
D31
102
}
330
2
100
AcDbSymbolTableRecord
100
AcDbLayerTableRecord
  2
side5_labelLayer
 70
     0
 62
     7
  6
Continuous
370
    -3
390
F
347
21
348
0
  0
LAYER
  5
3A0
102
{ACAD_XDICTIONARY
360
D33
102
}
330
2
100
AcDbSymbolTableRecord
100
AcDbLayerTableRecord
  2
side7_outsideCutPath
 70
     0
 62
     7
  6
Continuous
370
    -3
390
F
347
21
348
0
  0
LAYER
  5
3D5
102
{ACAD_XDICTIONARY
360
D35
102
}
330
2
100
AcDbSymbolTableRecord
100
AcDbLayerTableRecord
  2
side7_labelLayer
 70
     0
 62
     7
  6
Continuous
370
    -3
390
F
347
21
348
0
  0
LAYER
  5
48F
102
{ACAD_XDICTIONARY
360
D37
102
}
330
2
100
AcDbSymbolTableRecord
100
AcDbLayerTableRecord
  2
side9_outsideCutPath
 70
     0
 62
     7
  6
Continuous
370
    -3
390
F
347
21
348
0
  0
LAYER
  5
4C4
102
{ACAD_XDICTIONARY
360
D39
102
}
330
2
100
AcDbSymbolTableRecord
100
AcDbLayerTableRecord
  2
side9_labelLayer
 70
     0
 62
     7
  6
Continuous
370
    -3
390
F
347
21
348
0
  0
LAYER
  5
5B2
102
{ACAD_XDICTIONARY
360
D3B
102
}
330
2
100
AcDbSymbolTableRecord
100
AcDbLayerTableRecord
  2
side0_outsideCutPath
 70
     0
 62
     7
  6
Continuous
370
    -3
390
F
347
21
348
0
  0
LAYER
  5
5E7
102
{ACAD_XDICTIONARY
360
D3D
102
}
330
2
100
AcDbSymbolTableRecord
100
AcDbLayerTableRecord
  2
side0_labelLayer
 70
     0
 62
     7
  6
Continuous
370
    -3
390
F
347
21
348
0
  0
LAYER
  5
6CF
102
{ACAD_XDICTIONARY
360
D3F
102
}
330
2
100
AcDbSymbolTableRecord
100
AcDbLayerTableRecord
  2
side2_outsideCutPath
 70
     0
 62
     7
  6
Continuous
370
    -3
390
F
347
21
348
0
  0
LAYER
  5
704
102
{ACAD_XDICTIONARY
360
D41
102
}
330
2
100
AcDbSymbolTableRecord
100
AcDbLayerTableRecord
  2
side2_labelLayer
 70
     0
 62
     7
  6
Continuous
370
    -3
390
F
347
21
348
0
  0
LAYER
  5
7DE
102
{ACAD_XDICTIONARY
360
D43
102
}
330
2
100
AcDbSymbolTableRecord
100
AcDbLayerTableRecord
  2
side4_outsideCutPath
 70
     0
 62
     7
  6
Continuous
370
    -3
390
F
347
21
348
0
  0
LAYER
  5
813
102
{ACAD_XDICTIONARY
360
D45
102
}
330
2
100
AcDbSymbolTableRecord
100
AcDbLayerTableRecord
  2
side4_labelLayer
 70
     0
 62
     7
  6
Continuous
370
    -3
390
F
347
21
348
0
  0
LAYER
  5
8DB
102
{ACAD_XDICTIONARY
360
D47
102
}
330
2
100
AcDbSymbolTableRecord
100
AcDbLayerTableRecord
  2
side6_outsideCutPath
 70
     0
 62
     7
  6
Continuous
370
    -3
390
F
347
21
348
0
  0
LAYER
  5
910
102
{ACAD_XDICTIONARY
360
D49
102
}
330
2
100
AcDbSymbolTableRecord
100
AcDbLayerTableRecord
  2
side6_labelLayer
 70
     0
 62
     7
  6
Continuous
370
    -3
390
F
347
21
348
0
  0
LAYER
  5
9FD
102
{ACAD_XDICTIONARY
360
D4B
102
}
330
2
100
AcDbSymbolTableRecord
100
AcDbLayerTableRecord
  2
side8_outsideCutPath
 70
     0
 62
     7
  6
Continuous
370
    -3
390
F
347
21
348
0
  0
LAYER
  5
A32
102
{ACAD_XDICTIONARY
360
D4D
102
}
330
2
100
AcDbSymbolTableRecord
100
AcDbLayerTableRecord
  2
side8_labelLayer
 70
     0
 62
     7
  6
Continuous
370
    -3
390
F
347
21
348
0
  0
LAYER
  5
B32
102
{ACAD_XDICTIONARY
360
D4F
102
}
330
2
100
AcDbSymbolTableRecord
100
AcDbLayerTableRecord
  2
top_outsideCutPath
 70
     0
 62
     7
  6
Continuous
370
    -3
390
F
347
21
348
0
  0
LAYER
  5
B65
102
{ACAD_XDICTIONARY
360
D51
102
}
330
2
100
AcDbSymbolTableRecord
100
AcDbLayerTableRecord
  2
top_labelLayer
 70
     0
 62
     7
  6
Continuous
370
    -3
390
F
347
21
348
0
  0
LAYER
  5
BE4
102
{ACAD_XDICTIONARY
360
D53
102
}
330
2
100
AcDbSymbolTableRecord
100
AcDbLayerTableRecord
  2
bottom_outsideCutPath
 70
     0
 62
     7
  6
Continuous
370
    -3
390
F
347
21
348
0
  0
LAYER
  5
C17
102
{ACAD_XDICTIONARY
360
D55
102
}
330
2
100
AcDbSymbolTableRecord
100
AcDbLayerTableRecord
  2
bottom_labelLayer
 70
     0
 62
     7
  6
Continuous
370
    -3
390
F
347
21
348
0
  0
ENDTAB
  0
TABLE
  2
STYLE
  5
3
330
0
100
AcDbSymbolTable
 70
     2
  0
STYLE
  5
55
330
3
100
AcDbSymbolTableRecord
100
AcDbTextStyleTableRecord
  2
Standard
 70
     0
 40
0.0
 41
1.0
 50
0.0
 71
     0
 42
0.2
  3
txt
  4

  0
STYLE
  5
59
330
3
100
AcDbSymbolTableRecord
100
AcDbTextStyleTableRecord
  2
Annotative
 70
     0
 40
0.0
 41
1.0
 50
0.0
 71
     0
 42
0.2
  3
txt
  4

1001
AcadAnnotative
1000
AnnotativeData
1002
{
1070
     1
1070
     1
1002
}
  0
ENDTAB
  0
TABLE
  2
VIEW
  5
6
330
0
100
AcDbSymbolTable
 70
     0
  0
ENDTAB
  0
TABLE
  2
UCS
  5
7
330
0
100
AcDbSymbolTable
 70
     0
  0
ENDTAB
  0
TABLE
  2
APPID
  5
9
330
0
100
AcDbSymbolTable
 70
     5
  0
APPID
  5
56
330
9
100
AcDbSymbolTableRecord
100
AcDbRegAppTableRecord
  2
ACAD
 70
     0
  0
APPID
  5
5D
330
9
100
AcDbSymbolTableRecord
100
AcDbRegAppTableRecord
  2
AcadAnnotative
 70
     0
  0
APPID
  5
D17
330
9
100
AcDbSymbolTableRecord
100
AcDbRegAppTableRecord
  2
ACAD_EXEMPT_FROM_CAD_STANDARDS
 70
     0
  0
APPID
  5
D61
330
9
100
AcDbSymbolTableRecord
100
AcDbRegAppTableRecord
  2
ACAD_NAV_VCDISPLAY
 70
     0
  0
APPID
  5
D67
330
9
100
AcDbSymbolTableRecord
100
AcDbRegAppTableRecord
  2
ACAD_PSEXT
 70
     0
  0
ENDTAB
  0
TABLE
  2
DIMSTYLE
  5
A
330
0
100
AcDbSymbolTable
 70
     4
100
AcDbDimStyleTable
 71
     1
340
57
  0
DIMSTYLE
105
57
330
A
100
AcDbSymbolTableRecord
100
AcDbDimStyleTableRecord
  2
Standard
 70
     0
340
55
  0
DIMSTYLE
105
58
330
A
100
AcDbSymbolTableRecord
100
AcDbDimStyleTableRecord
  2
Annotative
 70
     0
340
55
1001
AcadAnnotative
1000
AnnotativeData
1002
{
1070
     1
1070
     1
1002
}
  0
ENDTAB
  0
TABLE
  2
BLOCK_RECORD
  5
1
330
0
100
AcDbSymbolTable
 70
     1
  0
BLOCK_RECORD
  5
6F
330
1
100
AcDbSymbolTableRecord
100
AcDbBlockTableRecord
  2
*Model_Space
340
72
 70
     0
280
     1
281
     0
  0
BLOCK_RECORD
  5
6B
330
1
100
AcDbSymbolTableRecord
100
AcDbBlockTableRecord
  2
*Paper_Space
340
6E
 70
     0
280
     1
281
     0
  0
ENDTAB
  0
ENDSEC
  0
SECTION
  2
BLOCKS
  0
BLOCK
  5
70
330
6F
100
AcDbEntity
  8
0
100
AcDbBlockBegin
  2
*Model_Space
 70
     0
 10
0.0
 20
0.0
 30
0.0
  3
*Model_Space
  1

  0
ENDBLK
  5
71
330
6F
100
AcDbEntity
  8
0
100
AcDbBlockEnd
  0
BLOCK
  5
6C
330
6B
100
AcDbEntity
 67
     1
  8
0
100
AcDbBlockBegin
  2
*Paper_Space
 70
     0
 10
0.0
 20
0.0
 30
0.0
  3
*Paper_Space
  1

  0
ENDBLK
  5
6D
330
6B
100
AcDbEntity
 67
     1
  8
0
100
AcDbBlockEnd
  0
ENDSEC
  0
SECTION
  2
ENTITIES
  0
LINE
  5
76
330
6F
100
AcDbEntity
  8
side1_outsideCutPath
100
AcDbLine
 10
9.233050599999998
 20
136.0
 30
0.0
 11
9.233050599999998
 21
125.0
 31
0.0
  0
LINE
  5
77
330
6F
100
AcDbEntity
  8
side1_outsideCutPath
100
AcDbLine
 10
9.233050599999998
 20
125.0
 30
0.0
 11
0.0
 21
125.0
 31
0.0
  0
LINE
  5
78
330
6F
100
AcDbEntity
  8
side1_outsideCutPath
100
AcDbLine
 10
0.0
 20
125.0
 30
0.0
 11
0.0
 21
113.0
 31
0.0
  0
LINE
  5
79
330
6F
100
AcDbEntity
  8
side1_outsideCutPath
100
AcDbLine
 10
0.0
 20
113.0
 30
0.0
 11
9.233050599999998
 21
113.0
 31
0.0
  0
LINE
  5
7A
330
6F
100
AcDbEntity
  8
side1_outsideCutPath
100
AcDbLine
 10
9.233050599999998
 20
113.0
 30
0.0
 11
9.233050599999998
 21
101.0
 31
0.0
  0
LINE
  5
7B
330
6F
100
AcDbEntity
  8
side1_outsideCutPath
100
AcDbLine
 10
9.233050599999998
 20
101.0
 30
0.0
 11
0.0
 21
101.0
 31
0.0
  0
LINE
  5
7C
330
6F
100
AcDbEntity
  8
side1_outsideCutPath
100
AcDbLine
 10
0.0
 20
101.0
 30
0.0
 11
0.0
 21
89.0
 31
0.0
  0
LINE
  5
7D
330
6F
100
AcDbEntity
  8
side1_outsideCutPath
100
AcDbLine
 10
0.0
 20
89.0
 30
0.0
 11
9.233050599999998
 21
89.0
 31
0.0
  0
LINE
  5
7E
330
6F
100
AcDbEntity
  8
side1_outsideCutPath
100
AcDbLine
 10
9.233050599999998
 20
89.0
 30
0.0
 11
9.233050599999998
 21
77.0
 31
0.0
  0
LINE
  5
7F
330
6F
100
AcDbEntity
  8
side1_outsideCutPath
100
AcDbLine
 10
9.233050599999998
 20
77.0
 30
0.0
 11
0.0
 21
77.0
 31
0.0
  0
LINE
  5
80
330
6F
100
AcDbEntity
  8
side1_outsideCutPath
100
AcDbLine
 10
0.0
 20
77.0
 30
0.0
 11
0.0
 21
65.0
 31
0.0
  0
LINE
  5
81
330
6F
100
AcDbEntity
  8
side1_outsideCutPath
100
AcDbLine
 10
0.0
 20
65.0
 30
0.0
 11
9.233050599999998
 21
65.0
 31
0.0
  0
LINE
  5
82
330
6F
100
AcDbEntity
  8
side1_outsideCutPath
100
AcDbLine
 10
9.233050599999998
 20
65.0
 30
0.0
 11
9.233050599999998
 21
53.0
 31
0.0
  0
LINE
  5
83
330
6F
100
AcDbEntity
  8
side1_outsideCutPath
100
AcDbLine
 10
9.233050599999998
 20
53.0
 30
0.0
 11
0.0
 21
53.0
 31
0.0
  0
LINE
  5
84
330
6F
100
AcDbEntity
  8
side1_outsideCutPath
100
AcDbLine
 10
0.0
 20
53.0
 30
0.0
 11
0.0
 21
41.0
 31
0.0
  0
LINE
  5
85
330
6F
100
AcDbEntity
  8
side1_outsideCutPath
100
AcDbLine
 10
0.0
 20
41.0
 30
0.0
 11
9.233050599999998
 21
41.0
 31
0.0
  0
LINE
  5
86
330
6F
100
AcDbEntity
  8
side1_outsideCutPath
100
AcDbLine
 10
9.233050599999998
 20
41.0
 30
0.0
 11
9.233050599999998
 21
29.0
 31
0.0
  0
LINE
  5
87
330
6F
100
AcDbEntity
  8
side1_outsideCutPath
100
AcDbLine
 10
9.233050599999998
 20
29.0
 30
0.0
 11
0.0
 21
29.0
 31
0.0
  0
LINE
  5
88
330
6F
100
AcDbEntity
  8
side1_outsideCutPath
100
AcDbLine
 10
0.0
 20
29.0
 30
0.0
 11
0.0
 21
17.0
 31
0.0
  0
LINE
  5
89
330
6F
100
AcDbEntity
  8
side1_outsideCutPath
100
AcDbLine
 10
0.0
 20
17.0
 30
0.0
 11
9.233050599999998
 21
17.0
 31
0.0
  0
LINE
  5
8A
330
6F
100
AcDbEntity
  8
side1_outsideCutPath
100
AcDbLine
 10
9.233050599999998
 20
17.0
 30
0.0
 11
9.233050599999998
 21
6.0
 31
0.0
  0
LINE
  5
8B
330
6F
100
AcDbEntity
  8
side1_outsideCutPath
100
AcDbLine
 10
9.233050599999998
 20
6.0
 30
0.0
 11
13.7252912
 21
6.0
 31
0.0
  0
LINE
  5
8C
330
6F
100
AcDbEntity
  8
side1_outsideCutPath
100
AcDbLine
 10
13.7252912
 20
6.0
 30
0.0
 11
13.7252912
 21
3.0
 31
0.0
  0
LINE
  5
8D
330
6F
100
AcDbEntity
  8
side1_outsideCutPath
100
AcDbLine
 10
13.7252912
 20
3.0
 30
0.0
 11
25.7252912
 21
3.0
 31
0.0
  0
LINE
  5
8E
330
6F
100
AcDbEntity
  8
side1_outsideCutPath
100
AcDbLine
 10
25.7252912
 20
3.0
 30
0.0
 11
25.7252912
 21
6.0
 31
0.0
  0
LINE
  5
8F
330
6F
100
AcDbEntity
  8
side1_outsideCutPath
100
AcDbLine
 10
25.7252912
 20
6.0
 30
0.0
 11
39.4505824
 21
6.0
 31
0.0
  0
LINE
  5
90
330
6F
100
AcDbEntity
  8
side1_outsideCutPath
100
AcDbLine
 10
39.4505824
 20
6.0
 30
0.0
 11
39.4505824
 21
17.0
 31
0.0
  0
LINE
  5
91
330
6F
100
AcDbEntity
  8
side1_outsideCutPath
100
AcDbLine
 10
39.4505824
 20
17.0
 30
0.0
 11
30.2175317
 21
17.0
 31
0.0
  0
LINE
  5
92
330
6F
100
AcDbEntity
  8
side1_outsideCutPath
100
AcDbLine
 10
30.2175317
 20
17.0
 30
0.0
 11
30.2175317
 21
29.0
 31
0.0
  0
LINE
  5
93
330
6F
100
AcDbEntity
  8
side1_outsideCutPath
100
AcDbLine
 10
30.2175317
 20
29.0
 30
0.0
 11
39.4505824
 21
29.0
 31
0.0
  0
LINE
  5
94
330
6F
100
AcDbEntity
  8
side1_outsideCutPath
100
AcDbLine
 10
39.4505824
 20
29.0
 30
0.0
 11
39.4505824
 21
41.0
 31
0.0
  0
LINE
  5
95
330
6F
100
AcDbEntity
  8
side1_outsideCutPath
100
AcDbLine
 10
39.4505824
 20
41.0
 30
0.0
 11
30.2175317
 21
41.0
 31
0.0
  0
LINE
  5
96
330
6F
100
AcDbEntity
  8
side1_outsideCutPath
100
AcDbLine
 10
30.2175317
 20
41.0
 30
0.0
 11
30.2175317
 21
53.0
 31
0.0
  0
LINE
  5
97
330
6F
100
AcDbEntity
  8
side1_outsideCutPath
100
AcDbLine
 10
30.2175317
 20
53.0
 30
0.0
 11
39.4505824
 21
53.0
 31
0.0
  0
LINE
  5
98
330
6F
100
AcDbEntity
  8
side1_outsideCutPath
100
AcDbLine
 10
39.4505824
 20
53.0
 30
0.0
 11
39.4505824
 21
65.0
 31
0.0
  0
LINE
  5
99
330
6F
100
AcDbEntity
  8
side1_outsideCutPath
100
AcDbLine
 10
39.4505824
 20
65.0
 30
0.0
 11
30.2175317
 21
65.0
 31
0.0
  0
LINE
  5
9A
330
6F
100
AcDbEntity
  8
side1_outsideCutPath
100
AcDbLine
 10
30.2175317
 20
65.0
 30
0.0
 11
30.2175317
 21
77.0
 31
0.0
  0
LINE
  5
9B
330
6F
100
AcDbEntity
  8
side1_outsideCutPath
100
AcDbLine
 10
30.2175317
 20
77.0
 30
0.0
 11
39.4505824
 21
77.0
 31
0.0
  0
LINE
  5
9C
330
6F
100
AcDbEntity
  8
side1_outsideCutPath
100
AcDbLine
 10
39.4505824
 20
77.0
 30
0.0
 11
39.4505824
 21
89.0
 31
0.0
  0
LINE
  5
9D
330
6F
100
AcDbEntity
  8
side1_outsideCutPath
100
AcDbLine
 10
39.4505824
 20
89.0
 30
0.0
 11
30.2175317
 21
89.0
 31
0.0
  0
LINE
  5
9E
330
6F
100
AcDbEntity
  8
side1_outsideCutPath
100
AcDbLine
 10
30.2175317
 20
89.0
 30
0.0
 11
30.2175317
 21
101.0
 31
0.0
  0
LINE
  5
9F
330
6F
100
AcDbEntity
  8
side1_outsideCutPath
100
AcDbLine
 10
30.2175317
 20
101.0
 30
0.0
 11
39.4505824
 21
101.0
 31
0.0
  0
LINE
  5
A0
330
6F
100
AcDbEntity
  8
side1_outsideCutPath
100
AcDbLine
 10
39.4505824
 20
101.0
 30
0.0
 11
39.4505824
 21
113.0
 31
0.0
  0
LINE
  5
A1
330
6F
100
AcDbEntity
  8
side1_outsideCutPath
100
AcDbLine
 10
39.4505824
 20
113.0
 30
0.0
 11
30.2175317
 21
113.0
 31
0.0
  0
LINE
  5
A2
330
6F
100
AcDbEntity
  8
side1_outsideCutPath
100
AcDbLine
 10
30.2175317
 20
113.0
 30
0.0
 11
30.2175317
 21
125.0
 31
0.0
  0
LINE
  5
A3
330
6F
100
AcDbEntity
  8
side1_outsideCutPath
100
AcDbLine
 10
30.2175317
 20
125.0
 30
0.0
 11
39.4505824
 21
125.0
 31
0.0
  0
LINE
  5
A4
330
6F
100
AcDbEntity
  8
side1_outsideCutPath
100
AcDbLine
 10
39.4505824
 20
125.0
 30
0.0
 11
39.4505824
 21
136.0
 31
0.0
  0
LINE
  5
A5
330
6F
100
AcDbEntity
  8
side1_outsideCutPath
100
AcDbLine
 10
39.4505824
 20
136.0
 30
0.0
 11
25.7252912
 21
136.0
 31
0.0
  0
LINE
  5
A6
330
6F
100
AcDbEntity
  8
side1_outsideCutPath
100
AcDbLine
 10
25.7252912
 20
136.0
 30
0.0
 11
25.7252912
 21
139.0
 31
0.0
  0
LINE
  5
A7
330
6F
100
AcDbEntity
  8
side1_outsideCutPath
100
AcDbLine
 10
25.7252912
 20
139.0
 30
0.0
 11
13.7252912
 21
139.0
 31
0.0
  0
LINE
  5
A8
330
6F
100
AcDbEntity
  8
side1_outsideCutPath
100
AcDbLine
 10
13.7252912
 20
139.0
 30
0.0
 11
13.7252912
 21
136.0
 31
0.0
  0
LINE
  5
A9
330
6F
100
AcDbEntity
  8
side1_outsideCutPath
100
AcDbLine
 10
13.7252912
 20
136.0
 30
0.0
 11
9.233050599999998
 21
136.0
 31
0.0
  0
LINE
  5
16F
330
6F
100
AcDbEntity
  8
side3_outsideCutPath
100
AcDbLine
 10
51.683633
 20
136.0
 30
0.0
 11
51.683633
 21
125.0
 31
0.0
  0
LINE
  5
170
330
6F
100
AcDbEntity
  8
side3_outsideCutPath
100
AcDbLine
 10
51.683633
 20
125.0
 30
0.0
 11
42.45058239999999
 21
125.0
 31
0.0
  0
LINE
  5
171
330
6F
100
AcDbEntity
  8
side3_outsideCutPath
100
AcDbLine
 10
42.45058239999999
 20
125.0
 30
0.0
 11
42.45058239999999
 21
113.0
 31
0.0
  0
LINE
  5
172
330
6F
100
AcDbEntity
  8
side3_outsideCutPath
100
AcDbLine
 10
42.45058239999999
 20
113.0
 30
0.0
 11
51.683633
 21
113.0
 31
0.0
  0
LINE
  5
173
330
6F
100
AcDbEntity
  8
side3_outsideCutPath
100
AcDbLine
 10
51.683633
 20
113.0
 30
0.0
 11
51.683633
 21
101.0
 31
0.0
  0
LINE
  5
174
330
6F
100
AcDbEntity
  8
side3_outsideCutPath
100
AcDbLine
 10
51.683633
 20
101.0
 30
0.0
 11
42.45058239999999
 21
101.0
 31
0.0
  0
LINE
  5
175
330
6F
100
AcDbEntity
  8
side3_outsideCutPath
100
AcDbLine
 10
42.45058239999999
 20
101.0
 30
0.0
 11
42.45058239999999
 21
89.0
 31
0.0
  0
LINE
  5
176
330
6F
100
AcDbEntity
  8
side3_outsideCutPath
100
AcDbLine
 10
42.45058239999999
 20
89.0
 30
0.0
 11
51.683633
 21
89.0
 31
0.0
  0
LINE
  5
177
330
6F
100
AcDbEntity
  8
side3_outsideCutPath
100
AcDbLine
 10
51.683633
 20
89.0
 30
0.0
 11
51.683633
 21
77.0
 31
0.0
  0
LINE
  5
178
330
6F
100
AcDbEntity
  8
side3_outsideCutPath
100
AcDbLine
 10
51.683633
 20
77.0
 30
0.0
 11
42.45058239999999
 21
77.0
 31
0.0
  0
LINE
  5
179
330
6F
100
AcDbEntity
  8
side3_outsideCutPath
100
AcDbLine
 10
42.45058239999999
 20
77.0
 30
0.0
 11
42.45058239999999
 21
65.0
 31
0.0
  0
LINE
  5
17A
330
6F
100
AcDbEntity
  8
side3_outsideCutPath
100
AcDbLine
 10
42.45058239999999
 20
65.0
 30
0.0
 11
51.683633
 21
65.0
 31
0.0
  0
LINE
  5
17B
330
6F
100
AcDbEntity
  8
side3_outsideCutPath
100
AcDbLine
 10
51.683633
 20
65.0
 30
0.0
 11
51.683633
 21
53.0
 31
0.0
  0
LINE
  5
17C
330
6F
100
AcDbEntity
  8
side3_outsideCutPath
100
AcDbLine
 10
51.683633
 20
53.0
 30
0.0
 11
42.45058239999999
 21
53.0
 31
0.0
  0
LINE
  5
17D
330
6F
100
AcDbEntity
  8
side3_outsideCutPath
100
AcDbLine
 10
42.45058239999999
 20
53.0
 30
0.0
 11
42.45058239999999
 21
41.0
 31
0.0
  0
LINE
  5
17E
330
6F
100
AcDbEntity
  8
side3_outsideCutPath
100
AcDbLine
 10
42.45058239999999
 20
41.0
 30
0.0
 11
51.683633
 21
41.0
 31
0.0
  0
LINE
  5
17F
330
6F
100
AcDbEntity
  8
side3_outsideCutPath
100
AcDbLine
 10
51.683633
 20
41.0
 30
0.0
 11
51.683633
 21
29.0
 31
0.0
  0
LINE
  5
180
330
6F
100
AcDbEntity
  8
side3_outsideCutPath
100
AcDbLine
 10
51.683633
 20
29.0
 30
0.0
 11
42.45058239999999
 21
29.0
 31
0.0
  0
LINE
  5
181
330
6F
100
AcDbEntity
  8
side3_outsideCutPath
100
AcDbLine
 10
42.45058239999999
 20
29.0
 30
0.0
 11
42.45058239999999
 21
17.0
 31
0.0
  0
LINE
  5
182
330
6F
100
AcDbEntity
  8
side3_outsideCutPath
100
AcDbLine
 10
42.45058239999999
 20
17.0
 30
0.0
 11
51.683633
 21
17.0
 31
0.0
  0
LINE
  5
183
330
6F
100
AcDbEntity
  8
side3_outsideCutPath
100
AcDbLine
 10
51.683633
 20
17.0
 30
0.0
 11
51.683633
 21
6.0
 31
0.0
  0
LINE
  5
184
330
6F
100
AcDbEntity
  8
side3_outsideCutPath
100
AcDbLine
 10
51.683633
 20
6.0
 30
0.0
 11
56.1758735
 21
6.0
 31
0.0
  0
LINE
  5
185
330
6F
100
AcDbEntity
  8
side3_outsideCutPath
100
AcDbLine
 10
56.1758735
 20
6.0
 30
0.0
 11
56.1758735
 21
3.0
 31
0.0
  0
LINE
  5
186
330
6F
100
AcDbEntity
  8
side3_outsideCutPath
100
AcDbLine
 10
56.1758735
 20
3.0
 30
0.0
 11
68.1758735
 21
3.0
 31
0.0
  0
LINE
  5
187
330
6F
100
AcDbEntity
  8
side3_outsideCutPath
100
AcDbLine
 10
68.1758735
 20
3.0
 30
0.0
 11
68.1758735
 21
6.0
 31
0.0
  0
LINE
  5
188
330
6F
100
AcDbEntity
  8
side3_outsideCutPath
100
AcDbLine
 10
68.1758735
 20
6.0
 30
0.0
 11
81.90116469999999
 21
6.0
 31
0.0
  0
LINE
  5
189
330
6F
100
AcDbEntity
  8
side3_outsideCutPath
100
AcDbLine
 10
81.90116469999999
 20
6.0
 30
0.0
 11
81.90116469999999
 21
17.0
 31
0.0
  0
LINE
  5
18A
330
6F
100
AcDbEntity
  8
side3_outsideCutPath
100
AcDbLine
 10
81.90116469999999
 20
17.0
 30
0.0
 11
72.66811409999999
 21
17.0
 31
0.0
  0
LINE
  5
18B
330
6F
100
AcDbEntity
  8
side3_outsideCutPath
100
AcDbLine
 10
72.66811409999999
 20
17.0
 30
0.0
 11
72.66811409999999
 21
29.0
 31
0.0
  0
LINE
  5
18C
330
6F
100
AcDbEntity
  8
side3_outsideCutPath
100
AcDbLine
 10
72.66811409999999
 20
29.0
 30
0.0
 11
81.90116469999999
 21
29.0
 31
0.0
  0
LINE
  5
18D
330
6F
100
AcDbEntity
  8
side3_outsideCutPath
100
AcDbLine
 10
81.90116469999999
 20
29.0
 30
0.0
 11
81.90116469999999
 21
41.0
 31
0.0
  0
LINE
  5
18E
330
6F
100
AcDbEntity
  8
side3_outsideCutPath
100
AcDbLine
 10
81.90116469999999
 20
41.0
 30
0.0
 11
72.66811409999999
 21
41.0
 31
0.0
  0
LINE
  5
18F
330
6F
100
AcDbEntity
  8
side3_outsideCutPath
100
AcDbLine
 10
72.66811409999999
 20
41.0
 30
0.0
 11
72.66811409999999
 21
53.0
 31
0.0
  0
LINE
  5
190
330
6F
100
AcDbEntity
  8
side3_outsideCutPath
100
AcDbLine
 10
72.66811409999999
 20
53.0
 30
0.0
 11
81.90116469999999
 21
53.0
 31
0.0
  0
LINE
  5
191
330
6F
100
AcDbEntity
  8
side3_outsideCutPath
100
AcDbLine
 10
81.90116469999999
 20
53.0
 30
0.0
 11
81.90116469999999
 21
65.0
 31
0.0
  0
LINE
  5
192
330
6F
100
AcDbEntity
  8
side3_outsideCutPath
100
AcDbLine
 10
81.90116469999999
 20
65.0
 30
0.0
 11
72.66811409999999
 21
65.0
 31
0.0
  0
LINE
  5
193
330
6F
100
AcDbEntity
  8
side3_outsideCutPath
100
AcDbLine
 10
72.66811409999999
 20
65.0
 30
0.0
 11
72.66811409999999
 21
77.0
 31
0.0
  0
LINE
  5
194
330
6F
100
AcDbEntity
  8
side3_outsideCutPath
100
AcDbLine
 10
72.66811409999999
 20
77.0
 30
0.0
 11
81.90116469999999
 21
77.0
 31
0.0
  0
LINE
  5
195
330
6F
100
AcDbEntity
  8
side3_outsideCutPath
100
AcDbLine
 10
81.90116469999999
 20
77.0
 30
0.0
 11
81.90116469999999
 21
89.0
 31
0.0
  0
LINE
  5
196
330
6F
100
AcDbEntity
  8
side3_outsideCutPath
100
AcDbLine
 10
81.90116469999999
 20
89.0
 30
0.0
 11
72.66811409999999
 21
89.0
 31
0.0
  0
LINE
  5
197
330
6F
100
AcDbEntity
  8
side3_outsideCutPath
100
AcDbLine
 10
72.66811409999999
 20
89.0
 30
0.0
 11
72.66811409999999
 21
101.0
 31
0.0
  0
LINE
  5
198
330
6F
100
AcDbEntity
  8
side3_outsideCutPath
100
AcDbLine
 10
72.66811409999999
 20
101.0
 30
0.0
 11
81.90116469999999
 21
101.0
 31
0.0
  0
LINE
  5
199
330
6F
100
AcDbEntity
  8
side3_outsideCutPath
100
AcDbLine
 10
81.90116469999999
 20
101.0
 30
0.0
 11
81.90116469999999
 21
113.0
 31
0.0
  0
LINE
  5
19A
330
6F
100
AcDbEntity
  8
side3_outsideCutPath
100
AcDbLine
 10
81.90116469999999
 20
113.0
 30
0.0
 11
72.66811409999999
 21
113.0
 31
0.0
  0
LINE
  5
19B
330
6F
100
AcDbEntity
  8
side3_outsideCutPath
100
AcDbLine
 10
72.66811409999999
 20
113.0
 30
0.0
 11
72.66811409999999
 21
125.0
 31
0.0
  0
LINE
  5
19C
330
6F
100
AcDbEntity
  8
side3_outsideCutPath
100
AcDbLine
 10
72.66811409999999
 20
125.0
 30
0.0
 11
81.90116469999999
 21
125.0
 31
0.0
  0
LINE
  5
19D
330
6F
100
AcDbEntity
  8
side3_outsideCutPath
100
AcDbLine
 10
81.90116469999999
 20
125.0
 30
0.0
 11
81.90116469999999
 21
136.0
 31
0.0
  0
LINE
  5
19E
330
6F
100
AcDbEntity
  8
side3_outsideCutPath
100
AcDbLine
 10
81.90116469999999
 20
136.0
 30
0.0
 11
68.1758735
 21
136.0
 31
0.0
  0
LINE
  5
19F
330
6F
100
AcDbEntity
  8
side3_outsideCutPath
100
AcDbLine
 10
68.1758735
 20
136.0
 30
0.0
 11
68.1758735
 21
139.0
 31
0.0
  0
LINE
  5
1A0
330
6F
100
AcDbEntity
  8
side3_outsideCutPath
100
AcDbLine
 10
68.1758735
 20
139.0
 30
0.0
 11
56.1758735
 21
139.0
 31
0.0
  0
LINE
  5
1A1
330
6F
100
AcDbEntity
  8
side3_outsideCutPath
100
AcDbLine
 10
56.1758735
 20
139.0
 30
0.0
 11
56.1758735
 21
136.0
 31
0.0
  0
LINE
  5
1A2
330
6F
100
AcDbEntity
  8
side3_outsideCutPath
100
AcDbLine
 10
56.1758735
 20
136.0
 30
0.0
 11
51.683633
 21
136.0
 31
0.0
  0
LINE
  5
291
330
6F
100
AcDbEntity
  8
side5_outsideCutPath
100
AcDbLine
 10
94.13421529999999
 20
136.0
 30
0.0
 11
94.13421529999999
 21
125.0
 31
0.0
  0
LINE
  5
292
330
6F
100
AcDbEntity
  8
side5_outsideCutPath
100
AcDbLine
 10
94.13421529999999
 20
125.0
 30
0.0
 11
84.9011647
 21
125.0
 31
0.0
  0
LINE
  5
293
330
6F
100
AcDbEntity
  8
side5_outsideCutPath
100
AcDbLine
 10
84.9011647
 20
125.0
 30
0.0
 11
84.9011647
 21
113.0
 31
0.0
  0
LINE
  5
294
330
6F
100
AcDbEntity
  8
side5_outsideCutPath
100
AcDbLine
 10
84.9011647
 20
113.0
 30
0.0
 11
94.13421529999999
 21
113.0
 31
0.0
  0
LINE
  5
295
330
6F
100
AcDbEntity
  8
side5_outsideCutPath
100
AcDbLine
 10
94.13421529999999
 20
113.0
 30
0.0
 11
94.13421529999999
 21
101.0
 31
0.0
  0
LINE
  5
296
330
6F
100
AcDbEntity
  8
side5_outsideCutPath
100
AcDbLine
 10
94.13421529999999
 20
101.0
 30
0.0
 11
84.9011647
 21
101.0
 31
0.0
  0
LINE
  5
297
330
6F
100
AcDbEntity
  8
side5_outsideCutPath
100
AcDbLine
 10
84.9011647
 20
101.0
 30
0.0
 11
84.9011647
 21
89.0
 31
0.0
  0
LINE
  5
298
330
6F
100
AcDbEntity
  8
side5_outsideCutPath
100
AcDbLine
 10
84.9011647
 20
89.0
 30
0.0
 11
94.13421529999999
 21
89.0
 31
0.0
  0
LINE
  5
299
330
6F
100
AcDbEntity
  8
side5_outsideCutPath
100
AcDbLine
 10
94.13421529999999
 20
89.0
 30
0.0
 11
94.13421529999999
 21
77.0
 31
0.0
  0
LINE
  5
29A
330
6F
100
AcDbEntity
  8
side5_outsideCutPath
100
AcDbLine
 10
94.13421529999999
 20
77.0
 30
0.0
 11
84.9011647
 21
77.0
 31
0.0
  0
LINE
  5
29B
330
6F
100
AcDbEntity
  8
side5_outsideCutPath
100
AcDbLine
 10
84.9011647
 20
77.0
 30
0.0
 11
84.9011647
 21
65.0
 31
0.0
  0
LINE
  5
29C
330
6F
100
AcDbEntity
  8
side5_outsideCutPath
100
AcDbLine
 10
84.9011647
 20
65.0
 30
0.0
 11
94.13421529999999
 21
65.0
 31
0.0
  0
LINE
  5
29D
330
6F
100
AcDbEntity
  8
side5_outsideCutPath
100
AcDbLine
 10
94.13421529999999
 20
65.0
 30
0.0
 11
94.13421529999999
 21
53.0
 31
0.0
  0
LINE
  5
29E
330
6F
100
AcDbEntity
  8
side5_outsideCutPath
100
AcDbLine
 10
94.13421529999999
 20
53.0
 30
0.0
 11
84.9011647
 21
53.0
 31
0.0
  0
LINE
  5
29F
330
6F
100
AcDbEntity
  8
side5_outsideCutPath
100
AcDbLine
 10
84.9011647
 20
53.0
 30
0.0
 11
84.9011647
 21
41.0
 31
0.0
  0
LINE
  5
2A0
330
6F
100
AcDbEntity
  8
side5_outsideCutPath
100
AcDbLine
 10
84.9011647
 20
41.0
 30
0.0
 11
94.13421529999999
 21
41.0
 31
0.0
  0
LINE
  5
2A1
330
6F
100
AcDbEntity
  8
side5_outsideCutPath
100
AcDbLine
 10
94.13421529999999
 20
41.0
 30
0.0
 11
94.13421529999999
 21
29.0
 31
0.0
  0
LINE
  5
2A2
330
6F
100
AcDbEntity
  8
side5_outsideCutPath
100
AcDbLine
 10
94.13421529999999
 20
29.0
 30
0.0
 11
84.9011647
 21
29.0
 31
0.0
  0
LINE
  5
2A3
330
6F
100
AcDbEntity
  8
side5_outsideCutPath
100
AcDbLine
 10
84.9011647
 20
29.0
 30
0.0
 11
84.9011647
 21
17.0
 31
0.0
  0
LINE
  5
2A4
330
6F
100
AcDbEntity
  8
side5_outsideCutPath
100
AcDbLine
 10
84.9011647
 20
17.0
 30
0.0
 11
94.13421529999999
 21
17.0
 31
0.0
  0
LINE
  5
2A5
330
6F
100
AcDbEntity
  8
side5_outsideCutPath
100
AcDbLine
 10
94.13421529999999
 20
17.0
 30
0.0
 11
94.13421529999999
 21
6.0
 31
0.0
  0
LINE
  5
2A6
330
6F
100
AcDbEntity
  8
side5_outsideCutPath
100
AcDbLine
 10
94.13421529999999
 20
6.0
 30
0.0
 11
98.62645589999999
 21
6.0
 31
0.0
  0
LINE
  5
2A7
330
6F
100
AcDbEntity
  8
side5_outsideCutPath
100
AcDbLine
 10
98.62645589999999
 20
6.0
 30
0.0
 11
98.62645589999999
 21
3.0
 31
0.0
  0
LINE
  5
2A8
330
6F
100
AcDbEntity
  8
side5_outsideCutPath
100
AcDbLine
 10
98.62645589999999
 20
3.0
 30
0.0
 11
110.6264559
 21
3.0
 31
0.0
  0
LINE
  5
2A9
330
6F
100
AcDbEntity
  8
side5_outsideCutPath
100
AcDbLine
 10
110.6264559
 20
3.0
 30
0.0
 11
110.6264559
 21
6.0
 31
0.0
  0
LINE
  5
2AA
330
6F
100
AcDbEntity
  8
side5_outsideCutPath
100
AcDbLine
 10
110.6264559
 20
6.0
 30
0.0
 11
124.3517471
 21
6.0
 31
0.0
  0
LINE
  5
2AB
330
6F
100
AcDbEntity
  8
side5_outsideCutPath
100
AcDbLine
 10
124.3517471
 20
6.0
 30
0.0
 11
124.3517471
 21
17.0
 31
0.0
  0
LINE
  5
2AC
330
6F
100
AcDbEntity
  8
side5_outsideCutPath
100
AcDbLine
 10
124.3517471
 20
17.0
 30
0.0
 11
115.1186965
 21
17.0
 31
0.0
  0
LINE
  5
2AD
330
6F
100
AcDbEntity
  8
side5_outsideCutPath
100
AcDbLine
 10
115.1186965
 20
17.0
 30
0.0
 11
115.1186965
 21
29.0
 31
0.0
  0
LINE
  5
2AE
330
6F
100
AcDbEntity
  8
side5_outsideCutPath
100
AcDbLine
 10
115.1186965
 20
29.0
 30
0.0
 11
124.3517471
 21
29.0
 31
0.0
  0
LINE
  5
2AF
330
6F
100
AcDbEntity
  8
side5_outsideCutPath
100
AcDbLine
 10
124.3517471
 20
29.0
 30
0.0
 11
124.3517471
 21
41.0
 31
0.0
  0
LINE
  5
2B0
330
6F
100
AcDbEntity
  8
side5_outsideCutPath
100
AcDbLine
 10
124.3517471
 20
41.0
 30
0.0
 11
115.1186965
 21
41.0
 31
0.0
  0
LINE
  5
2B1
330
6F
100
AcDbEntity
  8
side5_outsideCutPath
100
AcDbLine
 10
115.1186965
 20
41.0
 30
0.0
 11
115.1186965
 21
53.0
 31
0.0
  0
LINE
  5
2B2
330
6F
100
AcDbEntity
  8
side5_outsideCutPath
100
AcDbLine
 10
115.1186965
 20
53.0
 30
0.0
 11
124.3517471
 21
53.0
 31
0.0
  0
LINE
  5
2B3
330
6F
100
AcDbEntity
  8
side5_outsideCutPath
100
AcDbLine
 10
124.3517471
 20
53.0
 30
0.0
 11
124.3517471
 21
65.0
 31
0.0
  0
LINE
  5
2B4
330
6F
100
AcDbEntity
  8
side5_outsideCutPath
100
AcDbLine
 10
124.3517471
 20
65.0
 30
0.0
 11
115.1186965
 21
65.0
 31
0.0
  0
LINE
  5
2B5
330
6F
100
AcDbEntity
  8
side5_outsideCutPath
100
AcDbLine
 10
115.1186965
 20
65.0
 30
0.0
 11
115.1186965
 21
77.0
 31
0.0
  0
LINE
  5
2B6
330
6F
100
AcDbEntity
  8
side5_outsideCutPath
100
AcDbLine
 10
115.1186965
 20
77.0
 30
0.0
 11
124.3517471
 21
77.0
 31
0.0
  0
LINE
  5
2B7
330
6F
100
AcDbEntity
  8
side5_outsideCutPath
100
AcDbLine
 10
124.3517471
 20
77.0
 30
0.0
 11
124.3517471
 21
89.0
 31
0.0
  0
LINE
  5
2B8
330
6F
100
AcDbEntity
  8
side5_outsideCutPath
100
AcDbLine
 10
124.3517471
 20
89.0
 30
0.0
 11
115.1186965
 21
89.0
 31
0.0
  0
LINE
  5
2B9
330
6F
100
AcDbEntity
  8
side5_outsideCutPath
100
AcDbLine
 10
115.1186965
 20
89.0
 30
0.0
 11
115.1186965
 21
101.0
 31
0.0
  0
LINE
  5
2BA
330
6F
100
AcDbEntity
  8
side5_outsideCutPath
100
AcDbLine
 10
115.1186965
 20
101.0
 30
0.0
 11
124.3517471
 21
101.0
 31
0.0
  0
LINE
  5
2BB
330
6F
100
AcDbEntity
  8
side5_outsideCutPath
100
AcDbLine
 10
124.3517471
 20
101.0
 30
0.0
 11
124.3517471
 21
113.0
 31
0.0
  0
LINE
  5
2BC
330
6F
100
AcDbEntity
  8
side5_outsideCutPath
100
AcDbLine
 10
124.3517471
 20
113.0
 30
0.0
 11
115.1186965
 21
113.0
 31
0.0
  0
LINE
  5
2BD
330
6F
100
AcDbEntity
  8
side5_outsideCutPath
100
AcDbLine
 10
115.1186965
 20
113.0
 30
0.0
 11
115.1186965
 21
125.0
 31
0.0
  0
LINE
  5
2BE
330
6F
100
AcDbEntity
  8
side5_outsideCutPath
100
AcDbLine
 10
115.1186965
 20
125.0
 30
0.0
 11
124.3517471
 21
125.0
 31
0.0
  0
LINE
  5
2BF
330
6F
100
AcDbEntity
  8
side5_outsideCutPath
100
AcDbLine
 10
124.3517471
 20
125.0
 30
0.0
 11
124.3517471
 21
136.0
 31
0.0
  0
LINE
  5
2C0
330
6F
100
AcDbEntity
  8
side5_outsideCutPath
100
AcDbLine
 10
124.3517471
 20
136.0
 30
0.0
 11
110.6264559
 21
136.0
 31
0.0
  0
LINE
  5
2C1
330
6F
100
AcDbEntity
  8
side5_outsideCutPath
100
AcDbLine
 10
110.6264559
 20
136.0
 30
0.0
 11
110.6264559
 21
139.0
 31
0.0
  0
LINE
  5
2C2
330
6F
100
AcDbEntity
  8
side5_outsideCutPath
100
AcDbLine
 10
110.6264559
 20
139.0
 30
0.0
 11
98.62645589999999
 21
139.0
 31
0.0
  0
LINE
  5
2C3
330
6F
100
AcDbEntity
  8
side5_outsideCutPath
100
AcDbLine
 10
98.62645589999999
 20
139.0
 30
0.0
 11
98.62645589999999
 21
136.0
 31
0.0
  0
LINE
  5
2C4
330
6F
100
AcDbEntity
  8
side5_outsideCutPath
100
AcDbLine
 10
98.62645589999999
 20
136.0
 30
0.0
 11
94.13421529999999
 21
136.0
 31
0.0
  0
LINE
  5
3A1
330
6F
100
AcDbEntity
  8
side7_outsideCutPath
100
AcDbLine
 10
136.5847977
 20
136.0
 30
0.0
 11
136.5847977
 21
125.0
 31
0.0
  0
LINE
  5
3A2
330
6F
100
AcDbEntity
  8
side7_outsideCutPath
100
AcDbLine
 10
136.5847977
 20
125.0
 30
0.0
 11
127.3517471
 21
125.0
 31
0.0
  0
LINE
  5
3A3
330
6F
100
AcDbEntity
  8
side7_outsideCutPath
100
AcDbLine
 10
127.3517471
 20
125.0
 30
0.0
 11
127.3517471
 21
113.0
 31
0.0
  0
LINE
  5
3A4
330
6F
100
AcDbEntity
  8
side7_outsideCutPath
100
AcDbLine
 10
127.3517471
 20
113.0
 30
0.0
 11
136.5847977
 21
113.0
 31
0.0
  0
LINE
  5
3A5
330
6F
100
AcDbEntity
  8
side7_outsideCutPath
100
AcDbLine
 10
136.5847977
 20
113.0
 30
0.0
 11
136.5847977
 21
101.0
 31
0.0
  0
LINE
  5
3A6
330
6F
100
AcDbEntity
  8
side7_outsideCutPath
100
AcDbLine
 10
136.5847977
 20
101.0
 30
0.0
 11
127.3517471
 21
101.0
 31
0.0
  0
LINE
  5
3A7
330
6F
100
AcDbEntity
  8
side7_outsideCutPath
100
AcDbLine
 10
127.3517471
 20
101.0
 30
0.0
 11
127.3517471
 21
89.0
 31
0.0
  0
LINE
  5
3A8
330
6F
100
AcDbEntity
  8
side7_outsideCutPath
100
AcDbLine
 10
127.3517471
 20
89.0
 30
0.0
 11
136.5847977
 21
89.0
 31
0.0
  0
LINE
  5
3A9
330
6F
100
AcDbEntity
  8
side7_outsideCutPath
100
AcDbLine
 10
136.5847977
 20
89.0
 30
0.0
 11
136.5847977
 21
77.0
 31
0.0
  0
LINE
  5
3AA
330
6F
100
AcDbEntity
  8
side7_outsideCutPath
100
AcDbLine
 10
136.5847977
 20
77.0
 30
0.0
 11
127.3517471
 21
77.0
 31
0.0
  0
LINE
  5
3AB
330
6F
100
AcDbEntity
  8
side7_outsideCutPath
100
AcDbLine
 10
127.3517471
 20
77.0
 30
0.0
 11
127.3517471
 21
65.0
 31
0.0
  0
LINE
  5
3AC
330
6F
100
AcDbEntity
  8
side7_outsideCutPath
100
AcDbLine
 10
127.3517471
 20
65.0
 30
0.0
 11
136.5847977
 21
65.0
 31
0.0
  0
LINE
  5
3AD
330
6F
100
AcDbEntity
  8
side7_outsideCutPath
100
AcDbLine
 10
136.5847977
 20
65.0
 30
0.0
 11
136.5847977
 21
53.0
 31
0.0
  0
LINE
  5
3AE
330
6F
100
AcDbEntity
  8
side7_outsideCutPath
100
AcDbLine
 10
136.5847977
 20
53.0
 30
0.0
 11
127.3517471
 21
53.0
 31
0.0
  0
LINE
  5
3AF
330
6F
100
AcDbEntity
  8
side7_outsideCutPath
100
AcDbLine
 10
127.3517471
 20
53.0
 30
0.0
 11
127.3517471
 21
41.0
 31
0.0
  0
LINE
  5
3B0
330
6F
100
AcDbEntity
  8
side7_outsideCutPath
100
AcDbLine
 10
127.3517471
 20
41.0
 30
0.0
 11
136.5847977
 21
41.0
 31
0.0
  0
LINE
  5
3B1
330
6F
100
AcDbEntity
  8
side7_outsideCutPath
100
AcDbLine
 10
136.5847977
 20
41.0
 30
0.0
 11
136.5847977
 21
29.0
 31
0.0
  0
LINE
  5
3B2
330
6F
100
AcDbEntity
  8
side7_outsideCutPath
100
AcDbLine
 10
136.5847977
 20
29.0
 30
0.0
 11
127.3517471
 21
29.0
 31
0.0
  0
LINE
  5
3B3
330
6F
100
AcDbEntity
  8
side7_outsideCutPath
100
AcDbLine
 10
127.3517471
 20
29.0
 30
0.0
 11
127.3517471
 21
17.0
 31
0.0
  0
LINE
  5
3B4
330
6F
100
AcDbEntity
  8
side7_outsideCutPath
100
AcDbLine
 10
127.3517471
 20
17.0
 30
0.0
 11
136.5847977
 21
17.0
 31
0.0
  0
LINE
  5
3B5
330
6F
100
AcDbEntity
  8
side7_outsideCutPath
100
AcDbLine
 10
136.5847977
 20
17.0
 30
0.0
 11
136.5847977
 21
6.0
 31
0.0
  0
LINE
  5
3B6
330
6F
100
AcDbEntity
  8
side7_outsideCutPath
100
AcDbLine
 10
136.5847977
 20
6.0
 30
0.0
 11
141.0770383
 21
6.0
 31
0.0
  0
LINE
  5
3B7
330
6F
100
AcDbEntity
  8
side7_outsideCutPath
100
AcDbLine
 10
141.0770383
 20
6.0
 30
0.0
 11
141.0770383
 21
3.0
 31
0.0
  0
LINE
  5
3B8
330
6F
100
AcDbEntity
  8
side7_outsideCutPath
100
AcDbLine
 10
141.0770383
 20
3.0
 30
0.0
 11
153.0770383
 21
3.0
 31
0.0
  0
LINE
  5
3B9
330
6F
100
AcDbEntity
  8
side7_outsideCutPath
100
AcDbLine
 10
153.0770383
 20
3.0
 30
0.0
 11
153.0770383
 21
6.0
 31
0.0
  0
LINE
  5
3BA
330
6F
100
AcDbEntity
  8
side7_outsideCutPath
100
AcDbLine
 10
153.0770383
 20
6.0
 30
0.0
 11
166.8023294
 21
6.0
 31
0.0
  0
LINE
  5
3BB
330
6F
100
AcDbEntity
  8
side7_outsideCutPath
100
AcDbLine
 10
166.8023294
 20
6.0
 30
0.0
 11
166.8023294
 21
17.0
 31
0.0
  0
LINE
  5
3BC
330
6F
100
AcDbEntity
  8
side7_outsideCutPath
100
AcDbLine
 10
166.8023294
 20
17.0
 30
0.0
 11
157.5692788
 21
17.0
 31
0.0
  0
LINE
  5
3BD
330
6F
100
AcDbEntity
  8
side7_outsideCutPath
100
AcDbLine
 10
157.5692788
 20
17.0
 30
0.0
 11
157.5692788
 21
29.0
 31
0.0
  0
LINE
  5
3BE
330
6F
100
AcDbEntity
  8
side7_outsideCutPath
100
AcDbLine
 10
157.5692788
 20
29.0
 30
0.0
 11
166.8023294
 21
29.0
 31
0.0
  0
LINE
  5
3BF
330
6F
100
AcDbEntity
  8
side7_outsideCutPath
100
AcDbLine
 10
166.8023294
 20
29.0
 30
0.0
 11
166.8023294
 21
41.0
 31
0.0
  0
LINE
  5
3C0
330
6F
100
AcDbEntity
  8
side7_outsideCutPath
100
AcDbLine
 10
166.8023294
 20
41.0
 30
0.0
 11
157.5692788
 21
41.0
 31
0.0
  0
LINE
  5
3C1
330
6F
100
AcDbEntity
  8
side7_outsideCutPath
100
AcDbLine
 10
157.5692788
 20
41.0
 30
0.0
 11
157.5692788
 21
53.0
 31
0.0
  0
LINE
  5
3C2
330
6F
100
AcDbEntity
  8
side7_outsideCutPath
100
AcDbLine
 10
157.5692788
 20
53.0
 30
0.0
 11
166.8023294
 21
53.0
 31
0.0
  0
LINE
  5
3C3
330
6F
100
AcDbEntity
  8
side7_outsideCutPath
100
AcDbLine
 10
166.8023294
 20
53.0
 30
0.0
 11
166.8023294
 21
65.0
 31
0.0
  0
LINE
  5
3C4
330
6F
100
AcDbEntity
  8
side7_outsideCutPath
100
AcDbLine
 10
166.8023294
 20
65.0
 30
0.0
 11
157.5692788
 21
65.0
 31
0.0
  0
LINE
  5
3C5
330
6F
100
AcDbEntity
  8
side7_outsideCutPath
100
AcDbLine
 10
157.5692788
 20
65.0
 30
0.0
 11
157.5692788
 21
77.0
 31
0.0
  0
LINE
  5
3C6
330
6F
100
AcDbEntity
  8
side7_outsideCutPath
100
AcDbLine
 10
157.5692788
 20
77.0
 30
0.0
 11
166.8023294
 21
77.0
 31
0.0
  0
LINE
  5
3C7
330
6F
100
AcDbEntity
  8
side7_outsideCutPath
100
AcDbLine
 10
166.8023294
 20
77.0
 30
0.0
 11
166.8023294
 21
89.0
 31
0.0
  0
LINE
  5
3C8
330
6F
100
AcDbEntity
  8
side7_outsideCutPath
100
AcDbLine
 10
166.8023294
 20
89.0
 30
0.0
 11
157.5692788
 21
89.0
 31
0.0
  0
LINE
  5
3C9
330
6F
100
AcDbEntity
  8
side7_outsideCutPath
100
AcDbLine
 10
157.5692788
 20
89.0
 30
0.0
 11
157.5692788
 21
101.0
 31
0.0
  0
LINE
  5
3CA
330
6F
100
AcDbEntity
  8
side7_outsideCutPath
100
AcDbLine
 10
157.5692788
 20
101.0
 30
0.0
 11
166.8023294
 21
101.0
 31
0.0
  0
LINE
  5
3CB
330
6F
100
AcDbEntity
  8
side7_outsideCutPath
100
AcDbLine
 10
166.8023294
 20
101.0
 30
0.0
 11
166.8023294
 21
113.0
 31
0.0
  0
LINE
  5
3CC
330
6F
100
AcDbEntity
  8
side7_outsideCutPath
100
AcDbLine
 10
166.8023294
 20
113.0
 30
0.0
 11
157.5692788
 21
113.0
 31
0.0
  0
LINE
  5
3CD
330
6F
100
AcDbEntity
  8
side7_outsideCutPath
100
AcDbLine
 10
157.5692788
 20
113.0
 30
0.0
 11
157.5692788
 21
125.0
 31
0.0
  0
LINE
  5
3CE
330
6F
100
AcDbEntity
  8
side7_outsideCutPath
100
AcDbLine
 10
157.5692788
 20
125.0
 30
0.0
 11
166.8023294
 21
125.0
 31
0.0
  0
LINE
  5
3CF
330
6F
100
AcDbEntity
  8
side7_outsideCutPath
100
AcDbLine
 10
166.8023294
 20
125.0
 30
0.0
 11
166.8023294
 21
136.0
 31
0.0
  0
LINE
  5
3D0
330
6F
100
AcDbEntity
  8
side7_outsideCutPath
100
AcDbLine
 10
166.8023294
 20
136.0
 30
0.0
 11
153.0770383
 21
136.0
 31
0.0
  0
LINE
  5
3D1
330
6F
100
AcDbEntity
  8
side7_outsideCutPath
100
AcDbLine
 10
153.0770383
 20
136.0
 30
0.0
 11
153.0770383
 21
139.0
 31
0.0
  0
LINE
  5
3D2
330
6F
100
AcDbEntity
  8
side7_outsideCutPath
100
AcDbLine
 10
153.0770383
 20
139.0
 30
0.0
 11
141.0770383
 21
139.0
 31
0.0
  0
LINE
  5
3D3
330
6F
100
AcDbEntity
  8
side7_outsideCutPath
100
AcDbLine
 10
141.0770383
 20
139.0
 30
0.0
 11
141.0770383
 21
136.0
 31
0.0
  0
LINE
  5
3D4
330
6F
100
AcDbEntity
  8
side7_outsideCutPath
100
AcDbLine
 10
141.0770383
 20
136.0
 30
0.0
 11
136.5847977
 21
136.0
 31
0.0
  0
LINE
  5
490
330
6F
100
AcDbEntity
  8
side9_outsideCutPath
100
AcDbLine
 10
179.0353801
 20
136.0
 30
0.0
 11
179.0353801
 21
125.0
 31
0.0
  0
LINE
  5
491
330
6F
100
AcDbEntity
  8
side9_outsideCutPath
100
AcDbLine
 10
179.0353801
 20
125.0
 30
0.0
 11
169.8023294
 21
125.0
 31
0.0
  0
LINE
  5
492
330
6F
100
AcDbEntity
  8
side9_outsideCutPath
100
AcDbLine
 10
169.8023294
 20
125.0
 30
0.0
 11
169.8023294
 21
113.0
 31
0.0
  0
LINE
  5
493
330
6F
100
AcDbEntity
  8
side9_outsideCutPath
100
AcDbLine
 10
169.8023294
 20
113.0
 30
0.0
 11
179.0353801
 21
113.0
 31
0.0
  0
LINE
  5
494
330
6F
100
AcDbEntity
  8
side9_outsideCutPath
100
AcDbLine
 10
179.0353801
 20
113.0
 30
0.0
 11
179.0353801
 21
101.0
 31
0.0
  0
LINE
  5
495
330
6F
100
AcDbEntity
  8
side9_outsideCutPath
100
AcDbLine
 10
179.0353801
 20
101.0
 30
0.0
 11
169.8023294
 21
101.0
 31
0.0
  0
LINE
  5
496
330
6F
100
AcDbEntity
  8
side9_outsideCutPath
100
AcDbLine
 10
169.8023294
 20
101.0
 30
0.0
 11
169.8023294
 21
89.0
 31
0.0
  0
LINE
  5
497
330
6F
100
AcDbEntity
  8
side9_outsideCutPath
100
AcDbLine
 10
169.8023294
 20
89.0
 30
0.0
 11
179.0353801
 21
89.0
 31
0.0
  0
LINE
  5
498
330
6F
100
AcDbEntity
  8
side9_outsideCutPath
100
AcDbLine
 10
179.0353801
 20
89.0
 30
0.0
 11
179.0353801
 21
77.0
 31
0.0
  0
LINE
  5
499
330
6F
100
AcDbEntity
  8
side9_outsideCutPath
100
AcDbLine
 10
179.0353801
 20
77.0
 30
0.0
 11
169.8023294
 21
77.0
 31
0.0
  0
LINE
  5
49A
330
6F
100
AcDbEntity
  8
side9_outsideCutPath
100
AcDbLine
 10
169.8023294
 20
77.0
 30
0.0
 11
169.8023294
 21
65.0
 31
0.0
  0
LINE
  5
49B
330
6F
100
AcDbEntity
  8
side9_outsideCutPath
100
AcDbLine
 10
169.8023294
 20
65.0
 30
0.0
 11
179.0353801
 21
65.0
 31
0.0
  0
LINE
  5
49C
330
6F
100
AcDbEntity
  8
side9_outsideCutPath
100
AcDbLine
 10
179.0353801
 20
65.0
 30
0.0
 11
179.0353801
 21
53.0
 31
0.0
  0
LINE
  5
49D
330
6F
100
AcDbEntity
  8
side9_outsideCutPath
100
AcDbLine
 10
179.0353801
 20
53.0
 30
0.0
 11
169.8023294
 21
53.0
 31
0.0
  0
LINE
  5
49E
330
6F
100
AcDbEntity
  8
side9_outsideCutPath
100
AcDbLine
 10
169.8023294
 20
53.0
 30
0.0
 11
169.8023294
 21
41.0
 31
0.0
  0
LINE
  5
49F
330
6F
100
AcDbEntity
  8
side9_outsideCutPath
100
AcDbLine
 10
169.8023294
 20
41.0
 30
0.0
 11
179.0353801
 21
41.0
 31
0.0
  0
LINE
  5
4A0
330
6F
100
AcDbEntity
  8
side9_outsideCutPath
100
AcDbLine
 10
179.0353801
 20
41.0
 30
0.0
 11
179.0353801
 21
29.0
 31
0.0
  0
LINE
  5
4A1
330
6F
100
AcDbEntity
  8
side9_outsideCutPath
100
AcDbLine
 10
179.0353801
 20
29.0
 30
0.0
 11
169.8023294
 21
29.0
 31
0.0
  0
LINE
  5
4A2
330
6F
100
AcDbEntity
  8
side9_outsideCutPath
100
AcDbLine
 10
169.8023294
 20
29.0
 30
0.0
 11
169.8023294
 21
17.0
 31
0.0
  0
LINE
  5
4A3
330
6F
100
AcDbEntity
  8
side9_outsideCutPath
100
AcDbLine
 10
169.8023294
 20
17.0
 30
0.0
 11
179.0353801
 21
17.0
 31
0.0
  0
LINE
  5
4A4
330
6F
100
AcDbEntity
  8
side9_outsideCutPath
100
AcDbLine
 10
179.0353801
 20
17.0
 30
0.0
 11
179.0353801
 21
6.0
 31
0.0
  0
LINE
  5
4A5
330
6F
100
AcDbEntity
  8
side9_outsideCutPath
100
AcDbLine
 10
179.0353801
 20
6.0
 30
0.0
 11
183.5276206
 21
6.0
 31
0.0
  0
LINE
  5
4A6
330
6F
100
AcDbEntity
  8
side9_outsideCutPath
100
AcDbLine
 10
183.5276206
 20
6.0
 30
0.0
 11
183.5276206
 21
3.0
 31
0.0
  0
LINE
  5
4A7
330
6F
100
AcDbEntity
  8
side9_outsideCutPath
100
AcDbLine
 10
183.5276206
 20
3.0
 30
0.0
 11
195.5276206
 21
3.0
 31
0.0
  0
LINE
  5
4A8
330
6F
100
AcDbEntity
  8
side9_outsideCutPath
100
AcDbLine
 10
195.5276206
 20
3.0
 30
0.0
 11
195.5276206
 21
6.0
 31
0.0
  0
LINE
  5
4A9
330
6F
100
AcDbEntity
  8
side9_outsideCutPath
100
AcDbLine
 10
195.5276206
 20
6.0
 30
0.0
 11
209.2529118
 21
6.0
 31
0.0
  0
LINE
  5
4AA
330
6F
100
AcDbEntity
  8
side9_outsideCutPath
100
AcDbLine
 10
209.2529118
 20
6.0
 30
0.0
 11
209.2529118
 21
17.0
 31
0.0
  0
LINE
  5
4AB
330
6F
100
AcDbEntity
  8
side9_outsideCutPath
100
AcDbLine
 10
209.2529118
 20
17.0
 30
0.0
 11
200.0198612
 21
17.0
 31
0.0
  0
LINE
  5
4AC
330
6F
100
AcDbEntity
  8
side9_outsideCutPath
100
AcDbLine
 10
200.0198612
 20
17.0
 30
0.0
 11
200.0198612
 21
29.0
 31
0.0
  0
LINE
  5
4AD
330
6F
100
AcDbEntity
  8
side9_outsideCutPath
100
AcDbLine
 10
200.0198612
 20
29.0
 30
0.0
 11
209.2529118
 21
29.0
 31
0.0
  0
LINE
  5
4AE
330
6F
100
AcDbEntity
  8
side9_outsideCutPath
100
AcDbLine
 10
209.2529118
 20
29.0
 30
0.0
 11
209.2529118
 21
41.0
 31
0.0
  0
LINE
  5
4AF
330
6F
100
AcDbEntity
  8
side9_outsideCutPath
100
AcDbLine
 10
209.2529118
 20
41.0
 30
0.0
 11
200.0198612
 21
41.0
 31
0.0
  0
LINE
  5
4B0
330
6F
100
AcDbEntity
  8
side9_outsideCutPath
100
AcDbLine
 10
200.0198612
 20
41.0
 30
0.0
 11
200.0198612
 21
53.0
 31
0.0
  0
LINE
  5
4B1
330
6F
100
AcDbEntity
  8
side9_outsideCutPath
100
AcDbLine
 10
200.0198612
 20
53.0
 30
0.0
 11
209.2529118
 21
53.0
 31
0.0
  0
LINE
  5
4B2
330
6F
100
AcDbEntity
  8
side9_outsideCutPath
100
AcDbLine
 10
209.2529118
 20
53.0
 30
0.0
 11
209.2529118
 21
65.0
 31
0.0
  0
LINE
  5
4B3
330
6F
100
AcDbEntity
  8
side9_outsideCutPath
100
AcDbLine
 10
209.2529118
 20
65.0
 30
0.0
 11
200.0198612
 21
65.0
 31
0.0
  0
LINE
  5
4B4
330
6F
100
AcDbEntity
  8
side9_outsideCutPath
100
AcDbLine
 10
200.0198612
 20
65.0
 30
0.0
 11
200.0198612
 21
77.0
 31
0.0
  0
LINE
  5
4B5
330
6F
100
AcDbEntity
  8
side9_outsideCutPath
100
AcDbLine
 10
200.0198612
 20
77.0
 30
0.0
 11
209.2529118
 21
77.0
 31
0.0
  0
LINE
  5
4B6
330
6F
100
AcDbEntity
  8
side9_outsideCutPath
100
AcDbLine
 10
209.2529118
 20
77.0
 30
0.0
 11
209.2529118
 21
89.0
 31
0.0
  0
LINE
  5
4B7
330
6F
100
AcDbEntity
  8
side9_outsideCutPath
100
AcDbLine
 10
209.2529118
 20
89.0
 30
0.0
 11
200.0198612
 21
89.0
 31
0.0
  0
LINE
  5
4B8
330
6F
100
AcDbEntity
  8
side9_outsideCutPath
100
AcDbLine
 10
200.0198612
 20
89.0
 30
0.0
 11
200.0198612
 21
101.0
 31
0.0
  0
LINE
  5
4B9
330
6F
100
AcDbEntity
  8
side9_outsideCutPath
100
AcDbLine
 10
200.0198612
 20
101.0
 30
0.0
 11
209.2529118
 21
101.0
 31
0.0
  0
LINE
  5
4BA
330
6F
100
AcDbEntity
  8
side9_outsideCutPath
100
AcDbLine
 10
209.2529118
 20
101.0
 30
0.0
 11
209.2529118
 21
113.0
 31
0.0
  0
LINE
  5
4BB
330
6F
100
AcDbEntity
  8
side9_outsideCutPath
100
AcDbLine
 10
209.2529118
 20
113.0
 30
0.0
 11
200.0198612
 21
113.0
 31
0.0
  0
LINE
  5
4BC
330
6F
100
AcDbEntity
  8
side9_outsideCutPath
100
AcDbLine
 10
200.0198612
 20
113.0
 30
0.0
 11
200.0198612
 21
125.0
 31
0.0
  0
LINE
  5
4BD
330
6F
100
AcDbEntity
  8
side9_outsideCutPath
100
AcDbLine
 10
200.0198612
 20
125.0
 30
0.0
 11
209.2529118
 21
125.0
 31
0.0
  0
LINE
  5
4BE
330
6F
100
AcDbEntity
  8
side9_outsideCutPath
100
AcDbLine
 10
209.2529118
 20
125.0
 30
0.0
 11
209.2529118
 21
136.0
 31
0.0
  0
LINE
  5
4BF
330
6F
100
AcDbEntity
  8
side9_outsideCutPath
100
AcDbLine
 10
209.2529118
 20
136.0
 30
0.0
 11
195.5276206
 21
136.0
 31
0.0
  0
LINE
  5
4C0
330
6F
100
AcDbEntity
  8
side9_outsideCutPath
100
AcDbLine
 10
195.5276206
 20
136.0
 30
0.0
 11
195.5276206
 21
139.0
 31
0.0
  0
LINE
  5
4C1
330
6F
100
AcDbEntity
  8
side9_outsideCutPath
100
AcDbLine
 10
195.5276206
 20
139.0
 30
0.0
 11
183.5276206
 21
139.0
 31
0.0
  0
LINE
  5
4C2
330
6F
100
AcDbEntity
  8
side9_outsideCutPath
100
AcDbLine
 10
183.5276206
 20
139.0
 30
0.0
 11
183.5276206
 21
136.0
 31
0.0
  0
LINE
  5
4C3
330
6F
100
AcDbEntity
  8
side9_outsideCutPath
100
AcDbLine
 10
183.5276206
 20
136.0
 30
0.0
 11
179.0353801
 21
136.0
 31
0.0
  0
LINE
  5
5B3
330
6F
100
AcDbEntity
  8
side0_outsideCutPath
100
AcDbLine
 10
9.233050599999998
 20
275.0
 30
0.0
 11
9.233050599999998
 21
264.0
 31
0.0
  0
LINE
  5
5B4
330
6F
100
AcDbEntity
  8
side0_outsideCutPath
100
AcDbLine
 10
9.233050599999998
 20
264.0
 30
0.0
 11
0.0
 21
264.0
 31
0.0
  0
LINE
  5
5B5
330
6F
100
AcDbEntity
  8
side0_outsideCutPath
100
AcDbLine
 10
0.0
 20
264.0
 30
0.0
 11
0.0
 21
252.0
 31
0.0
  0
LINE
  5
5B6
330
6F
100
AcDbEntity
  8
side0_outsideCutPath
100
AcDbLine
 10
0.0
 20
252.0
 30
0.0
 11
9.233050599999998
 21
252.0
 31
0.0
  0
LINE
  5
5B7
330
6F
100
AcDbEntity
  8
side0_outsideCutPath
100
AcDbLine
 10
9.233050599999998
 20
252.0
 30
0.0
 11
9.233050599999998
 21
240.0
 31
0.0
  0
LINE
  5
5B8
330
6F
100
AcDbEntity
  8
side0_outsideCutPath
100
AcDbLine
 10
9.233050599999998
 20
240.0
 30
0.0
 11
0.0
 21
240.0
 31
0.0
  0
LINE
  5
5B9
330
6F
100
AcDbEntity
  8
side0_outsideCutPath
100
AcDbLine
 10
0.0
 20
240.0
 30
0.0
 11
0.0
 21
228.0
 31
0.0
  0
LINE
  5
5BA
330
6F
100
AcDbEntity
  8
side0_outsideCutPath
100
AcDbLine
 10
0.0
 20
228.0
 30
0.0
 11
9.233050599999998
 21
228.0
 31
0.0
  0
LINE
  5
5BB
330
6F
100
AcDbEntity
  8
side0_outsideCutPath
100
AcDbLine
 10
9.233050599999998
 20
228.0
 30
0.0
 11
9.233050599999998
 21
216.0
 31
0.0
  0
LINE
  5
5BC
330
6F
100
AcDbEntity
  8
side0_outsideCutPath
100
AcDbLine
 10
9.233050599999998
 20
216.0
 30
0.0
 11
0.0
 21
216.0
 31
0.0
  0
LINE
  5
5BD
330
6F
100
AcDbEntity
  8
side0_outsideCutPath
100
AcDbLine
 10
0.0
 20
216.0
 30
0.0
 11
0.0
 21
204.0
 31
0.0
  0
LINE
  5
5BE
330
6F
100
AcDbEntity
  8
side0_outsideCutPath
100
AcDbLine
 10
0.0
 20
204.0
 30
0.0
 11
9.233050599999998
 21
204.0
 31
0.0
  0
LINE
  5
5BF
330
6F
100
AcDbEntity
  8
side0_outsideCutPath
100
AcDbLine
 10
9.233050599999998
 20
204.0
 30
0.0
 11
9.233050599999998
 21
192.0
 31
0.0
  0
LINE
  5
5C0
330
6F
100
AcDbEntity
  8
side0_outsideCutPath
100
AcDbLine
 10
9.233050599999998
 20
192.0
 30
0.0
 11
0.0
 21
192.0
 31
0.0
  0
LINE
  5
5C1
330
6F
100
AcDbEntity
  8
side0_outsideCutPath
100
AcDbLine
 10
0.0
 20
192.0
 30
0.0
 11
0.0
 21
180.0
 31
0.0
  0
LINE
  5
5C2
330
6F
100
AcDbEntity
  8
side0_outsideCutPath
100
AcDbLine
 10
0.0
 20
180.0
 30
0.0
 11
9.233050599999998
 21
180.0
 31
0.0
  0
LINE
  5
5C3
330
6F
100
AcDbEntity
  8
side0_outsideCutPath
100
AcDbLine
 10
9.233050599999998
 20
180.0
 30
0.0
 11
9.233050599999998
 21
168.0
 31
0.0
  0
LINE
  5
5C4
330
6F
100
AcDbEntity
  8
side0_outsideCutPath
100
AcDbLine
 10
9.233050599999998
 20
168.0
 30
0.0
 11
0.0
 21
168.0
 31
0.0
  0
LINE
  5
5C5
330
6F
100
AcDbEntity
  8
side0_outsideCutPath
100
AcDbLine
 10
0.0
 20
168.0
 30
0.0
 11
0.0
 21
156.0
 31
0.0
  0
LINE
  5
5C6
330
6F
100
AcDbEntity
  8
side0_outsideCutPath
100
AcDbLine
 10
0.0
 20
156.0
 30
0.0
 11
9.233050599999998
 21
156.0
 31
0.0
  0
LINE
  5
5C7
330
6F
100
AcDbEntity
  8
side0_outsideCutPath
100
AcDbLine
 10
9.233050599999998
 20
156.0
 30
0.0
 11
9.233050599999998
 21
145.0
 31
0.0
  0
LINE
  5
5C8
330
6F
100
AcDbEntity
  8
side0_outsideCutPath
100
AcDbLine
 10
9.233050599999998
 20
145.0
 30
0.0
 11
13.7252912
 21
145.0
 31
0.0
  0
LINE
  5
5C9
330
6F
100
AcDbEntity
  8
side0_outsideCutPath
100
AcDbLine
 10
13.7252912
 20
145.0
 30
0.0
 11
13.7252912
 21
142.0
 31
0.0
  0
LINE
  5
5CA
330
6F
100
AcDbEntity
  8
side0_outsideCutPath
100
AcDbLine
 10
13.7252912
 20
142.0
 30
0.0
 11
25.7252912
 21
142.0
 31
0.0
  0
LINE
  5
5CB
330
6F
100
AcDbEntity
  8
side0_outsideCutPath
100
AcDbLine
 10
25.7252912
 20
142.0
 30
0.0
 11
25.7252912
 21
145.0
 31
0.0
  0
LINE
  5
5CC
330
6F
100
AcDbEntity
  8
side0_outsideCutPath
100
AcDbLine
 10
25.7252912
 20
145.0
 30
0.0
 11
39.4505824
 21
145.0
 31
0.0
  0
LINE
  5
5CD
330
6F
100
AcDbEntity
  8
side0_outsideCutPath
100
AcDbLine
 10
39.4505824
 20
145.0
 30
0.0
 11
39.4505824
 21
156.0
 31
0.0
  0
LINE
  5
5CE
330
6F
100
AcDbEntity
  8
side0_outsideCutPath
100
AcDbLine
 10
39.4505824
 20
156.0
 30
0.0
 11
30.2175317
 21
156.0
 31
0.0
  0
LINE
  5
5CF
330
6F
100
AcDbEntity
  8
side0_outsideCutPath
100
AcDbLine
 10
30.2175317
 20
156.0
 30
0.0
 11
30.2175317
 21
168.0
 31
0.0
  0
LINE
  5
5D0
330
6F
100
AcDbEntity
  8
side0_outsideCutPath
100
AcDbLine
 10
30.2175317
 20
168.0
 30
0.0
 11
39.4505824
 21
168.0
 31
0.0
  0
LINE
  5
5D1
330
6F
100
AcDbEntity
  8
side0_outsideCutPath
100
AcDbLine
 10
39.4505824
 20
168.0
 30
0.0
 11
39.4505824
 21
180.0
 31
0.0
  0
LINE
  5
5D2
330
6F
100
AcDbEntity
  8
side0_outsideCutPath
100
AcDbLine
 10
39.4505824
 20
180.0
 30
0.0
 11
30.2175317
 21
180.0
 31
0.0
  0
LINE
  5
5D3
330
6F
100
AcDbEntity
  8
side0_outsideCutPath
100
AcDbLine
 10
30.2175317
 20
180.0
 30
0.0
 11
30.2175317
 21
192.0
 31
0.0
  0
LINE
  5
5D4
330
6F
100
AcDbEntity
  8
side0_outsideCutPath
100
AcDbLine
 10
30.2175317
 20
192.0
 30
0.0
 11
39.4505824
 21
192.0
 31
0.0
  0
LINE
  5
5D5
330
6F
100
AcDbEntity
  8
side0_outsideCutPath
100
AcDbLine
 10
39.4505824
 20
192.0
 30
0.0
 11
39.4505824
 21
204.0
 31
0.0
  0
LINE
  5
5D6
330
6F
100
AcDbEntity
  8
side0_outsideCutPath
100
AcDbLine
 10
39.4505824
 20
204.0
 30
0.0
 11
30.2175317
 21
204.0
 31
0.0
  0
LINE
  5
5D7
330
6F
100
AcDbEntity
  8
side0_outsideCutPath
100
AcDbLine
 10
30.2175317
 20
204.0
 30
0.0
 11
30.2175317
 21
216.0
 31
0.0
  0
LINE
  5
5D8
330
6F
100
AcDbEntity
  8
side0_outsideCutPath
100
AcDbLine
 10
30.2175317
 20
216.0
 30
0.0
 11
39.4505824
 21
216.0
 31
0.0
  0
LINE
  5
5D9
330
6F
100
AcDbEntity
  8
side0_outsideCutPath
100
AcDbLine
 10
39.4505824
 20
216.0
 30
0.0
 11
39.4505824
 21
228.0
 31
0.0
  0
LINE
  5
5DA
330
6F
100
AcDbEntity
  8
side0_outsideCutPath
100
AcDbLine
 10
39.4505824
 20
228.0
 30
0.0
 11
30.2175317
 21
228.0
 31
0.0
  0
LINE
  5
5DB
330
6F
100
AcDbEntity
  8
side0_outsideCutPath
100
AcDbLine
 10
30.2175317
 20
228.0
 30
0.0
 11
30.2175317
 21
240.0
 31
0.0
  0
LINE
  5
5DC
330
6F
100
AcDbEntity
  8
side0_outsideCutPath
100
AcDbLine
 10
30.2175317
 20
240.0
 30
0.0
 11
39.4505824
 21
240.0
 31
0.0
  0
LINE
  5
5DD
330
6F
100
AcDbEntity
  8
side0_outsideCutPath
100
AcDbLine
 10
39.4505824
 20
240.0
 30
0.0
 11
39.4505824
 21
252.0
 31
0.0
  0
LINE
  5
5DE
330
6F
100
AcDbEntity
  8
side0_outsideCutPath
100
AcDbLine
 10
39.4505824
 20
252.0
 30
0.0
 11
30.2175317
 21
252.0
 31
0.0
  0
LINE
  5
5DF
330
6F
100
AcDbEntity
  8
side0_outsideCutPath
100
AcDbLine
 10
30.2175317
 20
252.0
 30
0.0
 11
30.2175317
 21
264.0
 31
0.0
  0
LINE
  5
5E0
330
6F
100
AcDbEntity
  8
side0_outsideCutPath
100
AcDbLine
 10
30.2175317
 20
264.0
 30
0.0
 11
39.4505824
 21
264.0
 31
0.0
  0
LINE
  5
5E1
330
6F
100
AcDbEntity
  8
side0_outsideCutPath
100
AcDbLine
 10
39.4505824
 20
264.0
 30
0.0
 11
39.4505824
 21
275.0
 31
0.0
  0
LINE
  5
5E2
330
6F
100
AcDbEntity
  8
side0_outsideCutPath
100
AcDbLine
 10
39.4505824
 20
275.0
 30
0.0
 11
25.7252912
 21
275.0
 31
0.0
  0
LINE
  5
5E3
330
6F
100
AcDbEntity
  8
side0_outsideCutPath
100
AcDbLine
 10
25.7252912
 20
275.0
 30
0.0
 11
25.7252912
 21
278.0
 31
0.0
  0
LINE
  5
5E4
330
6F
100
AcDbEntity
  8
side0_outsideCutPath
100
AcDbLine
 10
25.7252912
 20
278.0
 30
0.0
 11
13.7252912
 21
278.0
 31
0.0
  0
LINE
  5
5E5
330
6F
100
AcDbEntity
  8
side0_outsideCutPath
100
AcDbLine
 10
13.7252912
 20
278.0
 30
0.0
 11
13.7252912
 21
275.0
 31
0.0
  0
LINE
  5
5E6
330
6F
100
AcDbEntity
  8
side0_outsideCutPath
100
AcDbLine
 10
13.7252912
 20
275.0
 30
0.0
 11
9.233050599999998
 21
275.0
 31
0.0
  0
LINE
  5
6D0
330
6F
100
AcDbEntity
  8
side2_outsideCutPath
100
AcDbLine
 10
51.683633
 20
275.0
 30
0.0
 11
51.683633
 21
264.0
 31
0.0
  0
LINE
  5
6D1
330
6F
100
AcDbEntity
  8
side2_outsideCutPath
100
AcDbLine
 10
51.683633
 20
264.0
 30
0.0
 11
42.45058239999999
 21
264.0
 31
0.0
  0
LINE
  5
6D2
330
6F
100
AcDbEntity
  8
side2_outsideCutPath
100
AcDbLine
 10
42.45058239999999
 20
264.0
 30
0.0
 11
42.45058239999999
 21
252.0
 31
0.0
  0
LINE
  5
6D3
330
6F
100
AcDbEntity
  8
side2_outsideCutPath
100
AcDbLine
 10
42.45058239999999
 20
252.0
 30
0.0
 11
51.683633
 21
252.0
 31
0.0
  0
LINE
  5
6D4
330
6F
100
AcDbEntity
  8
side2_outsideCutPath
100
AcDbLine
 10
51.683633
 20
252.0
 30
0.0
 11
51.683633
 21
240.0
 31
0.0
  0
LINE
  5
6D5
330
6F
100
AcDbEntity
  8
side2_outsideCutPath
100
AcDbLine
 10
51.683633
 20
240.0
 30
0.0
 11
42.45058239999999
 21
240.0
 31
0.0
  0
LINE
  5
6D6
330
6F
100
AcDbEntity
  8
side2_outsideCutPath
100
AcDbLine
 10
42.45058239999999
 20
240.0
 30
0.0
 11
42.45058239999999
 21
228.0
 31
0.0
  0
LINE
  5
6D7
330
6F
100
AcDbEntity
  8
side2_outsideCutPath
100
AcDbLine
 10
42.45058239999999
 20
228.0
 30
0.0
 11
51.683633
 21
228.0
 31
0.0
  0
LINE
  5
6D8
330
6F
100
AcDbEntity
  8
side2_outsideCutPath
100
AcDbLine
 10
51.683633
 20
228.0
 30
0.0
 11
51.683633
 21
216.0
 31
0.0
  0
LINE
  5
6D9
330
6F
100
AcDbEntity
  8
side2_outsideCutPath
100
AcDbLine
 10
51.683633
 20
216.0
 30
0.0
 11
42.45058239999999
 21
216.0
 31
0.0
  0
LINE
  5
6DA
330
6F
100
AcDbEntity
  8
side2_outsideCutPath
100
AcDbLine
 10
42.45058239999999
 20
216.0
 30
0.0
 11
42.45058239999999
 21
204.0
 31
0.0
  0
LINE
  5
6DB
330
6F
100
AcDbEntity
  8
side2_outsideCutPath
100
AcDbLine
 10
42.45058239999999
 20
204.0
 30
0.0
 11
51.683633
 21
204.0
 31
0.0
  0
LINE
  5
6DC
330
6F
100
AcDbEntity
  8
side2_outsideCutPath
100
AcDbLine
 10
51.683633
 20
204.0
 30
0.0
 11
51.683633
 21
192.0
 31
0.0
  0
LINE
  5
6DD
330
6F
100
AcDbEntity
  8
side2_outsideCutPath
100
AcDbLine
 10
51.683633
 20
192.0
 30
0.0
 11
42.45058239999999
 21
192.0
 31
0.0
  0
LINE
  5
6DE
330
6F
100
AcDbEntity
  8
side2_outsideCutPath
100
AcDbLine
 10
42.45058239999999
 20
192.0
 30
0.0
 11
42.45058239999999
 21
180.0
 31
0.0
  0
LINE
  5
6DF
330
6F
100
AcDbEntity
  8
side2_outsideCutPath
100
AcDbLine
 10
42.45058239999999
 20
180.0
 30
0.0
 11
51.683633
 21
180.0
 31
0.0
  0
LINE
  5
6E0
330
6F
100
AcDbEntity
  8
side2_outsideCutPath
100
AcDbLine
 10
51.683633
 20
180.0
 30
0.0
 11
51.683633
 21
168.0
 31
0.0
  0
LINE
  5
6E1
330
6F
100
AcDbEntity
  8
side2_outsideCutPath
100
AcDbLine
 10
51.683633
 20
168.0
 30
0.0
 11
42.45058239999999
 21
168.0
 31
0.0
  0
LINE
  5
6E2
330
6F
100
AcDbEntity
  8
side2_outsideCutPath
100
AcDbLine
 10
42.45058239999999
 20
168.0
 30
0.0
 11
42.45058239999999
 21
156.0
 31
0.0
  0
LINE
  5
6E3
330
6F
100
AcDbEntity
  8
side2_outsideCutPath
100
AcDbLine
 10
42.45058239999999
 20
156.0
 30
0.0
 11
51.683633
 21
156.0
 31
0.0
  0
LINE
  5
6E4
330
6F
100
AcDbEntity
  8
side2_outsideCutPath
100
AcDbLine
 10
51.683633
 20
156.0
 30
0.0
 11
51.683633
 21
145.0
 31
0.0
  0
LINE
  5
6E5
330
6F
100
AcDbEntity
  8
side2_outsideCutPath
100
AcDbLine
 10
51.683633
 20
145.0
 30
0.0
 11
56.1758735
 21
145.0
 31
0.0
  0
LINE
  5
6E6
330
6F
100
AcDbEntity
  8
side2_outsideCutPath
100
AcDbLine
 10
56.1758735
 20
145.0
 30
0.0
 11
56.1758735
 21
142.0
 31
0.0
  0
LINE
  5
6E7
330
6F
100
AcDbEntity
  8
side2_outsideCutPath
100
AcDbLine
 10
56.1758735
 20
142.0
 30
0.0
 11
68.1758735
 21
142.0
 31
0.0
  0
LINE
  5
6E8
330
6F
100
AcDbEntity
  8
side2_outsideCutPath
100
AcDbLine
 10
68.1758735
 20
142.0
 30
0.0
 11
68.1758735
 21
145.0
 31
0.0
  0
LINE
  5
6E9
330
6F
100
AcDbEntity
  8
side2_outsideCutPath
100
AcDbLine
 10
68.1758735
 20
145.0
 30
0.0
 11
81.90116469999999
 21
145.0
 31
0.0
  0
LINE
  5
6EA
330
6F
100
AcDbEntity
  8
side2_outsideCutPath
100
AcDbLine
 10
81.90116469999999
 20
145.0
 30
0.0
 11
81.90116469999999
 21
156.0
 31
0.0
  0
LINE
  5
6EB
330
6F
100
AcDbEntity
  8
side2_outsideCutPath
100
AcDbLine
 10
81.90116469999999
 20
156.0
 30
0.0
 11
72.66811409999999
 21
156.0
 31
0.0
  0
LINE
  5
6EC
330
6F
100
AcDbEntity
  8
side2_outsideCutPath
100
AcDbLine
 10
72.66811409999999
 20
156.0
 30
0.0
 11
72.66811409999999
 21
168.0
 31
0.0
  0
LINE
  5
6ED
330
6F
100
AcDbEntity
  8
side2_outsideCutPath
100
AcDbLine
 10
72.66811409999999
 20
168.0
 30
0.0
 11
81.90116469999999
 21
168.0
 31
0.0
  0
LINE
  5
6EE
330
6F
100
AcDbEntity
  8
side2_outsideCutPath
100
AcDbLine
 10
81.90116469999999
 20
168.0
 30
0.0
 11
81.90116469999999
 21
180.0
 31
0.0
  0
LINE
  5
6EF
330
6F
100
AcDbEntity
  8
side2_outsideCutPath
100
AcDbLine
 10
81.90116469999999
 20
180.0
 30
0.0
 11
72.66811409999999
 21
180.0
 31
0.0
  0
LINE
  5
6F0
330
6F
100
AcDbEntity
  8
side2_outsideCutPath
100
AcDbLine
 10
72.66811409999999
 20
180.0
 30
0.0
 11
72.66811409999999
 21
192.0
 31
0.0
  0
LINE
  5
6F1
330
6F
100
AcDbEntity
  8
side2_outsideCutPath
100
AcDbLine
 10
72.66811409999999
 20
192.0
 30
0.0
 11
81.90116469999999
 21
192.0
 31
0.0
  0
LINE
  5
6F2
330
6F
100
AcDbEntity
  8
side2_outsideCutPath
100
AcDbLine
 10
81.90116469999999
 20
192.0
 30
0.0
 11
81.90116469999999
 21
204.0
 31
0.0
  0
LINE
  5
6F3
330
6F
100
AcDbEntity
  8
side2_outsideCutPath
100
AcDbLine
 10
81.90116469999999
 20
204.0
 30
0.0
 11
72.66811409999999
 21
204.0
 31
0.0
  0
LINE
  5
6F4
330
6F
100
AcDbEntity
  8
side2_outsideCutPath
100
AcDbLine
 10
72.66811409999999
 20
204.0
 30
0.0
 11
72.66811409999999
 21
216.0
 31
0.0
  0
LINE
  5
6F5
330
6F
100
AcDbEntity
  8
side2_outsideCutPath
100
AcDbLine
 10
72.66811409999999
 20
216.0
 30
0.0
 11
81.90116469999999
 21
216.0
 31
0.0
  0
LINE
  5
6F6
330
6F
100
AcDbEntity
  8
side2_outsideCutPath
100
AcDbLine
 10
81.90116469999999
 20
216.0
 30
0.0
 11
81.90116469999999
 21
228.0
 31
0.0
  0
LINE
  5
6F7
330
6F
100
AcDbEntity
  8
side2_outsideCutPath
100
AcDbLine
 10
81.90116469999999
 20
228.0
 30
0.0
 11
72.66811409999999
 21
228.0
 31
0.0
  0
LINE
  5
6F8
330
6F
100
AcDbEntity
  8
side2_outsideCutPath
100
AcDbLine
 10
72.66811409999999
 20
228.0
 30
0.0
 11
72.66811409999999
 21
240.0
 31
0.0
  0
LINE
  5
6F9
330
6F
100
AcDbEntity
  8
side2_outsideCutPath
100
AcDbLine
 10
72.66811409999999
 20
240.0
 30
0.0
 11
81.90116469999999
 21
240.0
 31
0.0
  0
LINE
  5
6FA
330
6F
100
AcDbEntity
  8
side2_outsideCutPath
100
AcDbLine
 10
81.90116469999999
 20
240.0
 30
0.0
 11
81.90116469999999
 21
252.0
 31
0.0
  0
LINE
  5
6FB
330
6F
100
AcDbEntity
  8
side2_outsideCutPath
100
AcDbLine
 10
81.90116469999999
 20
252.0
 30
0.0
 11
72.66811409999999
 21
252.0
 31
0.0
  0
LINE
  5
6FC
330
6F
100
AcDbEntity
  8
side2_outsideCutPath
100
AcDbLine
 10
72.66811409999999
 20
252.0
 30
0.0
 11
72.66811409999999
 21
264.0
 31
0.0
  0
LINE
  5
6FD
330
6F
100
AcDbEntity
  8
side2_outsideCutPath
100
AcDbLine
 10
72.66811409999999
 20
264.0
 30
0.0
 11
81.90116469999999
 21
264.0
 31
0.0
  0
LINE
  5
6FE
330
6F
100
AcDbEntity
  8
side2_outsideCutPath
100
AcDbLine
 10
81.90116469999999
 20
264.0
 30
0.0
 11
81.90116469999999
 21
275.0
 31
0.0
  0
LINE
  5
6FF
330
6F
100
AcDbEntity
  8
side2_outsideCutPath
100
AcDbLine
 10
81.90116469999999
 20
275.0
 30
0.0
 11
68.1758735
 21
275.0
 31
0.0
  0
LINE
  5
700
330
6F
100
AcDbEntity
  8
side2_outsideCutPath
100
AcDbLine
 10
68.1758735
 20
275.0
 30
0.0
 11
68.1758735
 21
278.0
 31
0.0
  0
LINE
  5
701
330
6F
100
AcDbEntity
  8
side2_outsideCutPath
100
AcDbLine
 10
68.1758735
 20
278.0
 30
0.0
 11
56.1758735
 21
278.0
 31
0.0
  0
LINE
  5
702
330
6F
100
AcDbEntity
  8
side2_outsideCutPath
100
AcDbLine
 10
56.1758735
 20
278.0
 30
0.0
 11
56.1758735
 21
275.0
 31
0.0
  0
LINE
  5
703
330
6F
100
AcDbEntity
  8
side2_outsideCutPath
100
AcDbLine
 10
56.1758735
 20
275.0
 30
0.0
 11
51.683633
 21
275.0
 31
0.0
  0
LINE
  5
7DF
330
6F
100
AcDbEntity
  8
side4_outsideCutPath
100
AcDbLine
 10
94.13421529999999
 20
275.0
 30
0.0
 11
94.13421529999999
 21
264.0
 31
0.0
  0
LINE
  5
7E0
330
6F
100
AcDbEntity
  8
side4_outsideCutPath
100
AcDbLine
 10
94.13421529999999
 20
264.0
 30
0.0
 11
84.9011647
 21
264.0
 31
0.0
  0
LINE
  5
7E1
330
6F
100
AcDbEntity
  8
side4_outsideCutPath
100
AcDbLine
 10
84.9011647
 20
264.0
 30
0.0
 11
84.9011647
 21
252.0
 31
0.0
  0
LINE
  5
7E2
330
6F
100
AcDbEntity
  8
side4_outsideCutPath
100
AcDbLine
 10
84.9011647
 20
252.0
 30
0.0
 11
94.13421529999999
 21
252.0
 31
0.0
  0
LINE
  5
7E3
330
6F
100
AcDbEntity
  8
side4_outsideCutPath
100
AcDbLine
 10
94.13421529999999
 20
252.0
 30
0.0
 11
94.13421529999999
 21
240.0
 31
0.0
  0
LINE
  5
7E4
330
6F
100
AcDbEntity
  8
side4_outsideCutPath
100
AcDbLine
 10
94.13421529999999
 20
240.0
 30
0.0
 11
84.9011647
 21
240.0
 31
0.0
  0
LINE
  5
7E5
330
6F
100
AcDbEntity
  8
side4_outsideCutPath
100
AcDbLine
 10
84.9011647
 20
240.0
 30
0.0
 11
84.9011647
 21
228.0
 31
0.0
  0
LINE
  5
7E6
330
6F
100
AcDbEntity
  8
side4_outsideCutPath
100
AcDbLine
 10
84.9011647
 20
228.0
 30
0.0
 11
94.13421529999999
 21
228.0
 31
0.0
  0
LINE
  5
7E7
330
6F
100
AcDbEntity
  8
side4_outsideCutPath
100
AcDbLine
 10
94.13421529999999
 20
228.0
 30
0.0
 11
94.13421529999999
 21
216.0
 31
0.0
  0
LINE
  5
7E8
330
6F
100
AcDbEntity
  8
side4_outsideCutPath
100
AcDbLine
 10
94.13421529999999
 20
216.0
 30
0.0
 11
84.9011647
 21
216.0
 31
0.0
  0
LINE
  5
7E9
330
6F
100
AcDbEntity
  8
side4_outsideCutPath
100
AcDbLine
 10
84.9011647
 20
216.0
 30
0.0
 11
84.9011647
 21
204.0
 31
0.0
  0
LINE
  5
7EA
330
6F
100
AcDbEntity
  8
side4_outsideCutPath
100
AcDbLine
 10
84.9011647
 20
204.0
 30
0.0
 11
94.13421529999999
 21
204.0
 31
0.0
  0
LINE
  5
7EB
330
6F
100
AcDbEntity
  8
side4_outsideCutPath
100
AcDbLine
 10
94.13421529999999
 20
204.0
 30
0.0
 11
94.13421529999999
 21
192.0
 31
0.0
  0
LINE
  5
7EC
330
6F
100
AcDbEntity
  8
side4_outsideCutPath
100
AcDbLine
 10
94.13421529999999
 20
192.0
 30
0.0
 11
84.9011647
 21
192.0
 31
0.0
  0
LINE
  5
7ED
330
6F
100
AcDbEntity
  8
side4_outsideCutPath
100
AcDbLine
 10
84.9011647
 20
192.0
 30
0.0
 11
84.9011647
 21
180.0
 31
0.0
  0
LINE
  5
7EE
330
6F
100
AcDbEntity
  8
side4_outsideCutPath
100
AcDbLine
 10
84.9011647
 20
180.0
 30
0.0
 11
94.13421529999999
 21
180.0
 31
0.0
  0
LINE
  5
7EF
330
6F
100
AcDbEntity
  8
side4_outsideCutPath
100
AcDbLine
 10
94.13421529999999
 20
180.0
 30
0.0
 11
94.13421529999999
 21
168.0
 31
0.0
  0
LINE
  5
7F0
330
6F
100
AcDbEntity
  8
side4_outsideCutPath
100
AcDbLine
 10
94.13421529999999
 20
168.0
 30
0.0
 11
84.9011647
 21
168.0
 31
0.0
  0
LINE
  5
7F1
330
6F
100
AcDbEntity
  8
side4_outsideCutPath
100
AcDbLine
 10
84.9011647
 20
168.0
 30
0.0
 11
84.9011647
 21
156.0
 31
0.0
  0
LINE
  5
7F2
330
6F
100
AcDbEntity
  8
side4_outsideCutPath
100
AcDbLine
 10
84.9011647
 20
156.0
 30
0.0
 11
94.13421529999999
 21
156.0
 31
0.0
  0
LINE
  5
7F3
330
6F
100
AcDbEntity
  8
side4_outsideCutPath
100
AcDbLine
 10
94.13421529999999
 20
156.0
 30
0.0
 11
94.13421529999999
 21
145.0
 31
0.0
  0
LINE
  5
7F4
330
6F
100
AcDbEntity
  8
side4_outsideCutPath
100
AcDbLine
 10
94.13421529999999
 20
145.0
 30
0.0
 11
98.62645589999999
 21
145.0
 31
0.0
  0
LINE
  5
7F5
330
6F
100
AcDbEntity
  8
side4_outsideCutPath
100
AcDbLine
 10
98.62645589999999
 20
145.0
 30
0.0
 11
98.62645589999999
 21
142.0
 31
0.0
  0
LINE
  5
7F6
330
6F
100
AcDbEntity
  8
side4_outsideCutPath
100
AcDbLine
 10
98.62645589999999
 20
142.0
 30
0.0
 11
110.6264559
 21
142.0
 31
0.0
  0
LINE
  5
7F7
330
6F
100
AcDbEntity
  8
side4_outsideCutPath
100
AcDbLine
 10
110.6264559
 20
142.0
 30
0.0
 11
110.6264559
 21
145.0
 31
0.0
  0
LINE
  5
7F8
330
6F
100
AcDbEntity
  8
side4_outsideCutPath
100
AcDbLine
 10
110.6264559
 20
145.0
 30
0.0
 11
124.3517471
 21
145.0
 31
0.0
  0
LINE
  5
7F9
330
6F
100
AcDbEntity
  8
side4_outsideCutPath
100
AcDbLine
 10
124.3517471
 20
145.0
 30
0.0
 11
124.3517471
 21
156.0
 31
0.0
  0
LINE
  5
7FA
330
6F
100
AcDbEntity
  8
side4_outsideCutPath
100
AcDbLine
 10
124.3517471
 20
156.0
 30
0.0
 11
115.1186965
 21
156.0
 31
0.0
  0
LINE
  5
7FB
330
6F
100
AcDbEntity
  8
side4_outsideCutPath
100
AcDbLine
 10
115.1186965
 20
156.0
 30
0.0
 11
115.1186965
 21
168.0
 31
0.0
  0
LINE
  5
7FC
330
6F
100
AcDbEntity
  8
side4_outsideCutPath
100
AcDbLine
 10
115.1186965
 20
168.0
 30
0.0
 11
124.3517471
 21
168.0
 31
0.0
  0
LINE
  5
7FD
330
6F
100
AcDbEntity
  8
side4_outsideCutPath
100
AcDbLine
 10
124.3517471
 20
168.0
 30
0.0
 11
124.3517471
 21
180.0
 31
0.0
  0
LINE
  5
7FE
330
6F
100
AcDbEntity
  8
side4_outsideCutPath
100
AcDbLine
 10
124.3517471
 20
180.0
 30
0.0
 11
115.1186965
 21
180.0
 31
0.0
  0
LINE
  5
7FF
330
6F
100
AcDbEntity
  8
side4_outsideCutPath
100
AcDbLine
 10
115.1186965
 20
180.0
 30
0.0
 11
115.1186965
 21
192.0
 31
0.0
  0
LINE
  5
800
330
6F
100
AcDbEntity
  8
side4_outsideCutPath
100
AcDbLine
 10
115.1186965
 20
192.0
 30
0.0
 11
124.3517471
 21
192.0
 31
0.0
  0
LINE
  5
801
330
6F
100
AcDbEntity
  8
side4_outsideCutPath
100
AcDbLine
 10
124.3517471
 20
192.0
 30
0.0
 11
124.3517471
 21
204.0
 31
0.0
  0
LINE
  5
802
330
6F
100
AcDbEntity
  8
side4_outsideCutPath
100
AcDbLine
 10
124.3517471
 20
204.0
 30
0.0
 11
115.1186965
 21
204.0
 31
0.0
  0
LINE
  5
803
330
6F
100
AcDbEntity
  8
side4_outsideCutPath
100
AcDbLine
 10
115.1186965
 20
204.0
 30
0.0
 11
115.1186965
 21
216.0
 31
0.0
  0
LINE
  5
804
330
6F
100
AcDbEntity
  8
side4_outsideCutPath
100
AcDbLine
 10
115.1186965
 20
216.0
 30
0.0
 11
124.3517471
 21
216.0
 31
0.0
  0
LINE
  5
805
330
6F
100
AcDbEntity
  8
side4_outsideCutPath
100
AcDbLine
 10
124.3517471
 20
216.0
 30
0.0
 11
124.3517471
 21
228.0
 31
0.0
  0
LINE
  5
806
330
6F
100
AcDbEntity
  8
side4_outsideCutPath
100
AcDbLine
 10
124.3517471
 20
228.0
 30
0.0
 11
115.1186965
 21
228.0
 31
0.0
  0
LINE
  5
807
330
6F
100
AcDbEntity
  8
side4_outsideCutPath
100
AcDbLine
 10
115.1186965
 20
228.0
 30
0.0
 11
115.1186965
 21
240.0
 31
0.0
  0
LINE
  5
808
330
6F
100
AcDbEntity
  8
side4_outsideCutPath
100
AcDbLine
 10
115.1186965
 20
240.0
 30
0.0
 11
124.3517471
 21
240.0
 31
0.0
  0
LINE
  5
809
330
6F
100
AcDbEntity
  8
side4_outsideCutPath
100
AcDbLine
 10
124.3517471
 20
240.0
 30
0.0
 11
124.3517471
 21
252.0
 31
0.0
  0
LINE
  5
80A
330
6F
100
AcDbEntity
  8
side4_outsideCutPath
100
AcDbLine
 10
124.3517471
 20
252.0
 30
0.0
 11
115.1186965
 21
252.0
 31
0.0
  0
LINE
  5
80B
330
6F
100
AcDbEntity
  8
side4_outsideCutPath
100
AcDbLine
 10
115.1186965
 20
252.0
 30
0.0
 11
115.1186965
 21
264.0
 31
0.0
  0
LINE
  5
80C
330
6F
100
AcDbEntity
  8
side4_outsideCutPath
100
AcDbLine
 10
115.1186965
 20
264.0
 30
0.0
 11
124.3517471
 21
264.0
 31
0.0
  0
LINE
  5
80D
330
6F
100
AcDbEntity
  8
side4_outsideCutPath
100
AcDbLine
 10
124.3517471
 20
264.0
 30
0.0
 11
124.3517471
 21
275.0
 31
0.0
  0
LINE
  5
80E
330
6F
100
AcDbEntity
  8
side4_outsideCutPath
100
AcDbLine
 10
124.3517471
 20
275.0
 30
0.0
 11
110.6264559
 21
275.0
 31
0.0
  0
LINE
  5
80F
330
6F
100
AcDbEntity
  8
side4_outsideCutPath
100
AcDbLine
 10
110.6264559
 20
275.0
 30
0.0
 11
110.6264559
 21
278.0
 31
0.0
  0
LINE
  5
810
330
6F
100
AcDbEntity
  8
side4_outsideCutPath
100
AcDbLine
 10
110.6264559
 20
278.0
 30
0.0
 11
98.62645589999999
 21
278.0
 31
0.0
  0
LINE
  5
811
330
6F
100
AcDbEntity
  8
side4_outsideCutPath
100
AcDbLine
 10
98.62645589999999
 20
278.0
 30
0.0
 11
98.62645589999999
 21
275.0
 31
0.0
  0
LINE
  5
812
330
6F
100
AcDbEntity
  8
side4_outsideCutPath
100
AcDbLine
 10
98.62645589999999
 20
275.0
 30
0.0
 11
94.13421529999999
 21
275.0
 31
0.0
  0
LINE
  5
8DC
330
6F
100
AcDbEntity
  8
side6_outsideCutPath
100
AcDbLine
 10
136.5847977
 20
275.0
 30
0.0
 11
136.5847977
 21
264.0
 31
0.0
  0
LINE
  5
8DD
330
6F
100
AcDbEntity
  8
side6_outsideCutPath
100
AcDbLine
 10
136.5847977
 20
264.0
 30
0.0
 11
127.3517471
 21
264.0
 31
0.0
  0
LINE
  5
8DE
330
6F
100
AcDbEntity
  8
side6_outsideCutPath
100
AcDbLine
 10
127.3517471
 20
264.0
 30
0.0
 11
127.3517471
 21
252.0
 31
0.0
  0
LINE
  5
8DF
330
6F
100
AcDbEntity
  8
side6_outsideCutPath
100
AcDbLine
 10
127.3517471
 20
252.0
 30
0.0
 11
136.5847977
 21
252.0
 31
0.0
  0
LINE
  5
8E0
330
6F
100
AcDbEntity
  8
side6_outsideCutPath
100
AcDbLine
 10
136.5847977
 20
252.0
 30
0.0
 11
136.5847977
 21
240.0
 31
0.0
  0
LINE
  5
8E1
330
6F
100
AcDbEntity
  8
side6_outsideCutPath
100
AcDbLine
 10
136.5847977
 20
240.0
 30
0.0
 11
127.3517471
 21
240.0
 31
0.0
  0
LINE
  5
8E2
330
6F
100
AcDbEntity
  8
side6_outsideCutPath
100
AcDbLine
 10
127.3517471
 20
240.0
 30
0.0
 11
127.3517471
 21
228.0
 31
0.0
  0
LINE
  5
8E3
330
6F
100
AcDbEntity
  8
side6_outsideCutPath
100
AcDbLine
 10
127.3517471
 20
228.0
 30
0.0
 11
136.5847977
 21
228.0
 31
0.0
  0
LINE
  5
8E4
330
6F
100
AcDbEntity
  8
side6_outsideCutPath
100
AcDbLine
 10
136.5847977
 20
228.0
 30
0.0
 11
136.5847977
 21
216.0
 31
0.0
  0
LINE
  5
8E5
330
6F
100
AcDbEntity
  8
side6_outsideCutPath
100
AcDbLine
 10
136.5847977
 20
216.0
 30
0.0
 11
127.3517471
 21
216.0
 31
0.0
  0
LINE
  5
8E6
330
6F
100
AcDbEntity
  8
side6_outsideCutPath
100
AcDbLine
 10
127.3517471
 20
216.0
 30
0.0
 11
127.3517471
 21
204.0
 31
0.0
  0
LINE
  5
8E7
330
6F
100
AcDbEntity
  8
side6_outsideCutPath
100
AcDbLine
 10
127.3517471
 20
204.0
 30
0.0
 11
136.5847977
 21
204.0
 31
0.0
  0
LINE
  5
8E8
330
6F
100
AcDbEntity
  8
side6_outsideCutPath
100
AcDbLine
 10
136.5847977
 20
204.0
 30
0.0
 11
136.5847977
 21
192.0
 31
0.0
  0
LINE
  5
8E9
330
6F
100
AcDbEntity
  8
side6_outsideCutPath
100
AcDbLine
 10
136.5847977
 20
192.0
 30
0.0
 11
127.3517471
 21
192.0
 31
0.0
  0
LINE
  5
8EA
330
6F
100
AcDbEntity
  8
side6_outsideCutPath
100
AcDbLine
 10
127.3517471
 20
192.0
 30
0.0
 11
127.3517471
 21
180.0
 31
0.0
  0
LINE
  5
8EB
330
6F
100
AcDbEntity
  8
side6_outsideCutPath
100
AcDbLine
 10
127.3517471
 20
180.0
 30
0.0
 11
136.5847977
 21
180.0
 31
0.0
  0
LINE
  5
8EC
330
6F
100
AcDbEntity
  8
side6_outsideCutPath
100
AcDbLine
 10
136.5847977
 20
180.0
 30
0.0
 11
136.5847977
 21
168.0
 31
0.0
  0
LINE
  5
8ED
330
6F
100
AcDbEntity
  8
side6_outsideCutPath
100
AcDbLine
 10
136.5847977
 20
168.0
 30
0.0
 11
127.3517471
 21
168.0
 31
0.0
  0
LINE
  5
8EE
330
6F
100
AcDbEntity
  8
side6_outsideCutPath
100
AcDbLine
 10
127.3517471
 20
168.0
 30
0.0
 11
127.3517471
 21
156.0
 31
0.0
  0
LINE
  5
8EF
330
6F
100
AcDbEntity
  8
side6_outsideCutPath
100
AcDbLine
 10
127.3517471
 20
156.0
 30
0.0
 11
136.5847977
 21
156.0
 31
0.0
  0
LINE
  5
8F0
330
6F
100
AcDbEntity
  8
side6_outsideCutPath
100
AcDbLine
 10
136.5847977
 20
156.0
 30
0.0
 11
136.5847977
 21
145.0
 31
0.0
  0
LINE
  5
8F1
330
6F
100
AcDbEntity
  8
side6_outsideCutPath
100
AcDbLine
 10
136.5847977
 20
145.0
 30
0.0
 11
141.0770383
 21
145.0
 31
0.0
  0
LINE
  5
8F2
330
6F
100
AcDbEntity
  8
side6_outsideCutPath
100
AcDbLine
 10
141.0770383
 20
145.0
 30
0.0
 11
141.0770383
 21
142.0
 31
0.0
  0
LINE
  5
8F3
330
6F
100
AcDbEntity
  8
side6_outsideCutPath
100
AcDbLine
 10
141.0770383
 20
142.0
 30
0.0
 11
153.0770383
 21
142.0
 31
0.0
  0
LINE
  5
8F4
330
6F
100
AcDbEntity
  8
side6_outsideCutPath
100
AcDbLine
 10
153.0770383
 20
142.0
 30
0.0
 11
153.0770383
 21
145.0
 31
0.0
  0
LINE
  5
8F5
330
6F
100
AcDbEntity
  8
side6_outsideCutPath
100
AcDbLine
 10
153.0770383
 20
145.0
 30
0.0
 11
166.8023294
 21
145.0
 31
0.0
  0
LINE
  5
8F6
330
6F
100
AcDbEntity
  8
side6_outsideCutPath
100
AcDbLine
 10
166.8023294
 20
145.0
 30
0.0
 11
166.8023294
 21
156.0
 31
0.0
  0
LINE
  5
8F7
330
6F
100
AcDbEntity
  8
side6_outsideCutPath
100
AcDbLine
 10
166.8023294
 20
156.0
 30
0.0
 11
157.5692788
 21
156.0
 31
0.0
  0
LINE
  5
8F8
330
6F
100
AcDbEntity
  8
side6_outsideCutPath
100
AcDbLine
 10
157.5692788
 20
156.0
 30
0.0
 11
157.5692788
 21
168.0
 31
0.0
  0
LINE
  5
8F9
330
6F
100
AcDbEntity
  8
side6_outsideCutPath
100
AcDbLine
 10
157.5692788
 20
168.0
 30
0.0
 11
166.8023294
 21
168.0
 31
0.0
  0
LINE
  5
8FA
330
6F
100
AcDbEntity
  8
side6_outsideCutPath
100
AcDbLine
 10
166.8023294
 20
168.0
 30
0.0
 11
166.8023294
 21
180.0
 31
0.0
  0
LINE
  5
8FB
330
6F
100
AcDbEntity
  8
side6_outsideCutPath
100
AcDbLine
 10
166.8023294
 20
180.0
 30
0.0
 11
157.5692788
 21
180.0
 31
0.0
  0
LINE
  5
8FC
330
6F
100
AcDbEntity
  8
side6_outsideCutPath
100
AcDbLine
 10
157.5692788
 20
180.0
 30
0.0
 11
157.5692788
 21
192.0
 31
0.0
  0
LINE
  5
8FD
330
6F
100
AcDbEntity
  8
side6_outsideCutPath
100
AcDbLine
 10
157.5692788
 20
192.0
 30
0.0
 11
166.8023294
 21
192.0
 31
0.0
  0
LINE
  5
8FE
330
6F
100
AcDbEntity
  8
side6_outsideCutPath
100
AcDbLine
 10
166.8023294
 20
192.0
 30
0.0
 11
166.8023294
 21
204.0
 31
0.0
  0
LINE
  5
8FF
330
6F
100
AcDbEntity
  8
side6_outsideCutPath
100
AcDbLine
 10
166.8023294
 20
204.0
 30
0.0
 11
157.5692788
 21
204.0
 31
0.0
  0
LINE
  5
900
330
6F
100
AcDbEntity
  8
side6_outsideCutPath
100
AcDbLine
 10
157.5692788
 20
204.0
 30
0.0
 11
157.5692788
 21
216.0
 31
0.0
  0
LINE
  5
901
330
6F
100
AcDbEntity
  8
side6_outsideCutPath
100
AcDbLine
 10
157.5692788
 20
216.0
 30
0.0
 11
166.8023294
 21
216.0
 31
0.0
  0
LINE
  5
902
330
6F
100
AcDbEntity
  8
side6_outsideCutPath
100
AcDbLine
 10
166.8023294
 20
216.0
 30
0.0
 11
166.8023294
 21
228.0
 31
0.0
  0
LINE
  5
903
330
6F
100
AcDbEntity
  8
side6_outsideCutPath
100
AcDbLine
 10
166.8023294
 20
228.0
 30
0.0
 11
157.5692788
 21
228.0
 31
0.0
  0
LINE
  5
904
330
6F
100
AcDbEntity
  8
side6_outsideCutPath
100
AcDbLine
 10
157.5692788
 20
228.0
 30
0.0
 11
157.5692788
 21
240.0
 31
0.0
  0
LINE
  5
905
330
6F
100
AcDbEntity
  8
side6_outsideCutPath
100
AcDbLine
 10
157.5692788
 20
240.0
 30
0.0
 11
166.8023294
 21
240.0
 31
0.0
  0
LINE
  5
906
330
6F
100
AcDbEntity
  8
side6_outsideCutPath
100
AcDbLine
 10
166.8023294
 20
240.0
 30
0.0
 11
166.8023294
 21
252.0
 31
0.0
  0
LINE
  5
907
330
6F
100
AcDbEntity
  8
side6_outsideCutPath
100
AcDbLine
 10
166.8023294
 20
252.0
 30
0.0
 11
157.5692788
 21
252.0
 31
0.0
  0
LINE
  5
908
330
6F
100
AcDbEntity
  8
side6_outsideCutPath
100
AcDbLine
 10
157.5692788
 20
252.0
 30
0.0
 11
157.5692788
 21
264.0
 31
0.0
  0
LINE
  5
909
330
6F
100
AcDbEntity
  8
side6_outsideCutPath
100
AcDbLine
 10
157.5692788
 20
264.0
 30
0.0
 11
166.8023294
 21
264.0
 31
0.0
  0
LINE
  5
90A
330
6F
100
AcDbEntity
  8
side6_outsideCutPath
100
AcDbLine
 10
166.8023294
 20
264.0
 30
0.0
 11
166.8023294
 21
275.0
 31
0.0
  0
LINE
  5
90B
330
6F
100
AcDbEntity
  8
side6_outsideCutPath
100
AcDbLine
 10
166.8023294
 20
275.0
 30
0.0
 11
153.0770383
 21
275.0
 31
0.0
  0
LINE
  5
90C
330
6F
100
AcDbEntity
  8
side6_outsideCutPath
100
AcDbLine
 10
153.0770383
 20
275.0
 30
0.0
 11
153.0770383
 21
278.0
 31
0.0
  0
LINE
  5
90D
330
6F
100
AcDbEntity
  8
side6_outsideCutPath
100
AcDbLine
 10
153.0770383
 20
278.0
 30
0.0
 11
141.0770383
 21
278.0
 31
0.0
  0
LINE
  5
90E
330
6F
100
AcDbEntity
  8
side6_outsideCutPath
100
AcDbLine
 10
141.0770383
 20
278.0
 30
0.0
 11
141.0770383
 21
275.0
 31
0.0
  0
LINE
  5
90F
330
6F
100
AcDbEntity
  8
side6_outsideCutPath
100
AcDbLine
 10
141.0770383
 20
275.0
 30
0.0
 11
136.5847977
 21
275.0
 31
0.0
  0
LINE
  5
9FE
330
6F
100
AcDbEntity
  8
side8_outsideCutPath
100
AcDbLine
 10
179.0353801
 20
275.0
 30
0.0
 11
179.0353801
 21
264.0
 31
0.0
  0
LINE
  5
9FF
330
6F
100
AcDbEntity
  8
side8_outsideCutPath
100
AcDbLine
 10
179.0353801
 20
264.0
 30
0.0
 11
169.8023294
 21
264.0
 31
0.0
  0
LINE
  5
A00
330
6F
100
AcDbEntity
  8
side8_outsideCutPath
100
AcDbLine
 10
169.8023294
 20
264.0
 30
0.0
 11
169.8023294
 21
252.0
 31
0.0
  0
LINE
  5
A01
330
6F
100
AcDbEntity
  8
side8_outsideCutPath
100
AcDbLine
 10
169.8023294
 20
252.0
 30
0.0
 11
179.0353801
 21
252.0
 31
0.0
  0
LINE
  5
A02
330
6F
100
AcDbEntity
  8
side8_outsideCutPath
100
AcDbLine
 10
179.0353801
 20
252.0
 30
0.0
 11
179.0353801
 21
240.0
 31
0.0
  0
LINE
  5
A03
330
6F
100
AcDbEntity
  8
side8_outsideCutPath
100
AcDbLine
 10
179.0353801
 20
240.0
 30
0.0
 11
169.8023294
 21
240.0
 31
0.0
  0
LINE
  5
A04
330
6F
100
AcDbEntity
  8
side8_outsideCutPath
100
AcDbLine
 10
169.8023294
 20
240.0
 30
0.0
 11
169.8023294
 21
228.0
 31
0.0
  0
LINE
  5
A05
330
6F
100
AcDbEntity
  8
side8_outsideCutPath
100
AcDbLine
 10
169.8023294
 20
228.0
 30
0.0
 11
179.0353801
 21
228.0
 31
0.0
  0
LINE
  5
A06
330
6F
100
AcDbEntity
  8
side8_outsideCutPath
100
AcDbLine
 10
179.0353801
 20
228.0
 30
0.0
 11
179.0353801
 21
216.0
 31
0.0
  0
LINE
  5
A07
330
6F
100
AcDbEntity
  8
side8_outsideCutPath
100
AcDbLine
 10
179.0353801
 20
216.0
 30
0.0
 11
169.8023294
 21
216.0
 31
0.0
  0
LINE
  5
A08
330
6F
100
AcDbEntity
  8
side8_outsideCutPath
100
AcDbLine
 10
169.8023294
 20
216.0
 30
0.0
 11
169.8023294
 21
204.0
 31
0.0
  0
LINE
  5
A09
330
6F
100
AcDbEntity
  8
side8_outsideCutPath
100
AcDbLine
 10
169.8023294
 20
204.0
 30
0.0
 11
179.0353801
 21
204.0
 31
0.0
  0
LINE
  5
A0A
330
6F
100
AcDbEntity
  8
side8_outsideCutPath
100
AcDbLine
 10
179.0353801
 20
204.0
 30
0.0
 11
179.0353801
 21
192.0
 31
0.0
  0
LINE
  5
A0B
330
6F
100
AcDbEntity
  8
side8_outsideCutPath
100
AcDbLine
 10
179.0353801
 20
192.0
 30
0.0
 11
169.8023294
 21
192.0
 31
0.0
  0
LINE
  5
A0C
330
6F
100
AcDbEntity
  8
side8_outsideCutPath
100
AcDbLine
 10
169.8023294
 20
192.0
 30
0.0
 11
169.8023294
 21
180.0
 31
0.0
  0
LINE
  5
A0D
330
6F
100
AcDbEntity
  8
side8_outsideCutPath
100
AcDbLine
 10
169.8023294
 20
180.0
 30
0.0
 11
179.0353801
 21
180.0
 31
0.0
  0
LINE
  5
A0E
330
6F
100
AcDbEntity
  8
side8_outsideCutPath
100
AcDbLine
 10
179.0353801
 20
180.0
 30
0.0
 11
179.0353801
 21
168.0
 31
0.0
  0
LINE
  5
A0F
330
6F
100
AcDbEntity
  8
side8_outsideCutPath
100
AcDbLine
 10
179.0353801
 20
168.0
 30
0.0
 11
169.8023294
 21
168.0
 31
0.0
  0
LINE
  5
A10
330
6F
100
AcDbEntity
  8
side8_outsideCutPath
100
AcDbLine
 10
169.8023294
 20
168.0
 30
0.0
 11
169.8023294
 21
156.0
 31
0.0
  0
LINE
  5
A11
330
6F
100
AcDbEntity
  8
side8_outsideCutPath
100
AcDbLine
 10
169.8023294
 20
156.0
 30
0.0
 11
179.0353801
 21
156.0
 31
0.0
  0
LINE
  5
A12
330
6F
100
AcDbEntity
  8
side8_outsideCutPath
100
AcDbLine
 10
179.0353801
 20
156.0
 30
0.0
 11
179.0353801
 21
145.0
 31
0.0
  0
LINE
  5
A13
330
6F
100
AcDbEntity
  8
side8_outsideCutPath
100
AcDbLine
 10
179.0353801
 20
145.0
 30
0.0
 11
183.5276206
 21
145.0
 31
0.0
  0
LINE
  5
A14
330
6F
100
AcDbEntity
  8
side8_outsideCutPath
100
AcDbLine
 10
183.5276206
 20
145.0
 30
0.0
 11
183.5276206
 21
142.0
 31
0.0
  0
LINE
  5
A15
330
6F
100
AcDbEntity
  8
side8_outsideCutPath
100
AcDbLine
 10
183.5276206
 20
142.0
 30
0.0
 11
195.5276206
 21
142.0
 31
0.0
  0
LINE
  5
A16
330
6F
100
AcDbEntity
  8
side8_outsideCutPath
100
AcDbLine
 10
195.5276206
 20
142.0
 30
0.0
 11
195.5276206
 21
145.0
 31
0.0
  0
LINE
  5
A17
330
6F
100
AcDbEntity
  8
side8_outsideCutPath
100
AcDbLine
 10
195.5276206
 20
145.0
 30
0.0
 11
209.2529118
 21
145.0
 31
0.0
  0
LINE
  5
A18
330
6F
100
AcDbEntity
  8
side8_outsideCutPath
100
AcDbLine
 10
209.2529118
 20
145.0
 30
0.0
 11
209.2529118
 21
156.0
 31
0.0
  0
LINE
  5
A19
330
6F
100
AcDbEntity
  8
side8_outsideCutPath
100
AcDbLine
 10
209.2529118
 20
156.0
 30
0.0
 11
200.0198612
 21
156.0
 31
0.0
  0
LINE
  5
A1A
330
6F
100
AcDbEntity
  8
side8_outsideCutPath
100
AcDbLine
 10
200.0198612
 20
156.0
 30
0.0
 11
200.0198612
 21
168.0
 31
0.0
  0
LINE
  5
A1B
330
6F
100
AcDbEntity
  8
side8_outsideCutPath
100
AcDbLine
 10
200.0198612
 20
168.0
 30
0.0
 11
209.2529118
 21
168.0
 31
0.0
  0
LINE
  5
A1C
330
6F
100
AcDbEntity
  8
side8_outsideCutPath
100
AcDbLine
 10
209.2529118
 20
168.0
 30
0.0
 11
209.2529118
 21
180.0
 31
0.0
  0
LINE
  5
A1D
330
6F
100
AcDbEntity
  8
side8_outsideCutPath
100
AcDbLine
 10
209.2529118
 20
180.0
 30
0.0
 11
200.0198612
 21
180.0
 31
0.0
  0
LINE
  5
A1E
330
6F
100
AcDbEntity
  8
side8_outsideCutPath
100
AcDbLine
 10
200.0198612
 20
180.0
 30
0.0
 11
200.0198612
 21
192.0
 31
0.0
  0
LINE
  5
A1F
330
6F
100
AcDbEntity
  8
side8_outsideCutPath
100
AcDbLine
 10
200.0198612
 20
192.0
 30
0.0
 11
209.2529118
 21
192.0
 31
0.0
  0
LINE
  5
A20
330
6F
100
AcDbEntity
  8
side8_outsideCutPath
100
AcDbLine
 10
209.2529118
 20
192.0
 30
0.0
 11
209.2529118
 21
204.0
 31
0.0
  0
LINE
  5
A21
330
6F
100
AcDbEntity
  8
side8_outsideCutPath
100
AcDbLine
 10
209.2529118
 20
204.0
 30
0.0
 11
200.0198612
 21
204.0
 31
0.0
  0
LINE
  5
A22
330
6F
100
AcDbEntity
  8
side8_outsideCutPath
100
AcDbLine
 10
200.0198612
 20
204.0
 30
0.0
 11
200.0198612
 21
216.0
 31
0.0
  0
LINE
  5
A23
330
6F
100
AcDbEntity
  8
side8_outsideCutPath
100
AcDbLine
 10
200.0198612
 20
216.0
 30
0.0
 11
209.2529118
 21
216.0
 31
0.0
  0
LINE
  5
A24
330
6F
100
AcDbEntity
  8
side8_outsideCutPath
100
AcDbLine
 10
209.2529118
 20
216.0
 30
0.0
 11
209.2529118
 21
228.0
 31
0.0
  0
LINE
  5
A25
330
6F
100
AcDbEntity
  8
side8_outsideCutPath
100
AcDbLine
 10
209.2529118
 20
228.0
 30
0.0
 11
200.0198612
 21
228.0
 31
0.0
  0
LINE
  5
A26
330
6F
100
AcDbEntity
  8
side8_outsideCutPath
100
AcDbLine
 10
200.0198612
 20
228.0
 30
0.0
 11
200.0198612
 21
240.0
 31
0.0
  0
LINE
  5
A27
330
6F
100
AcDbEntity
  8
side8_outsideCutPath
100
AcDbLine
 10
200.0198612
 20
240.0
 30
0.0
 11
209.2529118
 21
240.0
 31
0.0
  0
LINE
  5
A28
330
6F
100
AcDbEntity
  8
side8_outsideCutPath
100
AcDbLine
 10
209.2529118
 20
240.0
 30
0.0
 11
209.2529118
 21
252.0
 31
0.0
  0
LINE
  5
A29
330
6F
100
AcDbEntity
  8
side8_outsideCutPath
100
AcDbLine
 10
209.2529118
 20
252.0
 30
0.0
 11
200.0198612
 21
252.0
 31
0.0
  0
LINE
  5
A2A
330
6F
100
AcDbEntity
  8
side8_outsideCutPath
100
AcDbLine
 10
200.0198612
 20
252.0
 30
0.0
 11
200.0198612
 21
264.0
 31
0.0
  0
LINE
  5
A2B
330
6F
100
AcDbEntity
  8
side8_outsideCutPath
100
AcDbLine
 10
200.0198612
 20
264.0
 30
0.0
 11
209.2529118
 21
264.0
 31
0.0
  0
LINE
  5
A2C
330
6F
100
AcDbEntity
  8
side8_outsideCutPath
100
AcDbLine
 10
209.2529118
 20
264.0
 30
0.0
 11
209.2529118
 21
275.0
 31
0.0
  0
LINE
  5
A2D
330
6F
100
AcDbEntity
  8
side8_outsideCutPath
100
AcDbLine
 10
209.2529118
 20
275.0
 30
0.0
 11
195.5276206
 21
275.0
 31
0.0
  0
LINE
  5
A2E
330
6F
100
AcDbEntity
  8
side8_outsideCutPath
100
AcDbLine
 10
195.5276206
 20
275.0
 30
0.0
 11
195.5276206
 21
278.0
 31
0.0
  0
LINE
  5
A2F
330
6F
100
AcDbEntity
  8
side8_outsideCutPath
100
AcDbLine
 10
195.5276206
 20
278.0
 30
0.0
 11
183.5276206
 21
278.0
 31
0.0
  0
LINE
  5
A30
330
6F
100
AcDbEntity
  8
side8_outsideCutPath
100
AcDbLine
 10
183.5276206
 20
278.0
 30
0.0
 11
183.5276206
 21
275.0
 31
0.0
  0
LINE
  5
A31
330
6F
100
AcDbEntity
  8
side8_outsideCutPath
100
AcDbLine
 10
183.5276206
 20
275.0
 30
0.0
 11
179.0353801
 21
275.0
 31
0.0
  0
LINE
  5
B33
330
6F
100
AcDbEntity
  8
top_outsideCutPath
100
AcDbLine
 10
66.0663322
 20
377.0
 30
0.0
 11
73.82977690000001
 21
371.3595272
 31
0.0
  0
LINE
  5
B34
330
6F
100
AcDbEntity
  8
top_outsideCutPath
100
AcDbLine
 10
73.82977690000001
 20
371.3595272
 30
0.0
 11
72.06642120000001
 21
368.9324763
 31
0.0
  0
LINE
  5
B35
330
6F
100
AcDbEntity
  8
top_outsideCutPath
100
AcDbLine
 10
72.06642120000001
 20
368.9324763
 30
0.0
 11
81.77462509999999
 21
361.8790532
 31
0.0
  0
LINE
  5
B36
330
6F
100
AcDbEntity
  8
top_outsideCutPath
100
AcDbLine
 10
81.77462509999999
 20
361.8790532
 30
0.0
 11
83.5379808
 21
364.3061042
 31
0.0
  0
LINE
  5
B37
330
6F
100
AcDbEntity
  8
top_outsideCutPath
100
AcDbLine
 10
83.5379808
 20
364.3061042
 30
0.0
 11
91.30142559999999
 21
358.6656315
 31
0.0
  0
LINE
  5
B38
330
6F
100
AcDbEntity
  8
top_outsideCutPath
100
AcDbLine
 10
91.30142559999999
 20
358.6656315
 30
0.0
 11
94.26679759999998
 21
349.5391548
 31
0.0
  0
LINE
  5
B39
330
6F
100
AcDbEntity
  8
top_outsideCutPath
100
AcDbLine
 10
94.26679759999998
 20
349.5391548
 30
0.0
 11
91.41362800000001
 21
348.6121038
 31
0.0
  0
LINE
  5
B3A
330
6F
100
AcDbEntity
  8
top_outsideCutPath
100
AcDbLine
 10
91.41362800000001
 20
348.6121038
 30
0.0
 11
95.121832
 21
337.1994256
 31
0.0
  0
LINE
  5
B3B
330
6F
100
AcDbEntity
  8
top_outsideCutPath
100
AcDbLine
 10
95.121832
 20
337.1994256
 30
0.0
 11
97.97500150000001
 21
338.1264766000001
 31
0.0
  0
LINE
  5
B3C
330
6F
100
AcDbEntity
  8
top_outsideCutPath
100
AcDbLine
 10
97.97500150000001
 20
338.1264766000001
 30
0.0
 11
100.9403735
 21
329.0
 31
0.0
  0
LINE
  5
B3D
330
6F
100
AcDbEntity
  8
top_outsideCutPath
100
AcDbLine
 10
100.9403735
 20
329.0
 30
0.0
 11
97.97500150000001
 21
319.8735233999999
 31
0.0
  0
LINE
  5
B3E
330
6F
100
AcDbEntity
  8
top_outsideCutPath
100
AcDbLine
 10
97.97500150000001
 20
319.8735233999999
 30
0.0
 11
95.121832
 21
320.8005744
 31
0.0
  0
LINE
  5
B3F
330
6F
100
AcDbEntity
  8
top_outsideCutPath
100
AcDbLine
 10
95.121832
 20
320.8005744
 30
0.0
 11
91.41362800000001
 21
309.3878962
 31
0.0
  0
LINE
  5
B40
330
6F
100
AcDbEntity
  8
top_outsideCutPath
100
AcDbLine
 10
91.41362800000001
 20
309.3878962
 30
0.0
 11
94.26679759999998
 21
308.4608452
 31
0.0
  0
LINE
  5
B41
330
6F
100
AcDbEntity
  8
top_outsideCutPath
100
AcDbLine
 10
94.26679759999998
 20
308.4608452
 30
0.0
 11
91.30142559999999
 21
299.3343685
 31
0.0
  0
LINE
  5
B42
330
6F
100
AcDbEntity
  8
top_outsideCutPath
100
AcDbLine
 10
91.30142559999999
 20
299.3343685
 30
0.0
 11
83.5379808
 21
293.6938958
 31
0.0
  0
LINE
  5
B43
330
6F
100
AcDbEntity
  8
top_outsideCutPath
100
AcDbLine
 10
83.5379808
 20
293.6938958
 30
0.0
 11
81.77462509999999
 21
296.1209468
 31
0.0
  0
LINE
  5
B44
330
6F
100
AcDbEntity
  8
top_outsideCutPath
100
AcDbLine
 10
81.77462509999999
 20
296.1209468
 30
0.0
 11
72.06642120000001
 21
289.0675237
 31
0.0
  0
LINE
  5
B45
330
6F
100
AcDbEntity
  8
top_outsideCutPath
100
AcDbLine
 10
72.06642120000001
 20
289.0675237
 30
0.0
 11
73.82977690000001
 21
286.6404728
 31
0.0
  0
LINE
  5
B46
330
6F
100
AcDbEntity
  8
top_outsideCutPath
100
AcDbLine
 10
73.82977690000001
 20
286.6404728
 30
0.0
 11
66.0663322
 21
281.0
 31
0.0
  0
LINE
  5
B47
330
6F
100
AcDbEntity
  8
top_outsideCutPath
100
AcDbLine
 10
66.0663322
 20
281.0
 30
0.0
 11
56.4701868
 21
281.0
 31
0.0
  0
LINE
  5
B48
330
6F
100
AcDbEntity
  8
top_outsideCutPath
100
AcDbLine
 10
56.4701868
 20
281.0
 30
0.0
 11
56.4701868
 21
284.0
 31
0.0
  0
LINE
  5
B49
330
6F
100
AcDbEntity
  8
top_outsideCutPath
100
AcDbLine
 10
56.4701868
 20
284.0
 30
0.0
 11
44.47018679999999
 21
284.0
 31
0.0
  0
LINE
  5
B4A
330
6F
100
AcDbEntity
  8
top_outsideCutPath
100
AcDbLine
 10
44.47018679999999
 20
284.0
 30
0.0
 11
44.47018679999999
 21
281.0
 31
0.0
  0
LINE
  5
B4B
330
6F
100
AcDbEntity
  8
top_outsideCutPath
100
AcDbLine
 10
44.47018679999999
 20
281.0
 30
0.0
 11
34.8740413
 21
281.0
 31
0.0
  0
LINE
  5
B4C
330
6F
100
AcDbEntity
  8
top_outsideCutPath
100
AcDbLine
 10
34.8740413
 20
281.0
 30
0.0
 11
27.1105966
 21
286.6404728
 31
0.0
  0
LINE
  5
B4D
330
6F
100
AcDbEntity
  8
top_outsideCutPath
100
AcDbLine
 10
27.1105966
 20
286.6404728
 30
0.0
 11
28.8739524
 21
289.0675237
 31
0.0
  0
LINE
  5
B4E
330
6F
100
AcDbEntity
  8
top_outsideCutPath
100
AcDbLine
 10
28.8739524
 20
289.0675237
 30
0.0
 11
19.1657484
 21
296.1209468
 31
0.0
  0
LINE
  5
B4F
330
6F
100
AcDbEntity
  8
top_outsideCutPath
100
AcDbLine
 10
19.1657484
 20
296.1209468
 30
0.0
 11
17.4023927
 21
293.6938958
 31
0.0
  0
LINE
  5
B50
330
6F
100
AcDbEntity
  8
top_outsideCutPath
100
AcDbLine
 10
17.4023927
 20
293.6938958
 30
0.0
 11
9.638947999999999
 21
299.3343685
 31
0.0
  0
LINE
  5
B51
330
6F
100
AcDbEntity
  8
top_outsideCutPath
100
AcDbLine
 10
9.638947999999999
 20
299.3343685
 30
0.0
 11
6.6735759
 21
308.4608452
 31
0.0
  0
LINE
  5
B52
330
6F
100
AcDbEntity
  8
top_outsideCutPath
100
AcDbLine
 10
6.6735759
 20
308.4608452
 30
0.0
 11
9.5267455
 21
309.3878962
 31
0.0
  0
LINE
  5
B53
330
6F
100
AcDbEntity
  8
top_outsideCutPath
100
AcDbLine
 10
9.5267455
 20
309.3878962
 30
0.0
 11
5.818541599999999
 21
320.8005744
 31
0.0
  0
LINE
  5
B54
330
6F
100
AcDbEntity
  8
top_outsideCutPath
100
AcDbLine
 10
5.818541599999999
 20
320.8005744
 30
0.0
 11
2.965371999999999
 21
319.8735233999999
 31
0.0
  0
LINE
  5
B55
330
6F
100
AcDbEntity
  8
top_outsideCutPath
100
AcDbLine
 10
2.965371999999999
 20
319.8735233999999
 30
0.0
 11
0.0
 21
329.0
 31
0.0
  0
LINE
  5
B56
330
6F
100
AcDbEntity
  8
top_outsideCutPath
100
AcDbLine
 10
0.0
 20
329.0
 30
0.0
 11
2.965371999999999
 21
338.1264766000001
 31
0.0
  0
LINE
  5
B57
330
6F
100
AcDbEntity
  8
top_outsideCutPath
100
AcDbLine
 10
2.965371999999999
 20
338.1264766000001
 30
0.0
 11
5.818541599999999
 21
337.1994256
 31
0.0
  0
LINE
  5
B58
330
6F
100
AcDbEntity
  8
top_outsideCutPath
100
AcDbLine
 10
5.818541599999999
 20
337.1994256
 30
0.0
 11
9.5267455
 21
348.6121038
 31
0.0
  0
LINE
  5
B59
330
6F
100
AcDbEntity
  8
top_outsideCutPath
100
AcDbLine
 10
9.5267455
 20
348.6121038
 30
0.0
 11
6.6735759
 21
349.5391548
 31
0.0
  0
LINE
  5
B5A
330
6F
100
AcDbEntity
  8
top_outsideCutPath
100
AcDbLine
 10
6.6735759
 20
349.5391548
 30
0.0
 11
9.638947999999999
 21
358.6656315
 31
0.0
  0
LINE
  5
B5B
330
6F
100
AcDbEntity
  8
top_outsideCutPath
100
AcDbLine
 10
9.638947999999999
 20
358.6656315
 30
0.0
 11
17.4023927
 21
364.3061042
 31
0.0
  0
LINE
  5
B5C
330
6F
100
AcDbEntity
  8
top_outsideCutPath
100
AcDbLine
 10
17.4023927
 20
364.3061042
 30
0.0
 11
19.1657484
 21
361.8790532
 31
0.0
  0
LINE
  5
B5D
330
6F
100
AcDbEntity
  8
top_outsideCutPath
100
AcDbLine
 10
19.1657484
 20
361.8790532
 30
0.0
 11
28.8739524
 21
368.9324763
 31
0.0
  0
LINE
  5
B5E
330
6F
100
AcDbEntity
  8
top_outsideCutPath
100
AcDbLine
 10
28.8739524
 20
368.9324763
 30
0.0
 11
27.1105966
 21
371.3595272
 31
0.0
  0
LINE
  5
B5F
330
6F
100
AcDbEntity
  8
top_outsideCutPath
100
AcDbLine
 10
27.1105966
 20
371.3595272
 30
0.0
 11
34.8740413
 21
377.0
 31
0.0
  0
LINE
  5
B60
330
6F
100
AcDbEntity
  8
top_outsideCutPath
100
AcDbLine
 10
34.8740413
 20
377.0
 30
0.0
 11
44.47018679999999
 21
377.0
 31
0.0
  0
LINE
  5
B61
330
6F
100
AcDbEntity
  8
top_outsideCutPath
100
AcDbLine
 10
44.47018679999999
 20
377.0
 30
0.0
 11
44.47018679999999
 21
374.0
 31
0.0
  0
LINE
  5
B62
330
6F
100
AcDbEntity
  8
top_outsideCutPath
100
AcDbLine
 10
44.47018679999999
 20
374.0
 30
0.0
 11
56.4701868
 21
374.0
 31
0.0
  0
LINE
  5
B63
330
6F
100
AcDbEntity
  8
top_outsideCutPath
100
AcDbLine
 10
56.4701868
 20
374.0
 30
0.0
 11
56.4701868
 21
377.0
 31
0.0
  0
LINE
  5
B64
330
6F
100
AcDbEntity
  8
top_outsideCutPath
100
AcDbLine
 10
56.4701868
 20
377.0
 30
0.0
 11
66.0663322
 21
377.0
 31
0.0
  0
LINE
  5
BE5
330
6F
100
AcDbEntity
  8
bottom_outsideCutPath
100
AcDbLine
 10
170.0067057
 20
377.0
 30
0.0
 11
177.7701504
 21
371.3595272
 31
0.0
  0
LINE
  5
BE6
330
6F
100
AcDbEntity
  8
bottom_outsideCutPath
100
AcDbLine
 10
177.7701504
 20
371.3595272
 30
0.0
 11
176.0067947
 21
368.9324763
 31
0.0
  0
LINE
  5
BE7
330
6F
100
AcDbEntity
  8
bottom_outsideCutPath
100
AcDbLine
 10
176.0067947
 20
368.9324763
 30
0.0
 11
185.7149986
 21
361.8790532
 31
0.0
  0
LINE
  5
BE8
330
6F
100
AcDbEntity
  8
bottom_outsideCutPath
100
AcDbLine
 10
185.7149986
 20
361.8790532
 30
0.0
 11
187.4783544
 21
364.3061042
 31
0.0
  0
LINE
  5
BE9
330
6F
100
AcDbEntity
  8
bottom_outsideCutPath
100
AcDbLine
 10
187.4783544
 20
364.3061042
 30
0.0
 11
195.2417991
 21
358.6656315
 31
0.0
  0
LINE
  5
BEA
330
6F
100
AcDbEntity
  8
bottom_outsideCutPath
100
AcDbLine
 10
195.2417991
 20
358.6656315
 30
0.0
 11
198.2071711
 21
349.5391548
 31
0.0
  0
LINE
  5
BEB
330
6F
100
AcDbEntity
  8
bottom_outsideCutPath
100
AcDbLine
 10
198.2071711
 20
349.5391548
 30
0.0
 11
195.3540016
 21
348.6121038
 31
0.0
  0
LINE
  5
BEC
330
6F
100
AcDbEntity
  8
bottom_outsideCutPath
100
AcDbLine
 10
195.3540016
 20
348.6121038
 30
0.0
 11
199.0622055
 21
337.1994256
 31
0.0
  0
LINE
  5
BED
330
6F
100
AcDbEntity
  8
bottom_outsideCutPath
100
AcDbLine
 10
199.0622055
 20
337.1994256
 30
0.0
 11
201.915375
 21
338.1264766000001
 31
0.0
  0
LINE
  5
BEE
330
6F
100
AcDbEntity
  8
bottom_outsideCutPath
100
AcDbLine
 10
201.915375
 20
338.1264766000001
 30
0.0
 11
204.8807471
 21
329.0
 31
0.0
  0
LINE
  5
BEF
330
6F
100
AcDbEntity
  8
bottom_outsideCutPath
100
AcDbLine
 10
204.8807471
 20
329.0
 30
0.0
 11
201.915375
 21
319.8735233999999
 31
0.0
  0
LINE
  5
BF0
330
6F
100
AcDbEntity
  8
bottom_outsideCutPath
100
AcDbLine
 10
201.915375
 20
319.8735233999999
 30
0.0
 11
199.0622055
 21
320.8005744
 31
0.0
  0
LINE
  5
BF1
330
6F
100
AcDbEntity
  8
bottom_outsideCutPath
100
AcDbLine
 10
199.0622055
 20
320.8005744
 30
0.0
 11
195.3540016
 21
309.3878962
 31
0.0
  0
LINE
  5
BF2
330
6F
100
AcDbEntity
  8
bottom_outsideCutPath
100
AcDbLine
 10
195.3540016
 20
309.3878962
 30
0.0
 11
198.2071711
 21
308.4608452
 31
0.0
  0
LINE
  5
BF3
330
6F
100
AcDbEntity
  8
bottom_outsideCutPath
100
AcDbLine
 10
198.2071711
 20
308.4608452
 30
0.0
 11
195.2417991
 21
299.3343685
 31
0.0
  0
LINE
  5
BF4
330
6F
100
AcDbEntity
  8
bottom_outsideCutPath
100
AcDbLine
 10
195.2417991
 20
299.3343685
 30
0.0
 11
187.4783544
 21
293.6938958
 31
0.0
  0
LINE
  5
BF5
330
6F
100
AcDbEntity
  8
bottom_outsideCutPath
100
AcDbLine
 10
187.4783544
 20
293.6938958
 30
0.0
 11
185.7149986
 21
296.1209468
 31
0.0
  0
LINE
  5
BF6
330
6F
100
AcDbEntity
  8
bottom_outsideCutPath
100
AcDbLine
 10
185.7149986
 20
296.1209468
 30
0.0
 11
176.0067947
 21
289.0675237
 31
0.0
  0
LINE
  5
BF7
330
6F
100
AcDbEntity
  8
bottom_outsideCutPath
100
AcDbLine
 10
176.0067947
 20
289.0675237
 30
0.0
 11
177.7701504
 21
286.6404728
 31
0.0
  0
LINE
  5
BF8
330
6F
100
AcDbEntity
  8
bottom_outsideCutPath
100
AcDbLine
 10
177.7701504
 20
286.6404728
 30
0.0
 11
170.0067057
 21
281.0
 31
0.0
  0
LINE
  5
BF9
330
6F
100
AcDbEntity
  8
bottom_outsideCutPath
100
AcDbLine
 10
170.0067057
 20
281.0
 30
0.0
 11
160.4105603
 21
281.0
 31
0.0
  0
LINE
  5
BFA
330
6F
100
AcDbEntity
  8
bottom_outsideCutPath
100
AcDbLine
 10
160.4105603
 20
281.0
 30
0.0
 11
160.4105603
 21
284.0
 31
0.0
  0
LINE
  5
BFB
330
6F
100
AcDbEntity
  8
bottom_outsideCutPath
100
AcDbLine
 10
160.4105603
 20
284.0
 30
0.0
 11
148.4105603
 21
284.0
 31
0.0
  0
LINE
  5
BFC
330
6F
100
AcDbEntity
  8
bottom_outsideCutPath
100
AcDbLine
 10
148.4105603
 20
284.0
 30
0.0
 11
148.4105603
 21
281.0
 31
0.0
  0
LINE
  5
BFD
330
6F
100
AcDbEntity
  8
bottom_outsideCutPath
100
AcDbLine
 10
148.4105603
 20
281.0
 30
0.0
 11
138.8144149
 21
281.0
 31
0.0
  0
LINE
  5
BFE
330
6F
100
AcDbEntity
  8
bottom_outsideCutPath
100
AcDbLine
 10
138.8144149
 20
281.0
 30
0.0
 11
131.0509701
 21
286.6404728
 31
0.0
  0
LINE
  5
BFF
330
6F
100
AcDbEntity
  8
bottom_outsideCutPath
100
AcDbLine
 10
131.0509701
 20
286.6404728
 30
0.0
 11
132.8143259
 21
289.0675237
 31
0.0
  0
LINE
  5
C00
330
6F
100
AcDbEntity
  8
bottom_outsideCutPath
100
AcDbLine
 10
132.8143259
 20
289.0675237
 30
0.0
 11
123.106122
 21
296.1209468
 31
0.0
  0
LINE
  5
C01
330
6F
100
AcDbEntity
  8
bottom_outsideCutPath
100
AcDbLine
 10
123.106122
 20
296.1209468
 30
0.0
 11
121.3427662
 21
293.6938958
 31
0.0
  0
LINE
  5
C02
330
6F
100
AcDbEntity
  8
bottom_outsideCutPath
100
AcDbLine
 10
121.3427662
 20
293.6938958
 30
0.0
 11
113.5793215
 21
299.3343685
 31
0.0
  0
LINE
  5
C03
330
6F
100
AcDbEntity
  8
bottom_outsideCutPath
100
AcDbLine
 10
113.5793215
 20
299.3343685
 30
0.0
 11
110.6139495
 21
308.4608452
 31
0.0
  0
LINE
  5
C04
330
6F
100
AcDbEntity
  8
bottom_outsideCutPath
100
AcDbLine
 10
110.6139495
 20
308.4608452
 30
0.0
 11
113.467119
 21
309.3878962
 31
0.0
  0
LINE
  5
C05
330
6F
100
AcDbEntity
  8
bottom_outsideCutPath
100
AcDbLine
 10
113.467119
 20
309.3878962
 30
0.0
 11
109.7589150999999
 21
320.8005744
 31
0.0
  0
LINE
  5
C06
330
6F
100
AcDbEntity
  8
bottom_outsideCutPath
100
AcDbLine
 10
109.7589150999999
 20
320.8005744
 30
0.0
 11
106.9057455
 21
319.8735233999999
 31
0.0
  0
LINE
  5
C07
330
6F
100
AcDbEntity
  8
bottom_outsideCutPath
100
AcDbLine
 10
106.9057455
 20
319.8735233999999
 30
0.0
 11
103.9403735
 21
329.0
 31
0.0
  0
LINE
  5
C08
330
6F
100
AcDbEntity
  8
bottom_outsideCutPath
100
AcDbLine
 10
103.9403735
 20
329.0
 30
0.0
 11
106.9057455
 21
338.1264766000001
 31
0.0
  0
LINE
  5
C09
330
6F
100
AcDbEntity
  8
bottom_outsideCutPath
100
AcDbLine
 10
106.9057455
 20
338.1264766000001
 30
0.0
 11
109.7589150999999
 21
337.1994256
 31
0.0
  0
LINE
  5
C0A
330
6F
100
AcDbEntity
  8
bottom_outsideCutPath
100
AcDbLine
 10
109.7589150999999
 20
337.1994256
 30
0.0
 11
113.467119
 21
348.6121038
 31
0.0
  0
LINE
  5
C0B
330
6F
100
AcDbEntity
  8
bottom_outsideCutPath
100
AcDbLine
 10
113.467119
 20
348.6121038
 30
0.0
 11
110.6139495
 21
349.5391548
 31
0.0
  0
LINE
  5
C0C
330
6F
100
AcDbEntity
  8
bottom_outsideCutPath
100
AcDbLine
 10
110.6139495
 20
349.5391548
 30
0.0
 11
113.5793215
 21
358.6656315
 31
0.0
  0
LINE
  5
C0D
330
6F
100
AcDbEntity
  8
bottom_outsideCutPath
100
AcDbLine
 10
113.5793215
 20
358.6656315
 30
0.0
 11
121.3427662
 21
364.3061042
 31
0.0
  0
LINE
  5
C0E
330
6F
100
AcDbEntity
  8
bottom_outsideCutPath
100
AcDbLine
 10
121.3427662
 20
364.3061042
 30
0.0
 11
123.106122
 21
361.8790532
 31
0.0
  0
LINE
  5
C0F
330
6F
100
AcDbEntity
  8
bottom_outsideCutPath
100
AcDbLine
 10
123.106122
 20
361.8790532
 30
0.0
 11
132.8143259
 21
368.9324763
 31
0.0
  0
LINE
  5
C10
330
6F
100
AcDbEntity
  8
bottom_outsideCutPath
100
AcDbLine
 10
132.8143259
 20
368.9324763
 30
0.0
 11
131.0509701
 21
371.3595272
 31
0.0
  0
LINE
  5
C11
330
6F
100
AcDbEntity
  8
bottom_outsideCutPath
100
AcDbLine
 10
131.0509701
 20
371.3595272
 30
0.0
 11
138.8144149
 21
377.0
 31
0.0
  0
LINE
  5
C12
330
6F
100
AcDbEntity
  8
bottom_outsideCutPath
100
AcDbLine
 10
138.8144149
 20
377.0
 30
0.0
 11
148.4105603
 21
377.0
 31
0.0
  0
LINE
  5
C13
330
6F
100
AcDbEntity
  8
bottom_outsideCutPath
100
AcDbLine
 10
148.4105603
 20
377.0
 30
0.0
 11
148.4105603
 21
374.0
 31
0.0
  0
LINE
  5
C14
330
6F
100
AcDbEntity
  8
bottom_outsideCutPath
100
AcDbLine
 10
148.4105603
 20
374.0
 30
0.0
 11
160.4105603
 21
374.0
 31
0.0
  0
LINE
  5
C15
330
6F
100
AcDbEntity
  8
bottom_outsideCutPath
100
AcDbLine
 10
160.4105603
 20
374.0
 30
0.0
 11
160.4105603
 21
377.0
 31
0.0
  0
LINE
  5
C16
330
6F
100
AcDbEntity
  8
bottom_outsideCutPath
100
AcDbLine
 10
160.4105603
 20
377.0
 30
0.0
 11
170.0067057
 21
377.0
 31
0.0
  0
CIRCLE
  5
D24
330
6F
100
AcDbEntity
  8
0
  6
Continuous
100
AcDbCircle
 10
154.4105603
 20
329.0
 30
0.0
 40
15.5
  0
ENDSEC
  0
SECTION
  2
OBJECTS
  0
DICTIONARY
  5
C
330
0
100
AcDbDictionary
281
     1
  3
ACAD_CIP_PREVIOUS_PRODUCT_INFO
350
D16
  3
ACAD_COLOR
350
62
  3
ACAD_DETAILVIEWSTYLE
350
69
  3
ACAD_GROUP
350
D
  3
ACAD_LAYOUT
350
61
  3
ACAD_MATERIAL
350
10
  3
ACAD_MLEADERSTYLE
350
65
  3
ACAD_MLINESTYLE
350
5E
  3
ACAD_PLOTSETTINGS
350
60
  3
ACAD_PLOTSTYLENAME
350
E
  3
ACAD_SCALELIST
350
42
  3
ACAD_SECTIONVIEWSTYLE
350
67
  3
ACAD_TABLESTYLE
350
63
  3
ACAD_VISUALSTYLE
350
29
  3
ACDB_RECOMPOSE_DATA
350
D6A
  3
AcDbVariableDictionary
350
D57
  0
DICTIONARY
  5
D25
330
54
100
AcDbDictionary
280
     1
281
     1
  3
ADSK_XREC_LAYER_RECONCILED
360
D26
  0
DICTIONARY
  5
D27
330
75
100
AcDbDictionary
280
     1
281
     1
  3
ADSK_XREC_LAYER_RECONCILED
360
D28
  0
DICTIONARY
  5
D29
330
AA
100
AcDbDictionary
280
     1
281
     1
  3
ADSK_XREC_LAYER_RECONCILED
360
D2A
  0
DICTIONARY
  5
D2B
330
16E
100
AcDbDictionary
280
     1
281
     1
  3
ADSK_XREC_LAYER_RECONCILED
360
D2C
  0
DICTIONARY
  5
D2D
330
1A3
100
AcDbDictionary
280
     1
281
     1
  3
ADSK_XREC_LAYER_RECONCILED
360
D2E
  0
DICTIONARY
  5
D2F
330
290
100
AcDbDictionary
280
     1
281
     1
  3
ADSK_XREC_LAYER_RECONCILED
360
D30
  0
DICTIONARY
  5
D31
330
2C5
100
AcDbDictionary
280
     1
281
     1
  3
ADSK_XREC_LAYER_RECONCILED
360
D32
  0
DICTIONARY
  5
D33
330
3A0
100
AcDbDictionary
280
     1
281
     1
  3
ADSK_XREC_LAYER_RECONCILED
360
D34
  0
DICTIONARY
  5
D35
330
3D5
100
AcDbDictionary
280
     1
281
     1
  3
ADSK_XREC_LAYER_RECONCILED
360
D36
  0
DICTIONARY
  5
D37
330
48F
100
AcDbDictionary
280
     1
281
     1
  3
ADSK_XREC_LAYER_RECONCILED
360
D38
  0
DICTIONARY
  5
D39
330
4C4
100
AcDbDictionary
280
     1
281
     1
  3
ADSK_XREC_LAYER_RECONCILED
360
D3A
  0
DICTIONARY
  5
D3B
330
5B2
100
AcDbDictionary
280
     1
281
     1
  3
ADSK_XREC_LAYER_RECONCILED
360
D3C
  0
DICTIONARY
  5
D3D
330
5E7
100
AcDbDictionary
280
     1
281
     1
  3
ADSK_XREC_LAYER_RECONCILED
360
D3E
  0
DICTIONARY
  5
D3F
330
6CF
100
AcDbDictionary
280
     1
281
     1
  3
ADSK_XREC_LAYER_RECONCILED
360
D40
  0
DICTIONARY
  5
D41
330
704
100
AcDbDictionary
280
     1
281
     1
  3
ADSK_XREC_LAYER_RECONCILED
360
D42
  0
DICTIONARY
  5
D43
330
7DE
100
AcDbDictionary
280
     1
281
     1
  3
ADSK_XREC_LAYER_RECONCILED
360
D44
  0
DICTIONARY
  5
D45
330
813
100
AcDbDictionary
280
     1
281
     1
  3
ADSK_XREC_LAYER_RECONCILED
360
D46
  0
DICTIONARY
  5
D47
330
8DB
100
AcDbDictionary
280
     1
281
     1
  3
ADSK_XREC_LAYER_RECONCILED
360
D48
  0
DICTIONARY
  5
D49
330
910
100
AcDbDictionary
280
     1
281
     1
  3
ADSK_XREC_LAYER_RECONCILED
360
D4A
  0
DICTIONARY
  5
D4B
330
9FD
100
AcDbDictionary
280
     1
281
     1
  3
ADSK_XREC_LAYER_RECONCILED
360
D4C
  0
DICTIONARY
  5
D4D
330
A32
100
AcDbDictionary
280
     1
281
     1
  3
ADSK_XREC_LAYER_RECONCILED
360
D4E
  0
DICTIONARY
  5
D4F
330
B32
100
AcDbDictionary
280
     1
281
     1
  3
ADSK_XREC_LAYER_RECONCILED
360
D50
  0
DICTIONARY
  5
D51
330
B65
100
AcDbDictionary
280
     1
281
     1
  3
ADSK_XREC_LAYER_RECONCILED
360
D52
  0
DICTIONARY
  5
D53
330
BE4
100
AcDbDictionary
280
     1
281
     1
  3
ADSK_XREC_LAYER_RECONCILED
360
D54
  0
DICTIONARY
  5
D55
330
C17
100
AcDbDictionary
280
     1
281
     1
  3
ADSK_XREC_LAYER_RECONCILED
360
D56
  0
XRECORD
  5
D16
102
{ACAD_REACTORS
330
C
102
}
330
C
100
AcDbXrecord
280
     1
300
ACD
300
2021
300

  0
DICTIONARY
  5
62
102
{ACAD_REACTORS
330
C
102
}
330
C
100
AcDbDictionary
281
     1
  0
DICTIONARY
  5
69
102
{ACAD_REACTORS
330
C
102
}
330
C
100
AcDbDictionary
281
     1
  3
Imperial24
350
6A
  0
DICTIONARY
  5
D
102
{ACAD_REACTORS
330
C
102
}
330
C
100
AcDbDictionary
281
     1
  0
DICTIONARY
  5
61
102
{ACAD_REACTORS
330
C
102
}
330
C
100
AcDbDictionary
281
     1
  3
Model
350
72
  3
1
350
6E
  0
DICTIONARY
  5
10
102
{ACAD_REACTORS
330
C
102
}
330
C
100
AcDbDictionary
281
     1
  3
ByBlock
350
19
  3
ByLayer
350
11
  3
Global
350
21
  0
DICTIONARY
  5
65
102
{ACAD_REACTORS
330
C
102
}
330
C
100
AcDbDictionary
281
     1
  3
Standard
350
66
  0
DICTIONARY
  5
5E
102
{ACAD_REACTORS
330
C
102
}
330
C
100
AcDbDictionary
281
     1
  3
Standard
350
5F
  0
DICTIONARY
  5
60
102
{ACAD_REACTORS
330
C
102
}
330
C
100
AcDbDictionary
281
     1
  0
ACDBDICTIONARYWDFLT
  5
E
102
{ACAD_REACTORS
330
C
102
}
330
C
100
AcDbDictionary
281
     1
  3
Normal
350
F
100
AcDbDictionaryWithDefault
340
F
  0
DICTIONARY
  5
42
102
{ACAD_REACTORS
330
C
102
}
330
C
100
AcDbDictionary
281
     1
  3
A0
350
43
  3
A1
350
44
  3
A2
350
45
  3
A3
350
46
  3
A4
350
47
  3
A5
350
48
  3
A6
350
49
  3
A7
350
4A
  3
A8
350
4B
  3
A9
350
4C
  3
B0
350
4D
  3
B1
350
4E
  3
B2
350
4F
  3
B3
350
50
  3
B4
350
51
  3
B5
350
52
  3
B6
350
53
  0
DICTIONARY
  5
67
102
{ACAD_REACTORS
330
C
102
}
330
C
100
AcDbDictionary
281
     1
  3
Imperial24
350
68
  0
DICTIONARY
  5
63
102
{ACAD_REACTORS
330
C
102
}
330
C
100
AcDbDictionary
281
     1
  3
Standard
350
64
  0
DICTIONARY
  5
29
102
{ACAD_REACTORS
330
C
102
}
330
C
100
AcDbDictionary
281
     1
  3
2dWireframe
350
2F
  3
Basic
350
2E
  3
Brighten
350
35
  3
ColorChange
350
39
  3
Conceptual
350
32
  3
Dim
350
34
  3
EdgeColorOff
350
41
  3
Facepattern
350
38
  3
Flat
350
2A
  3
FlatWithEdges
350
2B
  3
Gouraud
350
2C
  3
GouraudWithEdges
350
2D
  3
Hidden
350
31
  3
JitterOff
350
3F
  3
Linepattern
350
37
  3
OverhangOff
350
40
  3
Realistic
350
33
  3
Shaded
350
3E
  3
Shaded with edges
350
3D
  3
Shades of Gray
350
3A
  3
Sketchy
350
3B
  3
Thicken
350
36
  3
Wireframe
350
30
  3
X-Ray
350
3C
  0
XRECORD
  5
D6A
102
{ACAD_REACTORS
330
C
102
}
330
C
100
AcDbXrecord
280
     1
 90
        1
330
64
  0
DICTIONARY
  5
D57
102
{ACAD_REACTORS
330
C
102
}
330
C
100
AcDbDictionary
281
     1
  3
CANNOSCALE
350
D5D
  3
CMLEADERSTYLE
350
D59
  3
CTABLESTYLE
350
D58
  3
CVIEWDETAILSTYLE
350
D5A
  3
CVIEWSECTIONSTYLE
350
D5B
  3
LAYEREVAL
350
D5F
  3
LAYERNOTIFY
350
D60
  3
LIGHTINGUNITS
350
D5E
  3
MSLTSCALE
350
D5C
  0
XRECORD
  5
D26
102
{ACAD_REACTORS
330
D25
102
}
330
D25
100
AcDbXrecord
280
     1
290
     1
  0
XRECORD
  5
D28
102
{ACAD_REACTORS
330
D27
102
}
330
D27
100
AcDbXrecord
280
     1
290
     1
  0
XRECORD
  5
D2A
102
{ACAD_REACTORS
330
D29
102
}
330
D29
100
AcDbXrecord
280
     1
290
     1
  0
XRECORD
  5
D2C
102
{ACAD_REACTORS
330
D2B
102
}
330
D2B
100
AcDbXrecord
280
     1
290
     1
  0
XRECORD
  5
D2E
102
{ACAD_REACTORS
330
D2D
102
}
330
D2D
100
AcDbXrecord
280
     1
290
     1
  0
XRECORD
  5
D30
102
{ACAD_REACTORS
330
D2F
102
}
330
D2F
100
AcDbXrecord
280
     1
290
     1
  0
XRECORD
  5
D32
102
{ACAD_REACTORS
330
D31
102
}
330
D31
100
AcDbXrecord
280
     1
290
     1
  0
XRECORD
  5
D34
102
{ACAD_REACTORS
330
D33
102
}
330
D33
100
AcDbXrecord
280
     1
290
     1
  0
XRECORD
  5
D36
102
{ACAD_REACTORS
330
D35
102
}
330
D35
100
AcDbXrecord
280
     1
290
     1
  0
XRECORD
  5
D38
102
{ACAD_REACTORS
330
D37
102
}
330
D37
100
AcDbXrecord
280
     1
290
     1
  0
XRECORD
  5
D3A
102
{ACAD_REACTORS
330
D39
102
}
330
D39
100
AcDbXrecord
280
     1
290
     1
  0
XRECORD
  5
D3C
102
{ACAD_REACTORS
330
D3B
102
}
330
D3B
100
AcDbXrecord
280
     1
290
     1
  0
XRECORD
  5
D3E
102
{ACAD_REACTORS
330
D3D
102
}
330
D3D
100
AcDbXrecord
280
     1
290
     1
  0
XRECORD
  5
D40
102
{ACAD_REACTORS
330
D3F
102
}
330
D3F
100
AcDbXrecord
280
     1
290
     1
  0
XRECORD
  5
D42
102
{ACAD_REACTORS
330
D41
102
}
330
D41
100
AcDbXrecord
280
     1
290
     1
  0
XRECORD
  5
D44
102
{ACAD_REACTORS
330
D43
102
}
330
D43
100
AcDbXrecord
280
     1
290
     1
  0
XRECORD
  5
D46
102
{ACAD_REACTORS
330
D45
102
}
330
D45
100
AcDbXrecord
280
     1
290
     1
  0
XRECORD
  5
D48
102
{ACAD_REACTORS
330
D47
102
}
330
D47
100
AcDbXrecord
280
     1
290
     1
  0
XRECORD
  5
D4A
102
{ACAD_REACTORS
330
D49
102
}
330
D49
100
AcDbXrecord
280
     1
290
     1
  0
XRECORD
  5
D4C
102
{ACAD_REACTORS
330
D4B
102
}
330
D4B
100
AcDbXrecord
280
     1
290
     1
  0
XRECORD
  5
D4E
102
{ACAD_REACTORS
330
D4D
102
}
330
D4D
100
AcDbXrecord
280
     1
290
     1
  0
XRECORD
  5
D50
102
{ACAD_REACTORS
330
D4F
102
}
330
D4F
100
AcDbXrecord
280
     1
290
     1
  0
XRECORD
  5
D52
102
{ACAD_REACTORS
330
D51
102
}
330
D51
100
AcDbXrecord
280
     1
290
     1
  0
XRECORD
  5
D54
102
{ACAD_REACTORS
330
D53
102
}
330
D53
100
AcDbXrecord
280
     1
290
     1
  0
XRECORD
  5
D56
102
{ACAD_REACTORS
330
D55
102
}
330
D55
100
AcDbXrecord
280
     1
290
     1
  0
ACDBDETAILVIEWSTYLE
  5
6A
102
{ACAD_REACTORS
330
69
102
}
330
69
100
AcDbModelDocViewStyle
 70
     0
  3
Imperial24
290
     0
300
Imperial24
 90
        0
100
AcDbDetailViewStyle
 70
     0
 71
     0
 90
        3
 71
     1
340
55
 62
   256
 40
0.24
340
0
 62
   256
 40
0.24
300

 40
0.36
280
     3
 71
     2
340
5C
 90
       25
 62
   256
 71
     3
340
55
 62
   256
 40
0.24
 90
        1
 40
0.75
 90
        1
300
%<\AcVar ViewType \f "%tc1">% %<\AcVar ViewDetailId>%\PSCALE %<\AcVar ViewScale \f "%sn">%
 71
     4
340
5C
 90
       25
 62
   256
340
5C
 90
       25
 62
   256
280
     0
  0
LAYOUT
  5
72
102
{ACAD_XDICTIONARY
360
D65
102
}
102
{ACAD_REACTORS
330
61
102
}
330
61
100
AcDbPlotSettings
  1

  2
Panasonic KX-MB2138CN
  4

  6

 40
0.0
 41
0.0
 42
0.0
 43
0.0
 44
0.0
 45
0.0
 46
0.0
 47
0.0
 48
0.0
 49
0.0
140
0.0
141
0.0
142
1.0
143
1.0
 70
  1712
 72
     0
 73
     0
 74
     0
  7

 75
     0
147
1.0
 76
     0
 77
     2
 78
   300
148
0.0
149
0.0
100
AcDbLayout
  1
Model
 70
     1
 71
     0
 10
0.0
 20
0.0
 11
12.0
 21
9.0
 12
0.0
 22
0.0
 32
0.0
 14
0.0
 24
0.0
 34
0.0
 15
0.0
 25
0.0
 35
0.0
146
0.0
 13
0.0
 23
0.0
 33
0.0
 16
1.0
 26
0.0
 36
0.0
 17
0.0
 27
1.0
 37
0.0
 76
     0
330
6F
331
74
  0
LAYOUT
  5
6E
102
{ACAD_REACTORS
330
61
102
}
330
61
100
AcDbPlotSettings
  1

  2
Panasonic KX-MB2138CN
  4

  6

 40
0.0
 41
0.0
 42
0.0
 43
0.0
 44
0.0
 45
0.0
 46
0.0
 47
0.0
 48
0.0
 49
0.0
140
0.0
141
0.0
142
1.0
143
1.0
 70
   688
 72
     0
 73
     0
 74
     5
  7

 75
    16
147
1.0
 76
     0
 77
     2
 78
   300
148
0.0
149
0.0
100
AcDbLayout
  1
1
 70
     1
 71
     1
 10
0.0
 20
0.0
 11
12.0
 21
9.0
 12
0.0
 22
0.0
 32
0.0
 14
1.000000000000000E+20
 24
1.000000000000000E+20
 34
1.000000000000000E+20
 15
-1.000000000000000E+20
 25
-1.000000000000000E+20
 35
-1.000000000000000E+20
146
0.0
 13
0.0
 23
0.0
 33
0.0
 16
1.0
 26
0.0
 36
0.0
 17
0.0
 27
1.0
 37
0.0
 76
     0
330
6B
  0
MATERIAL
  5
19
102
{ACAD_XDICTIONARY
360
1A
102
}
102
{ACAD_REACTORS
330
10
102
}
330
10
100
AcDbMaterial
  1
ByBlock
 72
     0
 43
0.0208333333333333
 43
0.0
 43
0.0
 43
0.0
 43
0.0
 43
0.0208333333333333
 43
0.0
 43
0.0
 43
0.0
 43
0.0
 43
1.0
 43
0.0
 43
0.0
 43
0.0
 43
0.0
 43
1.0
 77
     0
 47
0.0208333333333333
 47
0.0
 47
0.0
 47
0.0
 47
0.0
 47
0.0208333333333333
 47
0.0
 47
0.0
 47
0.0
 47
0.0
 47
1.0
 47
0.0
 47
0.0
 47
0.0
 47
0.0
 47
1.0
171
     0
 49
0.0208333333333333
 49
0.0
 49
0.0
 49
0.0
 49
0.0
 49
0.0208333333333333
 49
0.0
 49
0.0
 49
0.0
 49
0.0
 49
1.0
 49
0.0
 49
0.0
 49
0.0
 49
0.0
 49
1.0
175
     0
142
0.0208333333333333
142
0.0
142
0.0
142
0.0
142
0.0
142
0.0208333333333333
142
0.0
142
0.0
142
0.0
142
0.0
142
1.0
142
0.0
142
0.0
142
0.0
142
0.0
142
1.0
179
     0
144
0.0208333333333333
144
0.0
144
0.0
144
0.0
144
0.0
144
0.0208333333333333
144
0.0
144
0.0
144
0.0
144
0.0
144
1.0
144
0.0
144
0.0
144
0.0
144
0.0
144
1.0
147
0.0208333333333333
147
0.0
147
0.0
147
0.0
147
0.0
147
0.0208333333333333
147
0.0
147
0.0
147
0.0
147
0.0
147
1.0
147
0.0
147
0.0
147
0.0
147
0.0
147
1.0
  0
MATERIAL
  5
11
102
{ACAD_XDICTIONARY
360
12
102
}
102
{ACAD_REACTORS
330
10
102
}
330
10
100
AcDbMaterial
  1
ByLayer
 72
     0
 43
0.0208333333333333
 43
0.0
 43
0.0
 43
0.0
 43
0.0
 43
0.0208333333333333
 43
0.0
 43
0.0
 43
0.0
 43
0.0
 43
1.0
 43
0.0
 43
0.0
 43
0.0
 43
0.0
 43
1.0
 77
     0
 47
0.0208333333333333
 47
0.0
 47
0.0
 47
0.0
 47
0.0
 47
0.0208333333333333
 47
0.0
 47
0.0
 47
0.0
 47
0.0
 47
1.0
 47
0.0
 47
0.0
 47
0.0
 47
0.0
 47
1.0
171
     0
 49
0.0208333333333333
 49
0.0
 49
0.0
 49
0.0
 49
0.0
 49
0.0208333333333333
 49
0.0
 49
0.0
 49
0.0
 49
0.0
 49
1.0
 49
0.0
 49
0.0
 49
0.0
 49
0.0
 49
1.0
175
     0
142
0.0208333333333333
142
0.0
142
0.0
142
0.0
142
0.0
142
0.0208333333333333
142
0.0
142
0.0
142
0.0
142
0.0
142
1.0
142
0.0
142
0.0
142
0.0
142
0.0
142
1.0
179
     0
144
0.0208333333333333
144
0.0
144
0.0
144
0.0
144
0.0
144
0.0208333333333333
144
0.0
144
0.0
144
0.0
144
0.0
144
1.0
144
0.0
144
0.0
144
0.0
144
0.0
144
1.0
147
0.0208333333333333
147
0.0
147
0.0
147
0.0
147
0.0
147
0.0208333333333333
147
0.0
147
0.0
147
0.0
147
0.0
147
1.0
147
0.0
147
0.0
147
0.0
147
0.0
147
1.0
  0
MATERIAL
  5
21
102
{ACAD_XDICTIONARY
360
22
102
}
102
{ACAD_REACTORS
330
10
102
}
330
10
100
AcDbMaterial
  1
Global
 72
     0
 43
0.0208333333333333
 43
0.0
 43
0.0
 43
0.0
 43
0.0
 43
0.0208333333333333
 43
0.0
 43
0.0
 43
0.0
 43
0.0
 43
1.0
 43
0.0
 43
0.0
 43
0.0
 43
0.0
 43
1.0
 77
     0
 47
0.0208333333333333
 47
0.0
 47
0.0
 47
0.0
 47
0.0
 47
0.0208333333333333
 47
0.0
 47
0.0
 47
0.0
 47
0.0
 47
1.0
 47
0.0
 47
0.0
 47
0.0
 47
0.0
 47
1.0
171
     0
 49
0.0208333333333333
 49
0.0
 49
0.0
 49
0.0
 49
0.0
 49
0.0208333333333333
 49
0.0
 49
0.0
 49
0.0
 49
0.0
 49
1.0
 49
0.0
 49
0.0
 49
0.0
 49
0.0
 49
1.0
175
     0
142
0.0208333333333333
142
0.0
142
0.0
142
0.0
142
0.0
142
0.0208333333333333
142
0.0
142
0.0
142
0.0
142
0.0
142
1.0
142
0.0
142
0.0
142
0.0
142
0.0
142
1.0
179
     0
144
0.0208333333333333
144
0.0
144
0.0
144
0.0
144
0.0
144
0.0208333333333333
144
0.0
144
0.0
144
0.0
144
0.0
144
1.0
144
0.0
144
0.0
144
0.0
144
0.0
144
1.0
147
0.0208333333333333
147
0.0
147
0.0
147
0.0
147
0.0
147
0.0208333333333333
147
0.0
147
0.0
147
0.0
147
0.0
147
1.0
147
0.0
147
0.0
147
0.0
147
0.0
147
1.0
  0
MLEADERSTYLE
  5
66
102
{ACAD_REACTORS
330
65
102
}
330
65
100
AcDbMLeaderStyle
179
     2
170
     2
171
     1
172
     0
 90
        2
 40
0.0
 41
0.0
173
     1
 91
-1056964608
340
5A
 92
       -2
290
     1
 42
0.09
291
     1
 43
0.36
  3
Standard
 44
0.18
300

342
55
174
     1
178
     6
175
     1
176
     0
 93
-1056964608
 45
0.18
292
     0
297
     0
 46
0.18
 94
-1056964608
 47
1.0
 49
1.0
140
1.0
293
     1
141
0.0
294
     1
177
     0
142
1.0
295
     0
296
     0
143
0.125
271
     0
272
     9
273
     9
298
     0
  0
MLINESTYLE
  5
5F
102
{ACAD_REACTORS
330
5E
102
}
330
5E
100
AcDbMlineStyle
  2
STANDARD
 70
     0
  3

 62
   256
 51
90.0
 52
90.0
 71
     2
 49
0.5
 62
   256
  6
BYLAYER
 49
-0.5
 62
   256
  6
BYLAYER
  0
ACDBPLACEHOLDER
  5
F
102
{ACAD_REACTORS
330
E
102
}
330
E
  0
SCALE
  5
43
102
{ACAD_REACTORS
330
42
102
}
330
42
100
AcDbScale
 70
     0
300
1:1
140
1.0
141
1.0
290
     1
  0
SCALE
  5
44
102
{ACAD_REACTORS
330
42
102
}
330
42
100
AcDbScale
 70
     0
300
1/128" = 1'-0"
140
0.0078125
141
12.0
290
     0
  0
SCALE
  5
45
102
{ACAD_REACTORS
330
42
102
}
330
42
100
AcDbScale
 70
     0
300
1/64" = 1'-0"
140
0.015625
141
12.0
290
     0
  0
SCALE
  5
46
102
{ACAD_REACTORS
330
42
102
}
330
42
100
AcDbScale
 70
     0
300
1/32" = 1'-0"
140
0.03125
141
12.0
290
     0
  0
SCALE
  5
47
102
{ACAD_REACTORS
330
42
102
}
330
42
100
AcDbScale
 70
     0
300
1/16" = 1'-0"
140
0.0625
141
12.0
290
     0
  0
SCALE
  5
48
102
{ACAD_REACTORS
330
42
102
}
330
42
100
AcDbScale
 70
     0
300
3/32" = 1'-0"
140
0.09375
141
12.0
290
     0
  0
SCALE
  5
49
102
{ACAD_REACTORS
330
42
102
}
330
42
100
AcDbScale
 70
     0
300
1/8" = 1'-0"
140
0.125
141
12.0
290
     0
  0
SCALE
  5
4A
102
{ACAD_REACTORS
330
42
102
}
330
42
100
AcDbScale
 70
     0
300
3/16" = 1'-0"
140
0.1875
141
12.0
290
     0
  0
SCALE
  5
4B
102
{ACAD_REACTORS
330
42
102
}
330
42
100
AcDbScale
 70
     0
300
1/4" = 1'-0"
140
0.25
141
12.0
290
     0
  0
SCALE
  5
4C
102
{ACAD_REACTORS
330
42
102
}
330
42
100
AcDbScale
 70
     0
300
3/8" = 1'-0"
140
0.375
141
12.0
290
     0
  0
SCALE
  5
4D
102
{ACAD_REACTORS
330
42
102
}
330
42
100
AcDbScale
 70
     0
300
1/2" = 1'-0"
140
0.5
141
12.0
290
     0
  0
SCALE
  5
4E
102
{ACAD_REACTORS
330
42
102
}
330
42
100
AcDbScale
 70
     0
300
3/4" = 1'-0"
140
0.75
141
12.0
290
     0
  0
SCALE
  5
4F
102
{ACAD_REACTORS
330
42
102
}
330
42
100
AcDbScale
 70
     0
300
1" = 1'-0"
140
1.0
141
12.0
290
     0
  0
SCALE
  5
50
102
{ACAD_REACTORS
330
42
102
}
330
42
100
AcDbScale
 70
     0
300
1-1/2" = 1'-0"
140
1.5
141
12.0
290
     0
  0
SCALE
  5
51
102
{ACAD_REACTORS
330
42
102
}
330
42
100
AcDbScale
 70
     0
300
3" = 1'-0"
140
3.0
141
12.0
290
     0
  0
SCALE
  5
52
102
{ACAD_REACTORS
330
42
102
}
330
42
100
AcDbScale
 70
     0
300
6" = 1'-0"
140
6.0
141
12.0
290
     0
  0
SCALE
  5
53
102
{ACAD_REACTORS
330
42
102
}
330
42
100
AcDbScale
 70
     0
300
1'-0" = 1'-0"
140
12.0
141
12.0
290
     0
  0
ACDBSECTIONVIEWSTYLE
  5
68
102
{ACAD_REACTORS
330
67
102
}
330
67
100
AcDbModelDocViewStyle
 70
     0
  3
Imperial24
290
     0
300
Imperial24
 90
        0
100
AcDbSectionViewStyle
 70
     0
 71
     0
 90
       78
 71
     1
340
55
 62
   256
 40
0.24
340
0
340
0
 62
   256
 40
0.24
300
I, O, Q, S, X, Z
 40
0.48
 90
        3
 40
0.18
 90
        1
 71
     2
340
5C
 90
       25
 62
   256
340
5C
 90
       50
 62
   256
 40
0.24
 40
0.0
 40
0.24
 71
     3
340
55
 62
   256
 40
0.24
 90
        1
 40
0.75
 90
        1
300
%<\AcVar ViewType \f "%tc1">% %<\AcVar ViewSectionStartId>%-%<\AcVar ViewSectionEndId>%\PSCALE %<\AcVar ViewScale \f "%sn">%
 71
     4
 62
   256
 62
   257
300
ANSI31
 40
1.0
 90
        0
290
     0
290
     0
 90
        6
 40
0.0
 40
1.570796326794896
 40
0.2617993877991494
 40
1.308996938995747
 40
-0.2617993877991494
 40
1.832595714594046
  0
TABLESTYLE
  5
64
102
{ACAD_XDICTIONARY
360
D68
102
}
102
{ACAD_REACTORS
330
63
102
}
330
63
100
AcDbTableStyle
280
     0
  3
Standard
 70
     0
 71
     0
 40
0.06
 41
0.06
280
     0
281
     0
  7
Standard
140
0.18
170
     2
 62
     0
 63
     7
283
     0
 90
      512
 91
        0
  1

274
    -2
284
     1
 64
     0
275
    -2
285
     1
 65
     0
276
    -2
286
     1
 66
     0
277
    -2
287
     1
 67
     0
278
    -2
288
     1
 68
     0
279
    -2
289
     1
 69
     0
  7
Standard
140
0.25
170
     5
 62
     0
 63
     7
283
     0
 90
      512
 91
        0
  1

274
    -2
284
     1
 64
     0
275
    -2
285
     1
 65
     0
276
    -2
286
     1
 66
     0
277
    -2
287
     1
 67
     0
278
    -2
288
     1
 68
     0
279
    -2
289
     1
 69
     0
  7
Standard
140
0.18
170
     5
 62
     0
 63
     7
283
     0
 90
      512
 91
        0
  1

274
    -2
284
     1
 64
     0
275
    -2
285
     1
 65
     0
276
    -2
286
     1
 66
     0
277
    -2
287
     1
 67
     0
278
    -2
288
     1
 68
     0
279
    -2
289
     1
 69
     0
  0
VISUALSTYLE
  5
2F
102
{ACAD_REACTORS
330
29
102
}
330
29
100
AcDbVisualStyle
  2
2dWireframe
 70
     4
177
     3
291
     0
 70
    58
 90
        0
176
     1
 90
        2
176
     1
 90
        0
176
     1
 90
        0
176
     1
 40
0.6
176
     1
 40
30.0
176
     1
 62
     7
420
 16777215
176
     1
 90
        1
176
     1
 90
        4
176
     1
 62
     7
176
     1
 62
   257
176
     1
 90
        1
176
     1
 90
        1
176
     1
 40
1.0
176
     1
 90
        0
176
     1
 62
   257
176
     1
 40
1.0
176
     1
 90
        1
176
     1
 90
        6
176
     1
 90
        2
176
     1
 62
     7
176
     1
 90
        5
176
     1
 90
        0
176
     1
 90
        0
176
     1
290
     0
176
     1
 90
        1
176
     1
 40
0.0
176
     1
 90
        0
176
     1
290
     1
176
     1
290
     1
176
     1
290
     0
176
     1
290
     0
176
     1
290
     0
176
     1
290
     0
176
     1
290
     0
176
     1
290
     0
176
     1
290
     0
176
     1
 90
       50
176
     1
 40
0.0
176
     1
 40
1.0
176
     1
 90
        0
176
     1
 62
    18
420
        0
176
     1
 90
       50
176
     1
 90
        3
176
     1
 62
     5
420
      255
176
     1
290
     0
176
     1
 90
       50
176
     1
 90
       50
176
     1
 90
       50
176
     1
290
     0
176
     1
 90
       50
176
     1
 62
   256
176
     0
 40
1.0
176
     0
 90
        2
176
     1
  1
strokes_ogs.tif
176
     1
290
     0
176
     1
 40
1.0
176
     1
 40
1.0
176
     1
  0
VISUALSTYLE
  5
2E
102
{ACAD_REACTORS
330
29
102
}
330
29
100
AcDbVisualStyle
  2
Basic
 70
     7
177
     3
291
     1
 70
    58
 90
        1
176
     1
 90
        0
176
     1
 90
        1
176
     1
 90
        0
176
     1
 40
0.6
176
     1
 40
30.0
176
     1
 62
     7
420
 16777215
176
     1
 90
        0
176
     1
 90
        4
176
     1
 62
     7
176
     1
 62
   257
176
     1
 90
        1
176
     1
 90
        1
176
     1
 40
1.0
176
     1
 90
        8
176
     1
 62
     7
176
     1
 40
1.0
176
     1
 90
        1
176
     1
 90
        6
176
     1
 90
        2
176
     1
 62
     7
176
     1
 90
        5
176
     1
 90
        0
176
     1
 90
        0
176
     1
290
     0
176
     1
 90
        1
176
     1
 40
0.0
176
     1
 90
        0
176
     1
290
     0
176
     1
290
     1
176
     1
290
     1
176
     1
290
     0
176
     1
290
     0
176
     1
290
     0
176
     1
290
     0
176
     1
290
     0
176
     1
290
     0
176
     1
 90
       50
176
     1
 40
0.0
176
     1
 40
1.0
176
     1
 90
        0
176
     1
 62
    18
420
        0
176
     1
 90
       50
176
     1
 90
        3
176
     1
 62
     5
420
      255
176
     1
290
     0
176
     1
 90
       50
176
     1
 90
       50
176
     1
 90
       50
176
     1
290
     0
176
     1
 90
       50
176
     1
 62
   256
176
     0
 40
1.0
176
     0
 90
        2
176
     1
  1
strokes_ogs.tif
176
     1
290
     0
176
     1
 40
1.0
176
     1
 40
1.0
176
     1
  0
VISUALSTYLE
  5
35
102
{ACAD_REACTORS
330
29
102
}
330
29
100
AcDbVisualStyle
  2
Brighten
 70
    12
177
     3
291
     1
 70
    58
 90
        2
176
     1
 90
        2
176
     1
 90
        0
176
     1
 90
        0
176
     1
 40
0.6
176
     1
 40
30.0
176
     1
 62
     7
420
 16777215
176
     1
 90
        1
176
     1
 90
        4
176
     1
 62
     7
176
     1
 62
   257
176
     1
 90
        1
176
     1
 90
        1
176
     1
 40
1.0
176
     1
 90
        8
176
     1
 62
     7
176
     1
 40
1.0
176
     1
 90
        1
176
     1
 90
        6
176
     1
 90
        2
176
     1
 62
     7
176
     1
 90
        5
176
     1
 90
        0
176
     1
 90
        0
176
     1
290
     0
176
     1
 90
        1
176
     1
 40
50.0
176
     1
 90
        0
176
     1
290
     0
176
     1
290
     1
176
     1
290
     1
176
     1
290
     0
176
     1
290
     0
176
     1
290
     0
176
     1
290
     0
176
     1
290
     0
176
     1
290
     0
176
     1
 90
       50
176
     1
 40
0.0
176
     1
 40
1.0
176
     1
 90
        0
176
     1
 62
    18
420
        0
176
     1
 90
       50
176
     1
 90
        3
176
     1
 62
     5
420
      255
176
     1
290
     0
176
     1
 90
       50
176
     1
 90
       50
176
     1
 90
       50
176
     1
290
     0
176
     1
 90
       50
176
     1
 62
   256
176
     0
 40
1.0
176
     0
 90
        2
176
     1
  1
strokes_ogs.tif
176
     1
290
     0
176
     1
 40
1.0
176
     1
 40
1.0
176
     1
  0
VISUALSTYLE
  5
39
102
{ACAD_REACTORS
330
29
102
}
330
29
100
AcDbVisualStyle
  2
ColorChange
 70
    16
177
     3
291
     1
 70
    58
 90
        2
176
     1
 90
        2
176
     1
 90
        3
176
     1
 90
        0
176
     1
 40
0.6
176
     1
 40
30.0
176
     1
 62
     8
420
  8421504
176
     1
 90
        1
176
     1
 90
        4
176
     1
 62
     7
176
     1
 62
   257
176
     1
 90
        1
176
     1
 90
        1
176
     1
 40
1.0
176
     1
 90
        8
176
     1
 62
     8
420
  8421504
176
     1
 40
1.0
176
     1
 90
        1
176
     1
 90
        6
176
     1
 90
        2
176
     1
 62
     7
176
     1
 90
        5
176
     1
 90
        0
176
     1
 90
        0
176
     1
290
     0
176
     1
 90
        1
176
     1
 40
0.0
176
     1
 90
        0
176
     1
290
     0
176
     1
290
     1
176
     1
290
     1
176
     1
290
     0
176
     1
290
     0
176
     1
290
     0
176
     1
290
     0
176
     1
290
     0
176
     1
290
     0
176
     1
 90
       50
176
     1
 40
0.0
176
     1
 40
1.0
176
     1
 90
        0
176
     1
 62
    18
420
        0
176
     1
 90
       50
176
     1
 90
        3
176
     1
 62
     5
420
      255
176
     1
290
     0
176
     1
 90
       50
176
     1
 90
       50
176
     1
 90
       50
176
     1
290
     0
176
     1
 90
       50
176
     1
 62
   256
176
     0
 40
1.0
176
     0
 90
        2
176
     1
  1
strokes_ogs.tif
176
     1
290
     0
176
     1
 40
1.0
176
     1
 40
1.0
176
     1
  0
VISUALSTYLE
  5
32
102
{ACAD_REACTORS
330
29
102
}
330
29
100
AcDbVisualStyle
  2
Conceptual
 70
     9
177
     3
291
     0
 70
    58
 90
        3
176
     1
 90
        2
176
     1
 90
        0
176
     1
 90
        0
176
     1
 40
0.6
176
     1
 40
30.0
176
     1
 62
     7
420
 16777215
176
     1
 90
        2
176
     1
 90
        2
176
     1
 62
     7
176
     1
 62
   257
176
     1
 90
        1
176
     1
 90
        1
176
     1
 40
179.0
176
     1
 90
        8
176
     1
 62
     7
176
     1
 40
1.0
176
     1
 90
        1
176
     1
 90
        6
176
     1
 90
        2
176
     1
 62
     7
176
     1
 90
        3
176
     1
 90
        0
176
     1
 90
        0
176
     1
290
     0
176
     1
 90
        1
176
     1
 40
0.0
176
     1
 90
        0
176
     1
290
     0
176
     1
290
     1
176
     1
290
     1
176
     1
290
     0
176
     1
290
     0
176
     1
290
     0
176
     1
290
     0
176
     1
290
     0
176
     1
290
     0
176
     1
 90
       50
176
     1
 40
0.0
176
     1
 40
1.0
176
     1
 90
        0
176
     1
 62
    18
420
        0
176
     1
 90
       50
176
     1
 90
        3
176
     1
 62
     5
420
      255
176
     1
290
     0
176
     1
 90
       50
176
     1
 90
       50
176
     1
 90
       50
176
     1
290
     0
176
     1
 90
       50
176
     1
 62
   256
176
     0
 40
1.0
176
     0
 90
        2
176
     1
  1
strokes_ogs.tif
176
     1
290
     0
176
     1
 40
1.0
176
     1
 40
1.0
176
     1
  0
VISUALSTYLE
  5
34
102
{ACAD_REACTORS
330
29
102
}
330
29
100
AcDbVisualStyle
  2
Dim
 70
    11
177
     3
291
     1
 70
    58
 90
        2
176
     1
 90
        2
176
     1
 90
        0
176
     1
 90
        0
176
     1
 40
0.6
176
     1
 40
30.0
176
     1
 62
     7
420
 16777215
176
     1
 90
        1
176
     1
 90
        4
176
     1
 62
     7
176
     1
 62
   257
176
     1
 90
        1
176
     1
 90
        1
176
     1
 40
1.0
176
     1
 90
        8
176
     1
 62
     7
176
     1
 40
1.0
176
     1
 90
        1
176
     1
 90
        6
176
     1
 90
        2
176
     1
 62
     7
176
     1
 90
        5
176
     1
 90
        0
176
     1
 90
        0
176
     1
290
     0
176
     1
 90
        1
176
     1
 40
-50.0
176
     1
 90
        0
176
     1
290
     0
176
     1
290
     1
176
     1
290
     1
176
     1
290
     0
176
     1
290
     0
176
     1
290
     0
176
     1
290
     0
176
     1
290
     0
176
     1
290
     0
176
     1
 90
       50
176
     1
 40
0.0
176
     1
 40
1.0
176
     1
 90
        0
176
     1
 62
    18
420
        0
176
     1
 90
       50
176
     1
 90
        3
176
     1
 62
     5
420
      255
176
     1
290
     0
176
     1
 90
       50
176
     1
 90
       50
176
     1
 90
       50
176
     1
290
     0
176
     1
 90
       50
176
     1
 62
   256
176
     0
 40
1.0
176
     0
 90
        2
176
     1
  1
strokes_ogs.tif
176
     1
290
     0
176
     1
 40
1.0
176
     1
 40
1.0
176
     1
  0
VISUALSTYLE
  5
41
102
{ACAD_REACTORS
330
29
102
}
330
29
100
AcDbVisualStyle
  2
EdgeColorOff
 70
    22
177
     3
291
     1
 70
    58
 90
        2
176
     0
 90
        2
176
     0
 90
        0
176
     0
 90
        0
176
     0
 40
0.6
176
     0
 40
30.0
176
     0
 62
     7
420
 16777215
176
     0
 90
        1
176
     0
 90
        4
176
     0
 62
     7
176
     0
 62
   257
176
     0
 90
        1
176
     0
 90
        1
176
     0
 40
1.0
176
     0
 90
        8
176
     2
 62
     7
176
     0
 40
1.0
176
     0
 90
        1
176
     0
 90
        6
176
     0
 90
        2
176
     0
 62
     7
176
     0
 90
        5
176
     0
 90
        0
176
     0
 90
        0
176
     0
290
     0
176
     0
 90
        1
176
     0
 40
0.0
176
     0
 90
        0
176
     0
290
     0
176
     1
290
     1
176
     1
290
     1
176
     1
290
     0
176
     1
290
     0
176
     1
290
     0
176
     1
290
     0
176
     1
290
     0
176
     1
290
     0
176
     1
 90
       50
176
     0
 40
0.0
176
     0
 40
1.0
176
     0
 90
        0
176
     0
 62
    18
420
        0
176
     0
 90
       50
176
     0
 90
        3
176
     0
 62
     5
420
      255
176
     0
290
     0
176
     1
 90
       50
176
     0
 90
       50
176
     0
 90
       50
176
     0
290
     0
176
     1
 90
       50
176
     0
 62
   256
176
     0
 40
1.0
176
     0
 90
        2
176
     0
  1
strokes_ogs.tif
176
     0
290
     0
176
     1
 40
1.0
176
     0
 40
1.0
176
     0
  0
VISUALSTYLE
  5
38
102
{ACAD_REACTORS
330
29
102
}
330
29
100
AcDbVisualStyle
  2
Facepattern
 70
    15
177
     3
291
     1
 70
    58
 90
        2
176
     1
 90
        2
176
     1
 90
        0
176
     1
 90
        0
176
     1
 40
0.6
176
     1
 40
30.0
176
     1
 62
     7
420
 16777215
176
     1
 90
        1
176
     1
 90
        4
176
     1
 62
     7
176
     1
 62
   257
176
     1
 90
        1
176
     1
 90
        1
176
     1
 40
1.0
176
     1
 90
        8
176
     1
 62
     7
176
     1
 40
1.0
176
     1
 90
        1
176
     1
 90
        6
176
     1
 90
        2
176
     1
 62
     7
176
     1
 90
        5
176
     1
 90
        0
176
     1
 90
        0
176
     1
290
     0
176
     1
 90
        1
176
     1
 40
0.0
176
     1
 90
        0
176
     1
290
     0
176
     1
290
     1
176
     1
290
     1
176
     1
290
     0
176
     1
290
     0
176
     1
290
     0
176
     1
290
     0
176
     1
290
     0
176
     1
290
     0
176
     1
 90
       50
176
     1
 40
0.0
176
     1
 40
1.0
176
     1
 90
        0
176
     1
 62
    18
420
        0
176
     1
 90
       50
176
     1
 90
        3
176
     1
 62
     5
420
      255
176
     1
290
     0
176
     1
 90
       50
176
     1
 90
       50
176
     1
 90
       50
176
     1
290
     0
176
     1
 90
       50
176
     1
 62
   256
176
     0
 40
1.0
176
     0
 90
        2
176
     1
  1
strokes_ogs.tif
176
     1
290
     0
176
     1
 40
1.0
176
     1
 40
1.0
176
     1
  0
VISUALSTYLE
  5
2A
102
{ACAD_REACTORS
330
29
102
}
330
29
100
AcDbVisualStyle
  2
Flat
 70
     0
177
     3
291
     1
 70
    58
 90
        2
176
     1
 90
        1
176
     1
 90
        1
176
     1
 90
        2
176
     1
 40
0.6
176
     1
 40
30.0
176
     1
 62
     7
420
 16777215
176
     1
 90
        0
176
     1
 90
        0
176
     1
 62
     7
176
     1
 62
   257
176
     1
 90
        1
176
     1
 90
        1
176
     1
 40
1.0
176
     1
 90
        8
176
     1
 62
     7
176
     1
 40
1.0
176
     1
 90
        1
176
     1
 90
        6
176
     1
 90
        2
176
     1
 62
     7
176
     1
 90
        5
176
     1
 90
        0
176
     1
 90
        0
176
     1
290
     0
176
     1
 90
       13
176
     1
 40
0.0
176
     1
 90
        0
176
     1
290
     0
176
     1
290
     1
176
     1
290
     1
176
     1
290
     0
176
     1
290
     0
176
     1
290
     0
176
     1
290
     0
176
     1
290
     0
176
     1
290
     0
176
     1
 90
       50
176
     1
 40
0.0
176
     1
 40
1.0
176
     1
 90
        0
176
     1
 62
    18
420
        0
176
     1
 90
       50
176
     1
 90
        3
176
     1
 62
     5
420
      255
176
     1
290
     0
176
     1
 90
       50
176
     1
 90
       50
176
     1
 90
       50
176
     1
290
     0
176
     1
 90
       50
176
     1
 62
   256
176
     0
 40
1.0
176
     0
 90
        2
176
     1
  1
strokes_ogs.tif
176
     1
290
     0
176
     1
 40
1.0
176
     1
 40
1.0
176
     1
  0
VISUALSTYLE
  5
2B
102
{ACAD_REACTORS
330
29
102
}
330
29
100
AcDbVisualStyle
  2
FlatWithEdges
 70
     1
177
     3
291
     1
 70
    58
 90
        2
176
     1
 90
        1
176
     1
 90
        1
176
     1
 90
        2
176
     1
 40
0.6
176
     1
 40
30.0
176
     1
 62
     7
420
 16777215
176
     1
 90
        1
176
     1
 90
        0
176
     1
 62
     7
176
     1
 62
   257
176
     1
 90
        1
176
     1
 90
        1
176
     1
 40
1.0
176
     1
 90
        0
176
     1
 62
   257
176
     1
 40
1.0
176
     1
 90
        1
176
     1
 90
        6
176
     1
 90
        2
176
     1
 62
     7
176
     1
 90
        5
176
     1
 90
        0
176
     1
 90
        0
176
     1
290
     0
176
     1
 90
       13
176
     1
 40
0.0
176
     1
 90
        0
176
     1
290
     0
176
     1
290
     1
176
     1
290
     1
176
     1
290
     0
176
     1
290
     0
176
     1
290
     0
176
     1
290
     0
176
     1
290
     0
176
     1
290
     0
176
     1
 90
       50
176
     1
 40
0.0
176
     1
 40
1.0
176
     1
 90
        0
176
     1
 62
    18
420
        0
176
     1
 90
       50
176
     1
 90
        3
176
     1
 62
     5
420
      255
176
     1
290
     0
176
     1
 90
       50
176
     1
 90
       50
176
     1
 90
       50
176
     1
290
     0
176
     1
 90
       50
176
     1
 62
   256
176
     0
 40
1.0
176
     0
 90
        2
176
     1
  1
strokes_ogs.tif
176
     1
290
     0
176
     1
 40
1.0
176
     1
 40
1.0
176
     1
  0
VISUALSTYLE
  5
2C
102
{ACAD_REACTORS
330
29
102
}
330
29
100
AcDbVisualStyle
  2
Gouraud
 70
     2
177
     3
291
     1
 70
    58
 90
        2
176
     1
 90
        2
176
     1
 90
        1
176
     1
 90
        2
176
     1
 40
0.6
176
     1
 40
30.0
176
     1
 62
     7
420
 16777215
176
     1
 90
        0
176
     1
 90
        0
176
     1
 62
     7
176
     1
 62
   257
176
     1
 90
        1
176
     1
 90
        1
176
     1
 40
1.0
176
     1
 90
        0
176
     1
 62
     7
176
     1
 40
1.0
176
     1
 90
        1
176
     1
 90
        6
176
     1
 90
        2
176
     1
 62
     7
176
     1
 90
        5
176
     1
 90
        0
176
     1
 90
        0
176
     1
290
     0
176
     1
 90
       13
176
     1
 40
0.0
176
     1
 90
        0
176
     1
290
     0
176
     1
290
     1
176
     1
290
     1
176
     1
290
     0
176
     1
290
     0
176
     1
290
     0
176
     1
290
     0
176
     1
290
     0
176
     1
290
     0
176
     1
 90
       50
176
     1
 40
0.0
176
     1
 40
1.0
176
     1
 90
        0
176
     1
 62
    18
420
        0
176
     1
 90
       50
176
     1
 90
        3
176
     1
 62
     5
420
      255
176
     1
290
     0
176
     1
 90
       50
176
     1
 90
       50
176
     1
 90
       50
176
     1
290
     0
176
     1
 90
       50
176
     1
 62
   256
176
     0
 40
1.0
176
     0
 90
        2
176
     1
  1
strokes_ogs.tif
176
     1
290
     0
176
     1
 40
1.0
176
     1
 40
1.0
176
     1
  0
VISUALSTYLE
  5
2D
102
{ACAD_REACTORS
330
29
102
}
330
29
100
AcDbVisualStyle
  2
GouraudWithEdges
 70
     3
177
     3
291
     1
 70
    58
 90
        2
176
     1
 90
        2
176
     1
 90
        1
176
     1
 90
        2
176
     1
 40
0.6
176
     1
 40
30.0
176
     1
 62
     7
420
 16777215
176
     1
 90
        1
176
     1
 90
        0
176
     1
 62
     7
176
     1
 62
   257
176
     1
 90
        1
176
     1
 90
        1
176
     1
 40
1.0
176
     1
 90
        0
176
     1
 62
   257
176
     1
 40
1.0
176
     1
 90
        1
176
     1
 90
        6
176
     1
 90
        2
176
     1
 62
     7
176
     1
 90
        5
176
     1
 90
        0
176
     1
 90
        0
176
     1
290
     0
176
     1
 90
       13
176
     1
 40
0.0
176
     1
 90
        0
176
     1
290
     0
176
     1
290
     1
176
     1
290
     1
176
     1
290
     0
176
     1
290
     0
176
     1
290
     0
176
     1
290
     0
176
     1
290
     0
176
     1
290
     0
176
     1
 90
       50
176
     1
 40
0.0
176
     1
 40
1.0
176
     1
 90
        0
176
     1
 62
    18
420
        0
176
     1
 90
       50
176
     1
 90
        3
176
     1
 62
     5
420
      255
176
     1
290
     0
176
     1
 90
       50
176
     1
 90
       50
176
     1
 90
       50
176
     1
290
     0
176
     1
 90
       50
176
     1
 62
   256
176
     0
 40
1.0
176
     0
 90
        2
176
     1
  1
strokes_ogs.tif
176
     1
290
     0
176
     1
 40
1.0
176
     1
 40
1.0
176
     1
  0
VISUALSTYLE
  5
31
102
{ACAD_REACTORS
330
29
102
}
330
29
100
AcDbVisualStyle
  2
Hidden
 70
     6
177
     3
291
     0
 70
    58
 90
        1
176
     1
 90
        2
176
     1
 90
        2
176
     1
 90
        0
176
     1
 40
0.6
176
     1
 40
30.0
176
     1
 62
     7
420
 16777215
176
     1
 90
        2
176
     1
 90
        2
176
     1
 62
     7
176
     1
 62
   257
176
     1
 90
        2
176
     1
 90
        1
176
     1
 40
40.0
176
     1
 90
        0
176
     1
 62
   257
176
     1
 40
1.0
176
     1
 90
        1
176
     1
 90
        6
176
     1
 90
        2
176
     1
 62
     7
176
     1
 90
        3
176
     1
 90
        0
176
     1
 90
        0
176
     1
290
     0
176
     1
 90
        1
176
     1
 40
0.0
176
     1
 90
        0
176
     1
290
     0
176
     1
290
     1
176
     1
290
     1
176
     1
290
     0
176
     1
290
     0
176
     1
290
     0
176
     1
290
     0
176
     1
290
     0
176
     1
290
     0
176
     1
 90
       50
176
     1
 40
0.0
176
     1
 40
1.0
176
     1
 90
        0
176
     1
 62
    18
420
        0
176
     1
 90
       50
176
     1
 90
        3
176
     1
 62
     5
420
      255
176
     1
290
     0
176
     1
 90
       50
176
     1
 90
       50
176
     1
 90
       50
176
     1
290
     0
176
     1
 90
       50
176
     1
 62
   256
176
     0
 40
1.0
176
     0
 90
        2
176
     1
  1
strokes_ogs.tif
176
     1
290
     0
176
     1
 40
1.0
176
     1
 40
1.0
176
     1
  0
VISUALSTYLE
  5
3F
102
{ACAD_REACTORS
330
29
102
}
330
29
100
AcDbVisualStyle
  2
JitterOff
 70
    20
177
     3
291
     1
 70
    58
 90
        2
176
     0
 90
        2
176
     0
 90
        0
176
     0
 90
        0
176
     0
 40
0.6
176
     0
 40
30.0
176
     0
 62
     7
420
 16777215
176
     0
 90
        1
176
     0
 90
        4
176
     0
 62
     7
176
     0
 62
   257
176
     0
 90
        1
176
     0
 90
        1
176
     0
 40
1.0
176
     0
 90
       10
176
     2
 62
     7
176
     0
 40
1.0
176
     0
 90
        1
176
     0
 90
        6
176
     0
 90
        2
176
     0
 62
     7
176
     0
 90
        5
176
     0
 90
        0
176
     0
 90
        0
176
     0
290
     0
176
     0
 90
        1
176
     0
 40
0.0
176
     0
 90
        0
176
     0
290
     0
176
     1
290
     1
176
     1
290
     1
176
     1
290
     0
176
     1
290
     0
176
     1
290
     0
176
     1
290
     0
176
     1
290
     0
176
     1
290
     0
176
     1
 90
       50
176
     0
 40
0.0
176
     0
 40
1.0
176
     0
 90
        0
176
     0
 62
    18
420
        0
176
     0
 90
       50
176
     0
 90
        3
176
     0
 62
     5
420
      255
176
     0
290
     0
176
     1
 90
       50
176
     0
 90
       50
176
     0
 90
       50
176
     0
290
     0
176
     1
 90
       50
176
     0
 62
   256
176
     0
 40
1.0
176
     0
 90
        2
176
     0
  1
strokes_ogs.tif
176
     0
290
     0
176
     1
 40
1.0
176
     0
 40
1.0
176
     0
  0
VISUALSTYLE
  5
37
102
{ACAD_REACTORS
330
29
102
}
330
29
100
AcDbVisualStyle
  2
Linepattern
 70
    14
177
     3
291
     1
 70
    58
 90
        2
176
     1
 90
        2
176
     1
 90
        0
176
     1
 90
        0
176
     1
 40
0.6
176
     1
 40
30.0
176
     1
 62
     7
420
 16777215
176
     1
 90
        1
176
     1
 90
        4
176
     1
 62
     7
176
     1
 62
   257
176
     1
 90
        7
176
     1
 90
        7
176
     1
 40
1.0
176
     1
 90
        8
176
     1
 62
     7
176
     1
 40
1.0
176
     1
 90
        1
176
     1
 90
        6
176
     1
 90
        2
176
     1
 62
     7
176
     1
 90
        5
176
     1
 90
        0
176
     1
 90
        0
176
     1
290
     0
176
     1
 90
        1
176
     1
 40
0.0
176
     1
 90
        0
176
     1
290
     0
176
     1
290
     1
176
     1
290
     1
176
     1
290
     0
176
     1
290
     0
176
     1
290
     0
176
     1
290
     0
176
     1
290
     0
176
     1
290
     0
176
     1
 90
       50
176
     1
 40
0.0
176
     1
 40
1.0
176
     1
 90
        0
176
     1
 62
    18
420
        0
176
     1
 90
       50
176
     1
 90
        3
176
     1
 62
     5
420
      255
176
     1
290
     0
176
     1
 90
       50
176
     1
 90
       50
176
     1
 90
       50
176
     1
290
     0
176
     1
 90
       50
176
     1
 62
   256
176
     0
 40
1.0
176
     0
 90
        2
176
     1
  1
strokes_ogs.tif
176
     1
290
     0
176
     1
 40
1.0
176
     1
 40
1.0
176
     1
  0
VISUALSTYLE
  5
40
102
{ACAD_REACTORS
330
29
102
}
330
29
100
AcDbVisualStyle
  2
OverhangOff
 70
    21
177
     3
291
     1
 70
    58
 90
        2
176
     0
 90
        2
176
     0
 90
        0
176
     0
 90
        0
176
     0
 40
0.6
176
     0
 40
30.0
176
     0
 62
     7
420
 16777215
176
     0
 90
        1
176
     0
 90
        4
176
     0
 62
     7
176
     0
 62
   257
176
     0
 90
        1
176
     0
 90
        1
176
     0
 40
1.0
176
     0
 90
        9
176
     2
 62
     7
176
     0
 40
1.0
176
     0
 90
        1
176
     0
 90
        6
176
     0
 90
        2
176
     0
 62
     7
176
     0
 90
        5
176
     0
 90
        0
176
     0
 90
        0
176
     0
290
     0
176
     0
 90
        1
176
     0
 40
0.0
176
     0
 90
        0
176
     0
290
     0
176
     1
290
     1
176
     1
290
     1
176
     1
290
     0
176
     1
290
     0
176
     1
290
     0
176
     1
290
     0
176
     1
290
     0
176
     1
290
     0
176
     1
 90
       50
176
     0
 40
0.0
176
     0
 40
1.0
176
     0
 90
        0
176
     0
 62
    18
420
        0
176
     0
 90
       50
176
     0
 90
        3
176
     0
 62
     5
420
      255
176
     0
290
     0
176
     1
 90
       50
176
     0
 90
       50
176
     0
 90
       50
176
     0
290
     0
176
     1
 90
       50
176
     0
 62
   256
176
     0
 40
1.0
176
     0
 90
        2
176
     0
  1
strokes_ogs.tif
176
     0
290
     0
176
     1
 40
1.0
176
     0
 40
1.0
176
     0
  0
VISUALSTYLE
  5
33
102
{ACAD_REACTORS
330
29
102
}
330
29
100
AcDbVisualStyle
  2
Realistic
 70
     8
177
     3
291
     0
 70
    58
 90
        2
176
     1
 90
        3
176
     1
 90
        0
176
     1
 90
        2
176
     1
 40
0.6
176
     1
 40
30.0
176
     1
 62
     7
420
 16777215
176
     1
 90
        0
176
     1
 90
        0
176
     1
 62
     7
176
     1
 62
   257
176
     1
 90
        1
176
     1
 90
        1
176
     1
 40
1.0
176
     1
 90
        8
176
     1
 62
   257
176
     1
 40
1.0
176
     1
 90
        1
176
     1
 90
        6
176
     1
 90
        2
176
     1
 62
     7
176
     1
 90
        3
176
     1
 90
        0
176
     1
 90
        0
176
     1
290
     0
176
     1
 90
       13
176
     1
 40
0.0
176
     1
 90
        0
176
     1
290
     0
176
     1
290
     1
176
     1
290
     1
176
     1
290
     0
176
     1
290
     0
176
     1
290
     0
176
     1
290
     0
176
     1
290
     0
176
     1
290
     0
176
     1
 90
       50
176
     1
 40
0.0
176
     1
 40
1.0
176
     1
 90
        0
176
     1
 62
    18
420
        0
176
     1
 90
       50
176
     1
 90
        3
176
     1
 62
     5
420
      255
176
     1
290
     0
176
     1
 90
       50
176
     1
 90
       50
176
     1
 90
       50
176
     1
290
     0
176
     1
 90
       50
176
     1
 62
   256
176
     0
 40
1.0
176
     0
 90
        2
176
     1
  1
strokes_ogs.tif
176
     1
290
     0
176
     1
 40
1.0
176
     1
 40
1.0
176
     1
  0
VISUALSTYLE
  5
3E
102
{ACAD_REACTORS
330
29
102
}
330
29
100
AcDbVisualStyle
  2
Shaded
 70
    27
177
     3
291
     0
 70
    58
 90
        2
176
     1
 90
        2
176
     1
 90
        1
176
     1
 90
        2
176
     1
 40
0.6
176
     1
 40
30.0
176
     1
 62
     7
420
 16777215
176
     1
 90
        0
176
     1
 90
        4
176
     1
 62
     7
176
     1
 62
   257
176
     1
 90
        1
176
     1
 90
        1
176
     1
 40
1.0
176
     1
 90
        8
176
     1
 62
   257
176
     1
 40
1.0
176
     1
 90
        1
176
     1
 90
        6
176
     1
 90
        2
176
     1
 62
     8
420
  7895160
176
     1
 90
        3
176
     1
 90
        0
176
     1
 90
        0
176
     1
290
     0
176
     1
 90
        5
176
     1
 40
0.0
176
     1
 90
        0
176
     1
290
     0
176
     1
290
     1
176
     1
290
     1
176
     1
290
     0
176
     1
290
     0
176
     1
290
     0
176
     1
290
     0
176
     1
290
     0
176
     1
290
     0
176
     1
 90
       50
176
     1
 40
0.0
176
     1
 40
1.0
176
     1
 90
        0
176
     1
 62
    18
420
        0
176
     1
 90
       50
176
     1
 90
        3
176
     1
 62
     5
420
      255
176
     1
290
     0
176
     1
 90
       50
176
     1
 90
       50
176
     1
 90
       50
176
     1
290
     0
176
     1
 90
       50
176
     1
 62
   256
176
     0
 40
1.0
176
     0
 90
        2
176
     1
  1
strokes_ogs.tif
176
     1
290
     0
176
     1
 40
1.0
176
     1
 40
1.0
176
     1
  0
VISUALSTYLE
  5
3D
102
{ACAD_REACTORS
330
29
102
}
330
29
100
AcDbVisualStyle
  2
Shaded with edges
 70
    26
177
     3
291
     0
 70
    58
 90
        2
176
     1
 90
        2
176
     1
 90
        1
176
     1
 90
        2
176
     1
 40
0.6
176
     1
 40
30.0
176
     1
 62
     7
420
 16777215
176
     1
 90
        1
176
     1
 90
        2
176
     1
 62
     7
176
     1
 62
   257
176
     1
 90
        2
176
     1
 90
        1
176
     1
 40
1.0
176
     1
 90
        8
176
     1
 62
   257
176
     1
 40
1.0
176
     1
 90
        1
176
     1
 90
        6
176
     1
 90
        2
176
     1
 62
     7
176
     1
 90
        3
176
     1
 90
        0
176
     1
 90
        0
176
     1
290
     0
176
     1
 90
        5
176
     1
 40
0.0
176
     1
 90
        0
176
     1
290
     0
176
     1
290
     1
176
     1
290
     1
176
     1
290
     0
176
     1
290
     0
176
     1
290
     0
176
     1
290
     0
176
     1
290
     0
176
     1
290
     0
176
     1
 90
       50
176
     1
 40
0.0
176
     1
 40
1.0
176
     1
 90
        0
176
     1
 62
    18
420
        0
176
     1
 90
       50
176
     1
 90
        3
176
     1
 62
     5
420
      255
176
     1
290
     0
176
     1
 90
       50
176
     1
 90
       50
176
     1
 90
       50
176
     1
290
     0
176
     1
 90
       50
176
     1
 62
   256
176
     0
 40
1.0
176
     0
 90
        2
176
     1
  1
strokes_ogs.tif
176
     1
290
     0
176
     1
 40
1.0
176
     1
 40
1.0
176
     1
  0
VISUALSTYLE
  5
3A
102
{ACAD_REACTORS
330
29
102
}
330
29
100
AcDbVisualStyle
  2
Shades of Gray
 70
    23
177
     3
291
     0
 70
    58
 90
        2
176
     1
 90
        2
176
     1
 90
        3
176
     1
 90
        0
176
     1
 40
0.6
176
     1
 40
30.0
176
     1
 62
     7
420
 16777215
176
     1
 90
        2
176
     1
 90
        2
176
     1
 62
     7
176
     1
 62
     7
176
     1
 90
        1
176
     1
 90
        1
176
     1
 40
40.0
176
     1
 90
        8
176
     1
 62
     7
176
     1
 40
1.0
176
     1
 90
        1
176
     1
 90
        6
176
     1
 90
        2
176
     1
 62
     7
176
     1
 90
        3
176
     1
 90
        0
176
     1
 90
        0
176
     1
290
     0
176
     1
 90
        1
176
     1
 40
0.0
176
     1
 90
        0
176
     1
290
     0
176
     1
290
     1
176
     1
290
     1
176
     1
290
     0
176
     1
290
     0
176
     1
290
     0
176
     1
290
     0
176
     1
290
     0
176
     1
290
     0
176
     1
 90
       50
176
     1
 40
0.0
176
     1
 40
1.0
176
     1
 90
        0
176
     1
 62
    18
420
        0
176
     1
 90
       50
176
     1
 90
        3
176
     1
 62
     5
420
      255
176
     1
290
     0
176
     1
 90
       50
176
     1
 90
       50
176
     1
 90
       50
176
     1
290
     0
176
     1
 90
       50
176
     1
 62
   256
176
     0
 40
1.0
176
     0
 90
        2
176
     1
  1
strokes_ogs.tif
176
     1
290
     0
176
     1
 40
1.0
176
     1
 40
1.0
176
     1
  0
VISUALSTYLE
  5
3B
102
{ACAD_REACTORS
330
29
102
}
330
29
100
AcDbVisualStyle
  2
Sketchy
 70
    24
177
     3
291
     0
 70
    58
 90
        1
176
     1
 90
        2
176
     1
 90
        2
176
     1
 90
        0
176
     1
 40
0.6
176
     1
 40
30.0
176
     1
 62
     7
420
 16777215
176
     1
 90
        2
176
     1
 90
        2
176
     1
 62
     7
176
     1
 62
     7
176
     1
 90
        1
176
     1
 90
        1
176
     1
 40
40.0
176
     1
 90
       11
176
     1
 62
     7
176
     1
 40
1.0
176
     1
 90
        1
176
     1
 90
        6
176
     1
 90
        2
176
     1
 62
     7
176
     1
 90
        6
176
     1
 90
        0
176
     1
 90
        0
176
     1
290
     0
176
     1
 90
        1
176
     1
 40
0.0
176
     1
 90
        0
176
     1
290
     0
176
     1
290
     1
176
     1
290
     1
176
     1
290
     0
176
     1
290
     0
176
     1
290
     0
176
     1
290
     0
176
     1
290
     0
176
     1
290
     0
176
     1
 90
       50
176
     1
 40
0.0
176
     1
 40
1.0
176
     1
 90
        0
176
     1
 62
    18
420
        0
176
     1
 90
       50
176
     1
 90
        3
176
     1
 62
     5
420
      255
176
     1
290
     0
176
     1
 90
       50
176
     1
 90
       50
176
     1
 90
       50
176
     1
290
     0
176
     1
 90
       50
176
     1
 62
   256
176
     0
 40
1.0
176
     0
 90
        2
176
     1
  1
strokes_ogs.tif
176
     1
290
     0
176
     1
 40
1.0
176
     1
 40
1.0
176
     1
  0
VISUALSTYLE
  5
36
102
{ACAD_REACTORS
330
29
102
}
330
29
100
AcDbVisualStyle
  2
Thicken
 70
    13
177
     3
291
     1
 70
    58
 90
        2
176
     1
 90
        2
176
     1
 90
        0
176
     1
 90
        0
176
     1
 40
0.6
176
     1
 40
30.0
176
     1
 62
     7
420
 16777215
176
     1
 90
        1
176
     1
 90
        4
176
     1
 62
     7
176
     1
 62
   257
176
     1
 90
        1
176
     1
 90
        1
176
     1
 40
1.0
176
     1
 90
       12
176
     1
 62
     7
176
     1
 40
1.0
176
     1
 90
        1
176
     1
 90
        6
176
     1
 90
        2
176
     1
 62
     7
176
     1
 90
        5
176
     1
 90
        0
176
     1
 90
        0
176
     1
290
     0
176
     1
 90
        1
176
     1
 40
0.0
176
     1
 90
        0
176
     1
290
     0
176
     1
290
     1
176
     1
290
     1
176
     1
290
     0
176
     1
290
     0
176
     1
290
     0
176
     1
290
     0
176
     1
290
     0
176
     1
290
     0
176
     1
 90
       50
176
     1
 40
0.0
176
     1
 40
1.0
176
     1
 90
        0
176
     1
 62
    18
420
        0
176
     1
 90
       50
176
     1
 90
        3
176
     1
 62
     5
420
      255
176
     1
290
     0
176
     1
 90
       50
176
     1
 90
       50
176
     1
 90
       50
176
     1
290
     0
176
     1
 90
       50
176
     1
 62
   256
176
     0
 40
1.0
176
     0
 90
        2
176
     1
  1
strokes_ogs.tif
176
     1
290
     0
176
     1
 40
1.0
176
     1
 40
1.0
176
     1
  0
VISUALSTYLE
  5
30
102
{ACAD_REACTORS
330
29
102
}
330
29
100
AcDbVisualStyle
  2
Wireframe
 70
     5
177
     3
291
     0
 70
    58
 90
        0
176
     1
 90
        2
176
     1
 90
        0
176
     1
 90
        0
176
     1
 40
0.6
176
     1
 40
30.0
176
     1
 62
     7
420
 16777215
176
     1
 90
        1
176
     1
 90
        4
176
     1
 62
     7
176
     1
 62
   257
176
     1
 90
        1
176
     1
 90
        1
176
     1
 40
1.0
176
     1
 90
        0
176
     1
 62
   257
176
     1
 40
1.0
176
     1
 90
        1
176
     1
 90
        6
176
     1
 90
        2
176
     1
 62
     7
176
     1
 90
        3
176
     1
 90
        0
176
     1
 90
        0
176
     1
290
     0
176
     1
 90
        1
176
     1
 40
0.0
176
     1
 90
        0
176
     1
290
     0
176
     1
290
     1
176
     1
290
     1
176
     1
290
     0
176
     1
290
     0
176
     1
290
     0
176
     1
290
     0
176
     1
290
     0
176
     1
290
     0
176
     1
 90
       50
176
     1
 40
0.0
176
     1
 40
1.0
176
     1
 90
        0
176
     1
 62
    18
420
        0
176
     1
 90
       50
176
     1
 90
        3
176
     1
 62
     5
420
      255
176
     1
290
     0
176
     1
 90
       50
176
     1
 90
       50
176
     1
 90
       50
176
     1
290
     0
176
     1
 90
       50
176
     1
 62
   256
176
     0
 40
1.0
176
     0
 90
        2
176
     1
  1
strokes_ogs.tif
176
     1
290
     0
176
     1
 40
1.0
176
     1
 40
1.0
176
     1
  0
VISUALSTYLE
  5
3C
102
{ACAD_REACTORS
330
29
102
}
330
29
100
AcDbVisualStyle
  2
X-Ray
 70
    25
177
     3
291
     0
 70
    58
 90
        2
176
     1
 90
        2
176
     1
 90
        1
176
     1
 90
        1
176
     1
 40
0.5
176
     1
 40
30.0
176
     1
 62
     7
420
 16777215
176
     1
 90
        1
176
     1
 90
        0
176
     1
 62
     7
176
     1
 62
   257
176
     1
 90
        1
176
     1
 90
        1
176
     1
 40
1.0
176
     1
 90
        8
176
     1
 62
     7
176
     1
 40
1.0
176
     1
 90
        1
176
     1
 90
        6
176
     1
 90
        2
176
     1
 62
     7
176
     1
 90
        3
176
     1
 90
        0
176
     1
 90
        0
176
     1
290
     0
176
     1
 90
       13
176
     1
 40
0.0
176
     1
 90
        0
176
     1
290
     0
176
     1
290
     1
176
     1
290
     1
176
     1
290
     0
176
     1
290
     0
176
     1
290
     0
176
     1
290
     0
176
     1
290
     0
176
     1
290
     0
176
     1
 90
       50
176
     1
 40
0.0
176
     1
 40
1.0
176
     1
 90
        0
176
     1
 62
    18
420
        0
176
     1
 90
       50
176
     1
 90
        3
176
     1
 62
     5
420
      255
176
     1
290
     0
176
     1
 90
       50
176
     1
 90
       50
176
     1
 90
       50
176
     1
290
     0
176
     1
 90
       50
176
     1
 62
   256
176
     0
 40
1.0
176
     0
 90
        2
176
     1
  1
strokes_ogs.tif
176
     1
290
     0
176
     1
 40
1.0
176
     1
 40
1.0
176
     1
  0
DICTIONARYVAR
  5
D5D
102
{ACAD_REACTORS
330
D57
102
}
330
D57
100
DictionaryVariables
280
     0
  1
1:1
  0
DICTIONARYVAR
  5
D59
102
{ACAD_REACTORS
330
D57
102
}
330
D57
100
DictionaryVariables
280
     0
  1
STANDARD
  0
DICTIONARYVAR
  5
D58
102
{ACAD_REACTORS
330
D57
102
}
330
D57
100
DictionaryVariables
280
     0
  1
STANDARD
  0
DICTIONARYVAR
  5
D5A
102
{ACAD_REACTORS
330
D57
102
}
330
D57
100
DictionaryVariables
280
     0
  1
Imperial24
  0
DICTIONARYVAR
  5
D5B
102
{ACAD_REACTORS
330
D57
102
}
330
D57
100
DictionaryVariables
280
     0
  1
Imperial24
  0
DICTIONARYVAR
  5
D5F
102
{ACAD_REACTORS
330
D57
102
}
330
D57
100
DictionaryVariables
280
     0
  1
1
  0
DICTIONARYVAR
  5
D60
102
{ACAD_REACTORS
330
D57
102
}
330
D57
100
DictionaryVariables
280
     0
  1
15
  0
DICTIONARYVAR
  5
D5E
102
{ACAD_REACTORS
330
D57
102
}
330
D57
100
DictionaryVariables
280
     0
  1
0
  0
DICTIONARYVAR
  5
D5C
102
{ACAD_REACTORS
330
D57
102
}
330
D57
100
DictionaryVariables
280
     0
  1
0
  0
DICTIONARY
  5
D65
330
72
100
AcDbDictionary
280
     1
281
     1
  3
AcPublish_PlotSettingsOverride
360
D66
  0
DICTIONARY
  5
1A
330
19
100
AcDbDictionary
280
     1
281
     1
  3
BUMPTILE
360
1C
  3
DIFFUSETILE
360
1B
  3
OPACITYTILE
360
1F
  3
REFLECTIONTILE
360
1E
  3
REFRACTIONTILE
360
20
  3
SPECULARTILE
360
1D
  0
DICTIONARY
  5
12
330
11
100
AcDbDictionary
280
     1
281
     1
  3
BUMPTILE
360
14
  3
DIFFUSETILE
360
13
  3
OPACITYTILE
360
17
  3
REFLECTIONTILE
360
16
  3
REFRACTIONTILE
360
18
  3
SPECULARTILE
360
15
  0
DICTIONARY
  5
22
330
21
100
AcDbDictionary
280
     1
281
     1
  3
BUMPTILE
360
24
  3
DIFFUSETILE
360
23
  3
OPACITYTILE
360
27
  3
REFLECTIONTILE
360
26
  3
REFRACTIONTILE
360
28
  3
SPECULARTILE
360
25
  0
DICTIONARY
  5
D68
330
64
100
AcDbDictionary
280
     1
281
     1
  3
ACAD_ROUNDTRIP_2008_TABLESTYLE_CELLSTYLEMAP
360
D69
  0
PLOTSETTINGS
  5
D66
102
{ACAD_REACTORS
330
D65
102
}
330
D65
100
AcDbPlotSettings
  1

  2
Panasonic KX-MB2138CN
  4
A4
  6

 40
4.857749462127685
 41
5.027099609375
 42
4.857757568359375
 43
5.027069091796875
 44
209.9733276367187
 45
296.9259948730469
 46
0.0
 47
0.0
 48
0.0
 49
0.0
140
0.0
141
0.0
142
1.0
143
132.6423490685984
 70
 11952
 72
     0
 73
     1
 74
     0
  7

 75
     0
147
0.0075390703423296
 76
     0
 77
     2
 78
   300
148
23266.40557789144
149
3091.641652642327
1001
ACAD_PSEXT
1000
Panasonic KX-MB2138CN
1000
Panasonic KX-MB2130 GDI
1000
MB2138-23A94139
1000

1070
     0
  0
XRECORD
  5
1C
102
{ACAD_REACTORS
330
1A
102
}
330
1A
100
AcDbXrecord
280
     1
270
     1
271
     1
  0
XRECORD
  5
1B
102
{ACAD_REACTORS
330
1A
102
}
330
1A
100
AcDbXrecord
280
     1
270
     1
271
     1
  0
XRECORD
  5
1F
102
{ACAD_REACTORS
330
1A
102
}
330
1A
100
AcDbXrecord
280
     1
270
     1
271
     1
  0
XRECORD
  5
1E
102
{ACAD_REACTORS
330
1A
102
}
330
1A
100
AcDbXrecord
280
     1
270
     1
271
     1
  0
XRECORD
  5
20
102
{ACAD_REACTORS
330
1A
102
}
330
1A
100
AcDbXrecord
280
     1
270
     1
271
     1
  0
XRECORD
  5
1D
102
{ACAD_REACTORS
330
1A
102
}
330
1A
100
AcDbXrecord
280
     1
270
     1
271
     1
  0
XRECORD
  5
14
102
{ACAD_REACTORS
330
12
102
}
330
12
100
AcDbXrecord
280
     1
270
     1
271
     1
  0
XRECORD
  5
13
102
{ACAD_REACTORS
330
12
102
}
330
12
100
AcDbXrecord
280
     1
270
     1
271
     1
  0
XRECORD
  5
17
102
{ACAD_REACTORS
330
12
102
}
330
12
100
AcDbXrecord
280
     1
270
     1
271
     1
  0
XRECORD
  5
16
102
{ACAD_REACTORS
330
12
102
}
330
12
100
AcDbXrecord
280
     1
270
     1
271
     1
  0
XRECORD
  5
18
102
{ACAD_REACTORS
330
12
102
}
330
12
100
AcDbXrecord
280
     1
270
     1
271
     1
  0
XRECORD
  5
15
102
{ACAD_REACTORS
330
12
102
}
330
12
100
AcDbXrecord
280
     1
270
     1
271
     1
  0
XRECORD
  5
24
102
{ACAD_REACTORS
330
22
102
}
330
22
100
AcDbXrecord
280
     1
270
     1
271
     1
  0
XRECORD
  5
23
102
{ACAD_REACTORS
330
22
102
}
330
22
100
AcDbXrecord
280
     1
270
     1
271
     1
  0
XRECORD
  5
27
102
{ACAD_REACTORS
330
22
102
}
330
22
100
AcDbXrecord
280
     1
270
     1
271
     1
  0
XRECORD
  5
26
102
{ACAD_REACTORS
330
22
102
}
330
22
100
AcDbXrecord
280
     1
270
     1
271
     1
  0
XRECORD
  5
28
102
{ACAD_REACTORS
330
22
102
}
330
22
100
AcDbXrecord
280
     1
270
     1
271
     1
  0
XRECORD
  5
25
102
{ACAD_REACTORS
330
22
102
}
330
22
100
AcDbXrecord
280
     1
270
     1
271
     1
  0
CELLSTYLEMAP
  5
D69
102
{ACAD_REACTORS
330
D68
102
}
330
D68
100
AcDbCellStyleMap
 90
        3
300
CELLSTYLE
  1
TABLEFORMAT_BEGIN
 90
        5
170
     1
 91
        0
 92
    32768
 62
   257
 93
        1
300
CONTENTFORMAT
  1
CONTENTFORMAT_BEGIN
 90
        0
 91
        0
 92
      512
 93
        0
300

 40
0.0
140
1.0
 94
        5
 62
     0
340
55
144
0.25
309
CONTENTFORMAT_END
171
     0
 94
        0
309
TABLEFORMAT_END
  1
CELLSTYLE_BEGIN
 90
        1
 91
        1
300
_TITLE
309
CELLSTYLE_END
300
CELLSTYLE
  1
TABLEFORMAT_BEGIN
 90
        5
170
     1
 91
        0
 92
        0
 62
   257
 93
        1
300
CONTENTFORMAT
  1
CONTENTFORMAT_BEGIN
 90
        0
 91
        0
 92
      512
 93
        0
300

 40
0.0
140
1.0
 94
        5
 62
     0
340
55
144
0.18
309
CONTENTFORMAT_END
171
     0
 94
        0
309
TABLEFORMAT_END
  1
CELLSTYLE_BEGIN
 90
        2
 91
        1
300
_HEADER
309
CELLSTYLE_END
300
CELLSTYLE
  1
TABLEFORMAT_BEGIN
 90
        5
170
     1
 91
        0
 92
        0
 62
   257
 93
        1
300
CONTENTFORMAT
  1
CONTENTFORMAT_BEGIN
 90
        0
 91
        0
 92
      512
 93
        0
300

 40
0.0
140
1.0
 94
        2
 62
     0
340
55
144
0.18
309
CONTENTFORMAT_END
171
     0
 94
        0
309
TABLEFORMAT_END
  1
CELLSTYLE_BEGIN
 90
        3
 91
        2
300
_DATA
309
CELLSTYLE_END
  0
ENDSEC
  0
EOF
